<?xml version="1.0" encoding="UTF-8" standalone="no"?>
<!-- Created with Inkscape (http://www.inkscape.org/) -->

<svg
   xmlns:dc="http://purl.org/dc/elements/1.1/"
   xmlns:cc="http://creativecommons.org/ns#"
   xmlns:rdf="http://www.w3.org/1999/02/22-rdf-syntax-ns#"
   xmlns:svg="http://www.w3.org/2000/svg"
   xmlns="http://www.w3.org/2000/svg"
   xmlns:sodipodi="http://sodipodi.sourceforge.net/DTD/sodipodi-0.dtd"
   xmlns:inkscape="http://www.inkscape.org/namespaces/inkscape"
   width="1600px"
   height="900px"
   viewBox="0 0 1600 900"
   version="1.1"
   id="SVGRoot"
   inkscape:version="0.92.5 (2060ec1f9f, 2020-04-08)"
   sodipodi:docname="not.svg">
  <defs
     id="defs1480" />
  <sodipodi:namedview
     id="base"
     pagecolor="#ffffff"
     bordercolor="#666666"
     borderopacity="1.0"
     inkscape:pageopacity="0.0"
     inkscape:pageshadow="2"
     inkscape:zoom="0.35"
     inkscape:cx="800"
     inkscape:cy="450"
     inkscape:document-units="px"
     inkscape:current-layer="layer1"
     showgrid="false"
     inkscape:window-width="1366"
     inkscape:window-height="704"
     inkscape:window-x="0"
     inkscape:window-y="27"
     inkscape:window-maximized="1" />
  <metadata
     id="metadata1483">
    <rdf:RDF>
      <cc:Work
         rdf:about="">
        <dc:format>image/svg+xml</dc:format>
        <dc:type
           rdf:resource="http://purl.org/dc/dcmitype/StillImage" />
        <dc:title></dc:title>
      </cc:Work>
    </rdf:RDF>
  </metadata>
  <g
     inkscape:label="Layer 1"
     inkscape:groupmode="layer"
     id="layer1">
    <path
       d="m 350.60531,882.31574 c -2.61191,4.87307 -4.90683,12.08889 -6.80868,17.14816 51.60943,0 107.76158,0.0613 153.90088,0.0613 52.75417,-0.008 105.5066,-0.008 158.25889,-0.01 105.50472,-0.01 211.01111,-0.019 316.51575,-0.0272 210.65095,-0.0183 421.30155,-0.0339 631.95225,-0.0521 0.3605,0 0.7211,0 1.0814,0 0.05,-298.20571 0.1026,-596.40989 0.1523,-894.6140401 -125.5851,-22.7242759 -255.6924,28.0675521 -350.7877,97.8102301 -43.4005,31.82806 -82.8038,68.21778 -133.8443,91.60428 -51.0388,23.38806 -118.9228,31.07211 -166.72493,3.61988 -48.67312,-27.95537 -61.87042,-82.26052 -104.3381,-116.127122 -42.63445,-33.99906 -106.749,-43.193414 -164.05865,-33.404637 -57.83666,9.879254 -117.06989,49.50445 -135.1357,95.754029 -4.38153,11.21831 -6.04628,23.06987 -5.55534,34.82285 1.75148,41.88824 29.64541,78.34259 56.4437,112.83432 20.40986,26.26816 62.51537,44.098 68.91462,76.7822 3.84367,19.63733 -7.91717,39.55894 -25.04298,53.89807 -17.12771,14.34075 -39.16408,24.12306 -60.72755,33.85368 -61.95744,27.96266 -122.95656,57.29832 -182.89981,87.9666 -41.36469,21.16381 -102.59756,59.29161 -79.74255,105.48628 13.97964,28.255 54.93497,39.22621 83.6731,55.13378 15.54277,8.60152 29.72347,20.38522 33.61594,35.2267 4.49746,17.15121 -5.50455,34.48364 -16.5897,49.57857 -22.39674,30.50352 -54.55824,59.62144 -72.25284,92.65455"
       style="fill:#d8c8e8;fill-opacity:1;fill-rule:nonzero;stroke:none;stroke-width:0.17105015"
       id="path14"
       inkscape:connector-curvature="0" />
    <path
       d="m 1060.0585,273.83389 -51.2326,-10.78801 c -2.4523,-3.64641 -3.8277,-5.69114 -6.2812,-9.33862 l 11.3447,-48.14884 c 3.8581,-2.31842 6.0197,-3.61873 9.8779,-5.93713 l 51.2338,10.78801 c 2.4512,3.64748 3.8266,5.6922 6.28,9.33967 l -11.3435,48.14885 c -3.8581,2.31735 -6.0209,3.61766 -9.8791,5.93607"
       style="fill:#382d88;fill-opacity:1;fill-rule:nonzero;stroke:none;stroke-width:0.10952782"
       id="path16"
       inkscape:connector-curvature="0" />
    <path
       d="m 1062.2495,266.97344 -52.3286,-11.01911 11.6555,-49.47259 52.3286,11.01911 -11.6555,49.47259"
       style="fill:#6b50ad;fill-opacity:1;fill-rule:nonzero;stroke:none;stroke-width:0.10952782"
       id="path18"
       inkscape:connector-curvature="0" />
    <path
       d="m 1075.0011,210.4093 -1.0961,7.09155 7.3761,2.24812 z"
       style="fill:#6758b1;fill-opacity:1;fill-rule:nonzero;stroke:none;stroke-width:0.10952782"
       id="path20"
       inkscape:connector-curvature="0" />
    <path
       d="m 1023.7673,199.62129 -2.1909,6.86045 -7.687,-0.92332 z"
       style="fill:#6758b1;fill-opacity:1;fill-rule:nonzero;stroke:none;stroke-width:0.10952782"
       id="path22"
       inkscape:connector-curvature="0" />
    <path
       d="m 1008.8259,263.04588 1.095,-7.09155 -7.3762,-2.24707 z"
       style="fill:#6758b1;fill-opacity:1;fill-rule:nonzero;stroke:none;stroke-width:0.10952782"
       id="path24"
       inkscape:connector-curvature="0" />
    <path
       d="m 1060.0585,273.83389 2.191,-6.86045 7.6881,0.92438 z"
       style="fill:#6758b1;fill-opacity:1;fill-rule:nonzero;stroke:none;stroke-width:0.10952782"
       id="path26"
       inkscape:connector-curvature="0" />
    <path
       d="m 1083.2997,332.25638 2.0017,-8.49835 c 22.91,4.82319 45.2613,-7.01382 49.8258,-26.38858 4.8741,-20.68786 -6.8906,-38.32993 -28.6077,-42.90287 l 2.0028,-8.49836 c 26.5812,5.59636 41.5508,28.01051 35.594,53.29473 -5.6673,24.05952 -32.9513,38.86135 -60.8166,32.99343"
       style="fill:#6b50ad;fill-opacity:1;fill-rule:nonzero;stroke:none;stroke-width:0.10952782"
       id="path28"
       inkscape:connector-curvature="0" />
    <path
       d="m 1102.5408,234.24198 c -5.7618,-1.21299 -11.4843,0.79871 -15.071,4.7646 l 7.4775,1.57402 c 3.8897,0.81895 6.3408,4.4643 5.4746,8.1416 -0.8662,3.67836 -4.7221,5.99571 -8.6117,5.17676 l -7.4776,-1.57508 c 1.4678,5.0298 5.745,9.148 11.5069,10.36097 8.3088,1.74973 16.5432,-3.19914 18.394,-11.05426 1.8496,-7.85405 -3.3851,-15.63888 -11.6927,-17.38861"
       style="fill:#f37036;fill-opacity:1;fill-rule:nonzero;stroke:none;stroke-width:0.10952782"
       id="path30"
       inkscape:connector-curvature="0" />
    <path
       d="m 1109.7683,251.01505 c 0.2578,-1.09691 -0.4732,-2.18529 -1.6346,-2.43022 -1.1602,-0.24389 -2.3115,0.44727 -2.5706,1.54525 -0.259,1.09797 0.472,2.18635 1.6345,2.43023 1.1614,0.24493 2.3115,-0.44728 2.5707,-1.54526"
       style="fill:#382d88;fill-opacity:1;fill-rule:nonzero;stroke:none;stroke-width:0.10952782"
       id="path32"
       inkscape:connector-curvature="0" />
    <path
       d="m 1091.6649,341.60458 -8.7831,-1.84875 5.2933,-22.46635 8.7818,1.84983 -5.292,22.46527"
       style="fill:#382d88;fill-opacity:1;fill-rule:nonzero;stroke:none;stroke-width:0.10952782"
       id="path34"
       inkscape:connector-curvature="0" />
    <path
       d="m 1084.9928,350.35961 -8.7819,-1.84986 9.8531,-41.82405 8.7819,1.84982 -9.8531,41.82409"
       style="fill:#6b50ad;fill-opacity:1;fill-rule:nonzero;stroke:none;stroke-width:0.10952782"
       id="path36"
       inkscape:connector-curvature="0" />
    <path
       d="m 961.01433,307.72722 c -19.0496,-4.14481 -33.0875,-17.17138 -36.6359,-33.99662 -2.4489,-11.60165 1.042,-25.89125 9.335,-38.22559 8.6738,-12.89875 21.1797,-21.71661 34.3098,-24.19263 l 1.8023,8.53883 c -10.6789,2.01384 -21.0074,9.42168 -28.3406,20.32577 -7.0506,10.48771 -10.0706,22.39392 -8.0757,31.85074 2.8319,13.4206 14.2014,23.84866 29.6711,27.21392 l -2.066,8.48558"
       style="fill:#6b50ad;fill-opacity:1;fill-rule:nonzero;stroke:none;stroke-width:0.10952782"
       id="path38"
       inkscape:connector-curvature="0" />
    <path
       d="m 969.16763,198.99721 c 5.6132,-3.00743 12.27517,-2.63044 17.36337,0.43238 l -7.28477,3.902 c -3.7895,2.03087 -5.121,6.58037 -2.9728,10.1629 2.147,3.58356 6.96037,4.84235 10.74977,2.81148 l 7.2849,-3.90201 c 0.1633,5.69965 -2.9164,11.29601 -8.5296,14.30345 -8.09477,4.3365 -18.37367,1.64855 -22.96067,-6.00317 -4.587,-7.65279 -1.7438,-17.37052 6.3498,-21.70703"
       style="fill:#f37036;fill-opacity:1;fill-rule:nonzero;stroke:none;stroke-width:0.10952782"
       id="path40"
       inkscape:connector-curvature="0" />
    <path
       d="m 994.0197,208.78098 c -2.1189,1.27263 -4.9283,0.68158 -6.2744,-1.32269 -1.3473,-2.00212 -0.7221,-4.65918 1.3968,-5.93181 2.12,-1.27368 4.9282,-0.68156 6.2755,1.32162 1.3473,2.00318 0.7209,4.65919 -1.3979,5.93288 z m -2.8263,-12.21293 -7.6701,4.60913 0.3864,8.58676 8.0598,3.97546 7.6701,-4.61019 -0.3864,-8.58568 -8.0598,-3.97548"
       style="fill:#382d88;fill-opacity:1;fill-rule:nonzero;stroke:none;stroke-width:0.10952782"
       id="path42"
       inkscape:connector-curvature="0" />
    <path
       d="m 971.80473,216.87997 c 0.2591,-1.09795 -0.4731,-2.18635 -1.6345,-2.43021 -1.1602,-0.24495 -2.3115,0.44621 -2.5706,1.54418 -0.2591,1.09797 0.4731,2.18634 1.6345,2.43024 1.1614,0.24493 2.3126,-0.44729 2.5706,-1.54421"
       style="fill:#382d88;fill-opacity:1;fill-rule:nonzero;stroke:none;stroke-width:0.10952782"
       id="path44"
       inkscape:connector-curvature="0" />
    <path
       d="m 955.22433,289.29496 8.7819,1.84982 -5.2921,22.46527 -8.783,-1.84876 5.2932,-22.46633"
       style="fill:#382d88;fill-opacity:1;fill-rule:nonzero;stroke:none;stroke-width:0.10952782"
       id="path46"
       inkscape:connector-curvature="0" />
    <path
       d="m 961.89523,280.541 8.783,1.84877 -9.853,41.82406 -8.7831,-1.84877 9.8531,-41.82406"
       style="fill:#6b50ad;fill-opacity:1;fill-rule:nonzero;stroke:none;stroke-width:0.10952782"
       id="path48"
       inkscape:connector-curvature="0" />
    <path
       d="m 1049.6815,399.40728 -87.83127,-18.49406 c -4.204,-6.25236 -6.5617,-9.7582 -10.7657,-16.01163 l 19.4462,-82.5427 c 6.6146,-3.97443 10.32287,-6.20338 16.93627,-10.1778 l 87.8303,18.49405 c 4.2051,6.25236 6.5627,9.75819 10.7667,16.01056 l -19.4472,82.54377 c -6.6134,3.97442 -10.3218,6.20338 -16.9353,10.17781"
       style="fill:#f37036;fill-opacity:1;fill-rule:nonzero;stroke:none;stroke-width:0.10952782"
       id="path50"
       inkscape:connector-curvature="0" />
    <path
       d="m 1053.4394,387.64482 -89.71137,-18.88915 19.98117,-84.8132 89.7103,18.89021 -19.9801,84.81214"
       style="fill:#f57b43;fill-opacity:1;fill-rule:nonzero;stroke:none;stroke-width:0.10952782"
       id="path52"
       inkscape:connector-curvature="0" />
    <path
       d="m 1075.2973,290.67514 -1.8778,12.15754 12.6445,3.85302 z"
       style="fill:#f57b43;fill-opacity:1;fill-rule:nonzero;stroke:none;stroke-width:0.10952782"
       id="path54"
       inkscape:connector-curvature="0" />
    <path
       d="m 987.467,272.18109 -3.7578,11.76138 -13.17847,-1.58358 z"
       style="fill:#f57b43;fill-opacity:1;fill-rule:nonzero;stroke:none;stroke-width:0.10952782"
       id="path56"
       inkscape:connector-curvature="0" />
    <path
       d="m 961.85023,380.91322 1.8778,-12.15755 -12.6435,-3.85408 z"
       style="fill:#f57b43;fill-opacity:1;fill-rule:nonzero;stroke:none;stroke-width:0.10952782"
       id="path58"
       inkscape:connector-curvature="0" />
    <path
       d="m 1049.6815,399.40728 3.7579,-11.76246 13.1774,1.58465 z"
       style="fill:#f57b43;fill-opacity:1;fill-rule:nonzero;stroke:none;stroke-width:0.10952782"
       id="path60"
       inkscape:connector-curvature="0" />
    <path
       d="m 1006.3274,309.09037 c -2.5481,2.56334 -6.8117,2.69009 -9.5242,0.28116 -2.7114,-2.40893 -2.8455,-6.4398 -0.2974,-9.00422 2.5481,-2.56335 6.8117,-2.69009 9.5231,-0.28115 2.7125,2.40892 2.8465,6.4398 0.2985,9.00421 z m -8.8033,-16.55476 -9.2235,9.28324 3.892,12.1927 13.1154,2.91158 9.2234,-9.28322 -3.8907,-12.19377 -13.1166,-2.91053"
       style="fill:#f2d264;fill-opacity:1;fill-rule:nonzero;stroke:none;stroke-width:0.10952782"
       id="path62"
       inkscape:connector-curvature="0" />
    <path
       d="m 1035.3327,314.93166 c -1.6277,1.63792 -4.3515,1.71885 -6.0841,0.17998 -1.7325,-1.53886 -1.8169,-4.11286 -0.1891,-5.75077 1.6265,-1.6379 4.3503,-1.71885 6.0828,-0.17997 1.7325,1.53886 1.8171,4.11287 0.1904,5.75076 z m -5.6222,-10.57396 -5.8925,5.92969 2.4849,7.78802 8.3787,1.85942 5.8914,-5.92969 -2.4861,-7.78909 -8.3764,-1.85835"
       style="fill:#f2d264;fill-opacity:1;fill-rule:nonzero;stroke:none;stroke-width:0.10952782"
       id="path64"
       inkscape:connector-curvature="0" />
    <path
       d="m 1056.4111,320.2458 c -1.6278,1.63791 -4.3516,1.71884 -6.0841,0.17998 -1.7324,-1.53886 -1.8169,-4.11393 -0.1904,-5.75184 1.629,-1.63683 4.3516,-1.71777 6.084,-0.17891 1.7326,1.53887 1.8171,4.11287 0.1905,5.75077 z m -5.6223,-10.57395 -5.8925,5.9286 2.4861,7.7891 8.3775,1.85942 5.8914,-5.92969 -2.4849,-7.78801 -8.3776,-1.85942"
       style="fill:#f2d264;fill-opacity:1;fill-rule:nonzero;stroke:none;stroke-width:0.10952782"
       id="path66"
       inkscape:connector-curvature="0" />
    <path
       d="m 1023.6716,267.17472 21.0502,4.43235 -1.1311,4.80083 -21.0501,-4.43236 1.131,-4.80082"
       style="fill:#f37036;fill-opacity:1;fill-rule:nonzero;stroke:none;stroke-width:0.10952782"
       id="path68"
       inkscape:connector-curvature="0" />
    <path
       d="m 1022.2657,273.14274 21.0502,4.43234 -1.1309,4.80083 -21.0502,-4.43235 1.1309,-4.80082"
       style="fill:#f37036;fill-opacity:1;fill-rule:nonzero;stroke:none;stroke-width:0.10952782"
       id="path70"
       inkscape:connector-curvature="0" />
    <path
       d="m 1056.6735,262.18752 -39.5951,-8.33755 2.4725,-10.49622 39.5941,8.33755 -2.4715,10.49622"
       style="fill:#382d88;fill-opacity:1;fill-rule:nonzero;stroke:none;stroke-width:0.10952782"
       id="path72"
       inkscape:connector-curvature="0" />
    <path
       d="m 1054.2809,260.05761 -34.0811,-7.17675 1.7291,-7.33968 34.0812,7.17673 -1.7292,7.3397"
       style="fill:#9d8acd;fill-opacity:1;fill-rule:nonzero;stroke:none;stroke-width:0.10952782"
       id="path74"
       inkscape:connector-curvature="0" />
    <path
       d="m 1023.0025,251.51345 -1.3417,-0.28329 1.1512,-4.88388 1.3405,0.28221 -1.15,4.88496"
       style="fill:#382d88;fill-opacity:1;fill-rule:nonzero;stroke:none;stroke-width:0.10952782"
       id="path76"
       inkscape:connector-curvature="0" />
    <path
       d="m 1024.4736,253.16306 -1.3405,-0.2822 1.1501,-4.88496 1.3417,0.2822 -1.1513,4.88496"
       style="fill:#382d88;fill-opacity:1;fill-rule:nonzero;stroke:none;stroke-width:0.10952782"
       id="path78"
       inkscape:connector-curvature="0" />
    <path
       d="m 1026.5475,252.26 -1.3406,-0.28222 1.1513,-4.88496 1.3405,0.28221 -1.1512,4.88497"
       style="fill:#382d88;fill-opacity:1;fill-rule:nonzero;stroke:none;stroke-width:0.10952782"
       id="path80"
       inkscape:connector-curvature="0" />
    <path
       d="m 1028.0208,253.90961 -1.3416,-0.28222 1.1512,-4.88496 1.3406,0.28222 -1.1502,4.88496"
       style="fill:#382d88;fill-opacity:1;fill-rule:nonzero;stroke:none;stroke-width:0.10952782"
       id="path82"
       inkscape:connector-curvature="0" />
    <path
       d="m 1030.0935,253.00653 -1.3405,-0.28222 1.1513,-4.88496 1.3405,0.28221 -1.1513,4.88497"
       style="fill:#382d88;fill-opacity:1;fill-rule:nonzero;stroke:none;stroke-width:0.10952782"
       id="path84"
       inkscape:connector-curvature="0" />
    <path
       d="m 1031.567,254.65615 -1.3406,-0.28223 1.1502,-4.88496 1.3416,0.28223 -1.1512,4.88496"
       style="fill:#382d88;fill-opacity:1;fill-rule:nonzero;stroke:none;stroke-width:0.10952782"
       id="path86"
       inkscape:connector-curvature="0" />
    <path
       d="m 1033.6408,253.75306 -1.3417,-0.28221 1.1512,-4.88497 1.3405,0.28223 -1.15,4.88495"
       style="fill:#382d88;fill-opacity:1;fill-rule:nonzero;stroke:none;stroke-width:0.10952782"
       id="path88"
       inkscape:connector-curvature="0" />
    <path
       d="m 1035.113,255.40267 -1.3416,-0.2822 1.1512,-4.88496 1.3406,0.2822 -1.1502,4.88496"
       style="fill:#382d88;fill-opacity:1;fill-rule:nonzero;stroke:none;stroke-width:0.10952782"
       id="path90"
       inkscape:connector-curvature="0" />
    <path
       d="m 1037.1868,254.49959 -1.3405,-0.28222 1.1502,-4.88495 1.3416,0.28328 -1.1513,4.88389"
       style="fill:#382d88;fill-opacity:1;fill-rule:nonzero;stroke:none;stroke-width:0.10952782"
       id="path92"
       inkscape:connector-curvature="0" />
    <path
       d="m 1038.6591,256.14921 -1.3405,-0.28221 1.1502,-4.88495 1.3405,0.2822 -1.1502,4.88496"
       style="fill:#382d88;fill-opacity:1;fill-rule:nonzero;stroke:none;stroke-width:0.10952782"
       id="path94"
       inkscape:connector-curvature="0" />
    <path
       d="m 1040.7217,255.244 -1.3405,-0.28223 1.1502,-4.88388 1.3415,0.28221 -1.1512,4.8839"
       style="fill:#382d88;fill-opacity:1;fill-rule:nonzero;stroke:none;stroke-width:0.10952782"
       id="path96"
       inkscape:connector-curvature="0" />
    <path
       d="m 1042.194,256.89361 -1.3416,-0.2822 1.1511,-4.88496 1.3406,0.28327 -1.1501,4.88389"
       style="fill:#382d88;fill-opacity:1;fill-rule:nonzero;stroke:none;stroke-width:0.10952782"
       id="path98"
       inkscape:connector-curvature="0" />
    <path
       d="m 1044.2667,255.99053 -1.3405,-0.2822 1.1512,-4.88391 1.3416,0.28222 -1.1523,4.88389"
       style="fill:#382d88;fill-opacity:1;fill-rule:nonzero;stroke:none;stroke-width:0.10952782"
       id="path100"
       inkscape:connector-curvature="0" />
    <path
       d="m 1045.74,257.64015 -1.3405,-0.28221 1.1502,-4.88389 1.3417,0.28221 -1.1514,4.88389"
       style="fill:#382d88;fill-opacity:1;fill-rule:nonzero;stroke:none;stroke-width:0.10952782"
       id="path102"
       inkscape:connector-curvature="0" />
    <path
       d="m 1047.8139,256.73814 -1.3416,-0.28327 1.1512,-4.8839 1.3405,0.28221 -1.1501,4.88496"
       style="fill:#382d88;fill-opacity:1;fill-rule:nonzero;stroke:none;stroke-width:0.10952782"
       id="path104"
       inkscape:connector-curvature="0" />
    <path
       d="m 1049.2874,258.38669 -1.3417,-0.28222 1.1512,-4.88389 1.3405,0.28221 -1.15,4.8839"
       style="fill:#382d88;fill-opacity:1;fill-rule:nonzero;stroke:none;stroke-width:0.10952782"
       id="path106"
       inkscape:connector-curvature="0" />
    <path
       d="m 1051.36,257.48467 -1.3405,-0.28221 1.1502,-4.88496 1.3416,0.28222 -1.1513,4.88495"
       style="fill:#382d88;fill-opacity:1;fill-rule:nonzero;stroke:none;stroke-width:0.10952782"
       id="path108"
       inkscape:connector-curvature="0" />
    <path
       d="m 1052.6959,255.24613 1.3957,0.29392 -0.1791,1.2524 c 0.1656,-0.12034 0.294,-0.29287 0.3425,-0.50053 l 0.2839,-1.20234 c 0.1104,-0.47177 -0.2039,-0.94036 -0.7029,-1.04473 l -0.2366,-0.0501 c -0.5001,-0.10543 -0.9935,0.19276 -1.105,0.66454 l -0.2839,1.20233 c -0.05,0.20875 -0.011,0.41427 0.084,0.58999 l 0.401,-1.20554"
       style="fill:#382d88;fill-opacity:1;fill-rule:nonzero;stroke:none;stroke-width:0.10952782"
       id="path110"
       inkscape:connector-curvature="0" />
    <path
       d="m 1051.7396,260.04483 0.3244,-0.73589 0.7762,0.16295 -0.037,0.79551 z m 2.1685,-4.25877 -1.1558,-0.24387 -1.5725,4.99465 1.9104,0.40255 0.8179,-5.15333"
       style="fill:#382d88;fill-opacity:1;fill-rule:nonzero;stroke:none;stroke-width:0.10952782"
       id="path112"
       inkscape:connector-curvature="0" />
    <path
       d="m 1042.0035,235.5721 -8.6658,8.13734 12.8586,2.70713 z"
       style="fill:#382d88;fill-opacity:1;fill-rule:nonzero;stroke:none;stroke-width:0.10952782"
       id="path114"
       inkscape:connector-curvature="0" />
    <path
       d="m 1034.658,223.64885 -7.6803,4.61658 -1.2729,-1.89242 7.6802,-4.61659 1.273,1.89243"
       style="fill:#f2d264;fill-opacity:1;fill-rule:nonzero;stroke:none;stroke-width:0.10952782"
       id="path116"
       inkscape:connector-curvature="0" />
    <path
       d="m 1028.7406,220.77879 4.8833,7.26088 -2.0018,1.20339 -4.8832,-7.26193 2.0017,-1.20234"
       style="fill:#f2d264;fill-opacity:1;fill-rule:nonzero;stroke:none;stroke-width:0.10952782"
       id="path118"
       inkscape:connector-curvature="0" />
    <path
       d="m 1031.6289,218.87039 c -3.5822,-0.75399 -7.1452,1.38657 -7.9427,4.77313 -0.7976,3.38549 1.4677,6.75396 5.0477,7.50795 3.5822,0.75398 7.1451,-1.38764 7.9427,-4.77314 0.7975,-3.38656 -1.4678,-6.75396 -5.0477,-7.50794 z m -3.0618,12.99246 c -3.9966,-0.8413 -6.5244,-4.59954 -5.6334,-8.37801 0.8899,-3.77954 4.8652,-6.16823 8.8619,-5.32692 3.9967,0.84239 6.5234,4.60063 5.6335,8.37909 -0.89,3.77846 -4.8652,6.16823 -8.862,5.32584"
       style="fill:#f3d0ea;fill-opacity:1;fill-rule:nonzero;stroke:none;stroke-width:0.10952782"
       id="path120"
       inkscape:connector-curvature="0" />
    <path
       d="m 1032.0806,216.95027 c -4.7018,-0.99041 -9.3789,1.82001 -10.4254,6.26514 -1.0466,4.44407 1.9252,8.86577 6.627,9.85618 4.7018,0.98934 9.3778,-1.82108 10.4254,-6.26515 1.0476,-4.44512 -1.9252,-8.86683 -6.627,-9.85617 z m -3.9651,16.8327 c -5.1176,-1.07773 -8.3528,-5.88814 -7.2139,-10.72624 1.1399,-4.8381 6.2305,-7.89665 11.3469,-6.81892 5.1174,1.07773 8.3526,5.88921 7.2127,10.72624 -1.14,4.83812 -6.2293,7.89667 -11.3457,6.81892"
       style="fill:#f3d0ea;fill-opacity:1;fill-rule:nonzero;stroke:none;stroke-width:0.10952782"
       id="path122"
       inkscape:connector-curvature="0" />
    <path
       d="m 1061.9251,229.39003 -7.6802,4.61658 -1.273,-1.89242 7.6803,-4.61659 1.2729,1.89243"
       style="fill:#f2d264;fill-opacity:1;fill-rule:nonzero;stroke:none;stroke-width:0.10952782"
       id="path124"
       inkscape:connector-curvature="0" />
    <path
       d="m 1056.0077,226.51998 4.8832,7.26087 -2.0016,1.20339 -4.8832,-7.26087 2.0016,-1.20339"
       style="fill:#f2d264;fill-opacity:1;fill-rule:nonzero;stroke:none;stroke-width:0.10952782"
       id="path126"
       inkscape:connector-curvature="0" />
    <path
       d="m 1058.8949,224.61157 c -3.581,-0.75399 -7.1429,1.38764 -7.9405,4.77314 -0.7975,3.38549 1.4667,6.75395 5.0466,7.50794 3.5821,0.754 7.144,-1.38764 7.9428,-4.77312 0.7975,-3.38552 -1.4667,-6.75398 -5.0489,-7.50796 z m -3.0606,12.99248 c -3.9967,-0.84133 -6.5233,-4.59955 -5.6334,-8.37803 0.8898,-3.77845 4.8652,-6.16716 8.8618,-5.32585 3.9967,0.84133 6.5234,4.59955 5.6334,8.37801 -0.8898,3.77848 -4.8651,6.16825 -8.8618,5.32587"
       style="fill:#f3d0ea;fill-opacity:1;fill-rule:nonzero;stroke:none;stroke-width:0.10952782"
       id="path128"
       inkscape:connector-curvature="0" />
    <path
       d="m 1059.3466,222.69145 c -4.7008,-0.98935 -9.3778,1.82109 -10.4242,6.26514 -1.0466,4.44513 1.925,8.86578 6.6269,9.85619 4.7019,0.99041 9.3789,-1.82108 10.4254,-6.26514 1.0477,-4.44515 -1.9251,-8.86578 -6.6281,-9.85619 z m -3.9651,16.83378 c -5.1164,-1.07774 -8.3516,-5.88921 -7.2127,-10.72731 1.1399,-4.83705 6.2303,-7.8956 11.3467,-6.81786 5.1164,1.07667 8.3528,5.88921 7.2128,10.72624 -1.14,4.83705 -6.2294,7.89559 -11.3468,6.81893"
       style="fill:#f3d0ea;fill-opacity:1;fill-rule:nonzero;stroke:none;stroke-width:0.10952782"
       id="path130"
       inkscape:connector-curvature="0" />
    <path
       d="m 1079.7525,251.83933 -3.8311,-0.80724 3.0358,-12.88704 3.8322,0.80724 -3.0369,12.88704"
       style="fill:#382d88;fill-opacity:1;fill-rule:nonzero;stroke:none;stroke-width:0.10952782"
       id="path132"
       inkscape:connector-curvature="0" />
    <path
       d="m 1076.5286,256.9884 -3.8312,-0.80617 5.6515,-23.99243 3.8322,0.80724 -5.6525,23.99136"
       style="fill:#6b50ad;fill-opacity:1;fill-rule:nonzero;stroke:none;stroke-width:0.10952782"
       id="path134"
       inkscape:connector-curvature="0" />
    <path
       d="m 1004.0361,222.36984 3.8312,0.80617 -3.0358,12.88811 -3.8322,-0.80723 3.0368,-12.88705"
       style="fill:#382d88;fill-opacity:1;fill-rule:nonzero;stroke:none;stroke-width:0.10952782"
       id="path136"
       inkscape:connector-curvature="0" />
    <path
       d="m 1007.2601,217.22077 3.8311,0.80618 -5.6514,23.9924 -3.8322,-0.80723 5.6525,-23.99135"
       style="fill:#6b50ad;fill-opacity:1;fill-rule:nonzero;stroke:none;stroke-width:0.10952782"
       id="path138"
       inkscape:connector-curvature="0" />
    <path
       d="m 1056.6667,185.4499 c -0.057,-0.0107 -0.116,-0.0245 -0.1745,-0.0361 -3.1631,-0.63366 -6.4163,-0.55271 -9.1638,0.22896 -0.3064,0.0873 -1.8306,0.5623 -1.5636,1.28115 0.1859,0.50372 1.0893,0.92011 2.547,1.17784 3.4446,0.60383 6.8861,0.78168 10.226,0.53248 1.0003,-0.0767 2.1347,-0.19915 3.1135,-0.52715 -0.1678,-0.28435 -0.4055,-0.57402 -0.7355,-0.85836 -0.917,-0.79339 -2.3453,-1.39723 -4.2491,-1.79872 z m -0.7885,6.21294 c -0.8256,-0.17357 -1.6694,-0.24918 -2.4253,-0.29923 -3.0144,-0.20235 -5.2549,0.0299 -5.9938,0.61767 -0.1736,0.13951 -0.2569,0.29287 -0.2558,0.47284 0.1082,0.32374 1.826,0.48882 2.7464,0.57827 0.3199,0.0299 0.6206,0.0586 0.8854,0.0927 3.2261,0.40893 5.8362,0.3216 7.7883,-0.25774 -0.4314,-0.37165 -1.0375,-0.70073 -1.7506,-0.93821 -0.3244,-0.10756 -0.6578,-0.1949 -0.9946,-0.26626 z m -3.1743,3.91267 c -1.0634,-0.22471 -2.3364,-0.0884 -3.3591,0.1097 -0.5058,0.0969 -0.8291,0.34503 -0.8313,0.42278 0.1655,0.13845 0.3897,0.17997 0.5924,0.21299 1.763,0.28222 3.5709,0.36209 5.2787,0.23749 -0.1183,-0.16826 -0.2613,-0.31842 -0.4293,-0.44728 -0.3491,-0.26732 -0.7795,-0.43664 -1.2514,-0.53568 z m -2.1955,6.04469 -1.4486,-0.30457 c 2.1155,-0.28115 4.6027,-1.40254 5.2876,-2.39615 0.3954,-0.57082 0.5001,-1.17252 0.312,-1.78701 -1.8226,0.1491 -3.7635,0.0713 -5.6504,-0.23215 -0.2995,-0.0478 -0.6341,-0.11609 -0.8854,-0.30564 -0.3255,-0.24601 -0.3154,-0.50798 -0.2816,-0.64218 0.1116,-0.42598 0.7638,-0.73588 1.3237,-0.84451 2.3778,-0.45793 4.1363,-0.2673 5.2346,0.57081 0.2962,0.22684 0.534,0.49948 0.7085,0.81364 0.01,-6.3e-4 0.02,-0.003 0.03,-0.003 1.4555,-0.16082 2.5099,-0.459 3.2252,-0.90948 0.8335,-0.52715 1.1602,-1.31309 0.8324,-2.00318 -0.034,-0.0703 -0.075,-0.1427 -0.1217,-0.21299 -2.0794,0.66452 -4.8674,0.78168 -8.3087,0.34612 -0.258,-0.033 -0.552,-0.0608 -0.8606,-0.0905 -1.541,-0.1491 -3.135,-0.30032 -3.3784,-1.11607 -0.013,-0.41534 0.1431,-0.71565 0.4529,-0.96273 1.2087,-0.96272 4.5881,-0.89243 6.4963,-0.7657 1.1141,0.0725 2.4163,0.20235 3.6205,0.60489 0.9112,0.30458 1.6773,0.74972 2.1921,1.25879 0.1667,-0.0639 0.3266,-0.13207 0.4798,-0.20448 1.247,-0.58786 2.0795,-1.58998 2.2259,-2.67837 0.041,-0.30563 0.037,-0.68157 -0.091,-1.08945 -1.0498,0.34824 -2.2338,0.47603 -3.2735,0.55485 -3.4075,0.25665 -6.9153,0.0735 -10.4254,-0.54099 -1.7865,-0.3195 -2.8161,-0.85092 -3.0921,-1.59958 -0.3019,-0.81257 0.4359,-1.56015 1.9758,-1.99892 2.8612,-0.8147 6.2474,-0.90096 9.5321,-0.24175 2.0997,0.41427 3.7297,1.1001 4.7739,2.00106 0.3616,0.31414 0.6522,0.65709 0.8663,1.02235 1.0295,-0.49946 1.6909,-1.33438 1.8317,-2.328 0.1644,-1.16933 -0.3988,-2.35142 -1.5433,-3.24279 -1.4667,-1.14058 -3.7917,-1.88498 -6.3792,-2.03832 l -0.428,-0.0245 0.1025,-0.35356 c 0.5587,-1.9233 0.6229,-4.07133 0.6837,-6.14799 0.05,-1.6688 0.097,-3.24493 0.3865,-4.66877 l 0.678,0.12672 c -0.2815,1.38125 -0.3278,2.93715 -0.3762,4.58251 -0.06,1.98615 -0.1205,4.03726 -0.6094,5.92648 2.5774,0.21939 4.8867,0.99787 6.3905,2.16827 1.3021,1.01384 1.9668,2.42171 1.7775,3.76888 -0.1701,1.20553 -0.9834,2.21191 -2.2496,2.79231 0.1656,0.45794 0.2186,0.93823 0.1521,1.42491 -0.1713,1.26944 -1.1276,2.43024 -2.5559,3.10542 -0.1364,0.0639 -0.2771,0.12567 -0.4213,0.18424 0.051,0.0777 0.095,0.15656 0.1328,0.23643 0.4484,0.94674 0.038,1.99999 -1.0464,2.68582 -0.7908,0.4984 -1.9184,0.82748 -3.4436,1.00425 0.2084,0.74333 0.071,1.49095 -0.3987,2.17251 -0.7863,1.14058 -2.4445,2.03088 -4.4349,2.38231"
       style="fill:#f37036;fill-opacity:1;fill-rule:nonzero;stroke:none;stroke-width:0.10952782"
       id="path140"
       inkscape:connector-curvature="0" />
    <path
       d="m 1059.2688,169.54689 c 0.2231,-0.94676 -0.4989,-1.90415 -1.613,-2.13842 -1.1129,-0.23538 -2.1977,0.3429 -2.4196,1.28964 -0.2231,0.94675 0.4978,1.90414 1.6119,2.13844 1.1141,0.23429 2.1977,-0.34291 2.4207,-1.28966"
       style="fill:#f37036;fill-opacity:1;fill-rule:nonzero;stroke:none;stroke-width:0.10952782"
       id="path142"
       inkscape:connector-curvature="0" />
    <path
       d="m 1056.5395,207.44978 c 0.9056,-3.84449 -1.6571,-7.65598 -5.7236,-8.5122 -4.0665,-0.85623 -8.0981,1.56655 -9.0038,5.41105 -0.9056,3.84449 13.8217,6.94565 14.7274,3.10115"
       style="fill:#6b50ad;fill-opacity:1;fill-rule:nonzero;stroke:none;stroke-width:0.10952782"
       id="path144"
       inkscape:connector-curvature="0" />
    <path
       d="m 1106.6918,188.08993 c -0.918,2.39934 -0.8707,5.03617 -0.7232,7.07663 0.1645,2.28327 0.614,5.12245 2.6348,6.81785 1.0342,0.86688 2.6765,1.20448 4.0868,0.84026 1.0274,-0.26518 1.7472,-0.86367 2.0277,-1.68689 0.258,-0.75292 0.1408,-1.59424 -0.01,-2.31734 -0.9034,-4.39614 -3.9415,-8.4366 -8.017,-10.73051 z m -11.9145,5.2513 c -0.784,2.98507 -0.4551,6.22254 0.936,9.00635 0.7412,1.48135 1.6604,2.5282 2.7351,3.11287 1.2797,0.69648 2.86,0.67092 3.8401,-0.0608 1.1186,-0.836 1.3225,-2.36421 1.345,-3.20127 0.092,-3.46536 -2.1471,-6.83596 -5.4431,-8.1959 -1.0825,-0.44622 -2.2451,-0.65601 -3.4131,-0.66133 z m -7.5654,12.79226 c -0.1362,-0.008 -0.2669,-0.0725 -0.3503,-0.18636 -2.2799,-3.11819 -1.9634,-7.64001 0.7344,-10.52071 1.6334,-1.74014 4.0148,-2.7625 6.4716,-2.92864 0.024,-0.0725 0.046,-0.14484 0.071,-0.21724 1.0757,-3.20446 3.8986,-6.46642 7.7804,-6.53033 1.3258,-0.0202 2.7339,0.34186 4.3177,1.10756 1.1681,-2.32479 3.1575,-3.99998 5.4487,-4.54951 2.6281,-0.63045 5.6943,0.25667 8.0024,2.31417 2.2979,2.04897 3.554,4.87856 4.2974,6.82957 1.1715,3.0724 1.9376,6.27792 2.2755,9.52923 0.026,0.23962 -0.1599,0.45154 -0.4123,0.47604 -0.2557,0.0255 -0.4788,-0.1523 -0.5035,-0.39084 -0.3312,-3.1789 -1.0792,-6.3152 -2.2259,-9.31837 -0.7119,-1.86688 -1.9082,-4.57081 -4.0643,-6.492 -2.0817,-1.85515 -4.8179,-2.66025 -7.1429,-2.10435 -2.0062,0.48137 -3.8186,2.03407 -4.8652,4.12459 4.4124,2.42809 7.589,6.62935 8.5656,11.37693 0.1724,0.8328 0.3042,1.81043 -0.017,2.75186 -0.3796,1.11288 -1.3247,1.91479 -2.6618,2.25983 -1.6965,0.43876 -3.6824,0.0255 -4.9407,-1.0298 -2.272,-1.90522 -2.7654,-4.96058 -2.9445,-7.40892 -0.1544,-2.16399 -0.2005,-4.97548 0.8279,-7.56333 -1.4701,-0.71991 -2.7553,-1.06069 -3.9415,-1.04259 -3.3782,0.0565 -5.9342,3.0607 -6.8951,5.8562 1.1996,0.0266 2.4016,0.26624 3.5191,0.72844 3.6306,1.49839 6.0965,5.20445 5.9951,9.01593 -0.045,1.70818 -0.6467,3.07986 -1.6931,3.86153 -1.2684,0.94676 -3.2691,1.00213 -4.872,0.13312 -1.2402,-0.67518 -2.2856,-1.85196 -3.1079,-3.49519 -1.4418,-2.88389 -1.8125,-6.22574 -1.0612,-9.33223 -2.1087,0.21087 -4.1295,1.11821 -5.5331,2.61554 -2.3869,2.54737 -2.6799,6.69646 -0.6681,9.44724 0.1453,0.19808 0.092,0.46858 -0.117,0.60597 -0.088,0.0575 -0.1905,0.082 -0.2895,0.0767"
       style="fill:#6b50ad;fill-opacity:1;fill-rule:nonzero;stroke:none;stroke-width:0.10952782"
       id="path146"
       inkscape:connector-curvature="0" />
    <path
       d="m 1007.6927,175.98455 c -0.041,-0.003 -0.084,-0.003 -0.1273,-6.1e-4 -0.454,0.0138 -0.8989,0.23215 -1.2752,0.44408 -2.298,1.29712 -4.0057,3.56867 -4.5801,6.04576 1.4835,-0.049 2.9107,-0.56442 4.0101,-1.0213 1.2797,-0.5314 2.8218,-1.31415 3.3907,-2.66132 0.2771,-0.65495 0.151,-1.541 -0.3041,-2.15442 -0.1758,-0.23641 -0.5452,-0.61872 -1.1141,-0.65175 z m 3.9865,5.44301 c -0.4596,-0.0266 -0.9169,0.082 -1.2098,0.17357 -1.9915,0.62514 -3.4763,2.41746 -3.6103,4.35675 -0.042,0.58253 0.047,1.17038 0.2445,1.72629 1.8192,-0.21086 3.5574,-1.00638 4.8504,-2.23427 0.6974,-0.66134 1.1119,-1.32482 1.2347,-1.97125 0.1407,-0.74547 -0.1566,-1.49732 -0.721,-1.82959 -0.2421,-0.14271 -0.5158,-0.20554 -0.7885,-0.2215 z m -0.4506,10.32688 c -0.5655,-0.033 -1.1276,-0.14698 -1.6604,-0.34824 -1.3585,-0.51224 -2.4522,-1.54951 -3.074,-2.80297 -0.01,0 -0.011,6.4e-4 -0.018,6.4e-4 -2.1741,0.0852 -4.7436,-0.78701 -5.5941,-2.90309 -0.2715,-0.67624 -0.3537,-1.46539 -0.2467,-2.40361 -1.5792,-0.19169 -2.9388,-0.918 -3.724,-2.01384 -0.9339,-1.30882 -1.033,-3.16717 -0.258,-4.85194 0.7637,-1.65708 2.1999,-2.90627 3.2149,-3.70072 1.5894,-1.24387 3.3377,-2.29925 5.1998,-3.1363 0.2298,-0.10225 0.5046,-0.0107 0.6139,0.20659 0.1092,0.21726 0.011,0.47711 -0.2185,0.58041 -1.7934,0.8051 -3.4785,1.82107 -5.0072,3.01915 -0.9417,0.73908 -2.2743,1.89243 -2.9581,3.37912 -0.6499,1.41319 -0.5835,2.95205 0.1769,4.01701 0.6285,0.8786 1.7843,1.47923 3.1011,1.63898 0.5926,-2.79552 2.4423,-5.28966 5.0421,-6.75611 0.4484,-0.25239 1.0487,-0.54631 1.7156,-0.56761 0.784,-0.017 1.5252,0.34824 2.0264,1.02342 0.6343,0.85409 0.7976,2.05005 0.4056,2.97763 -0.6928,1.64002 -2.4353,2.53673 -3.875,3.13523 -1.2212,0.50691 -2.8275,1.08307 -4.5351,1.09903 -0.097,0.81896 -0.036,1.48881 0.187,2.04472 0.6477,1.61129 2.6843,2.33546 4.409,2.34504 -0.1791,-0.59211 -0.2558,-1.21405 -0.2129,-1.83705 0.1599,-2.28327 1.9036,-4.39187 4.2399,-5.12565 1.0702,-0.33544 2.0559,-0.28752 2.7756,0.13419 0.891,0.52502 1.3485,1.61874 1.1411,2.72203 -0.1554,0.82534 -0.6567,1.6443 -1.488,2.43343 -1.3731,1.30457 -3.1969,2.16825 -5.1187,2.44835 0.5441,0.93288 1.398,1.69966 2.4196,2.08518 1.9038,0.71566 4.3099,0.0639 5.4814,-1.48349 0.1487,-0.19701 0.4371,-0.23962 0.6421,-0.10117 0.2073,0.13951 0.2558,0.41107 0.107,0.60703 -1.0993,1.45579 -3.0256,2.24492 -4.9102,2.13417"
       style="fill:#6b50ad;fill-opacity:1;fill-rule:nonzero;stroke:none;stroke-width:0.10952782"
       id="path148"
       inkscape:connector-curvature="0" />
    <path
       d="m 823.82023,445.52631 c -0.9068,-1.61767 -1.8429,-3.19168 -2.8003,-4.71883 l 2.8003,4.71883"
       style="fill:#f2d264;fill-opacity:1;fill-rule:nonzero;stroke:none;stroke-width:0.10952782"
       id="path150"
       inkscape:connector-curvature="0" />
    <path
       d="m 823.53863,455.51134 -2.5582,-14.76455 c -4.7661,-7.58462 -10.0277,-13.99993 -14.5493,-18.69959 -3.3198,4.67091 -2.4175,17.41312 -2.4175,17.41312 -1.9014,-13.00845 -1.1174,-17.10961 -1.7223,-21.37157 -7.2105,-6.36843 -16.9442,-8.90305 -24.8554,-12.12453 5.5714,14.93921 6.0378,18.85294 6.0378,18.85294 -2.565,-9.07025 -6.8804,-14.94456 -9.4533,-20.16498 -19.9879,-7.27044 -28.94332,-3.13416 -28.94332,-3.13416 1.32253,6.47494 6.10322,20.5409 7.76142,25.99561 8.7728,4.97761 20.5016,9.41422 20.5016,9.41422 -5.8138,-0.80299 -13.7519,-3.71351 -19.4304,-6.03192 2.583,7.86364 2.2462,6.55907 5.5523,12.58035 8.8226,5.40997 25.6992,10.53348 25.6992,10.53348 -7.0179,-0.48454 -17.2845,-3.80295 -22.9213,-5.79336 6.3374,10.14373 13.8239,17.83484 22.3783,24.40774 8.5488,2.08095 17.468,3.23428 17.468,3.23428 -3.9223,0.39619 -8.9959,0.0703 -13.7226,-0.4707 9.985,7.07877 21.3105,12.9861 33.8581,19.63995 l 11.9552,2.53565 0.7322,-16.36626 c -0.5959,-12.85405 -5.1682,-25.08401 -11.01,-35.52911 l -0.3605,9.84339"
       style="fill:#f2d264;fill-opacity:1;fill-rule:nonzero;stroke:none;stroke-width:0.10952782"
       id="path152"
       inkscape:connector-curvature="0" />
    <path
       d="m 817.36893,472.21628 c 2.7779,3.42811 5.4759,6.93287 7.9834,10.58354 2.5096,3.64428 4.8122,7.46855 6.5807,11.55053 l -0.1848,0.0831 c -1.8823,-4.00212 -4.2804,-7.72308 -6.8838,-11.26299 -2.6009,-3.54739 -5.3879,-6.94566 -8.2546,-10.26727 -5.7169,-6.6613 -11.7412,-13.03614 -17.7858,-19.39394 -6.0401,-6.36311 -12.2536,-12.56542 -18.0448,-19.20757 -2.8972,-3.31839 -5.7551,-6.6794 -8.4968,-10.14265 -2.7532,-3.45472 -5.388,-7.01593 -7.8358,-10.7092 l 0.1589,-0.1278 c 5.7573,6.66236 11.6667,13.12134 17.6359,19.54304 5.9815,6.40571 11.8121,12.97968 17.7338,19.47593 5.9061,6.51009 11.802,13.04679 17.3937,19.8753"
       style="fill:#fef3fa;fill-opacity:1;fill-rule:nonzero;stroke:none;stroke-width:0.10952782"
       id="path154"
       inkscape:connector-curvature="0" />
    <path
       d="m 806.41973,499.3631 c 0.1364,-15.81888 1.2178,-22.48124 0,-27.70167 -9.6233,-6.75928 -20.0837,-11.09366 -30.2263,-13.8061 8.5431,17.7326 6.4321,30.26396 6.4321,30.26396 -0.4574,-12.83167 -7.0415,-25.24162 -10.8027,-31.33637 -25.53023,-5.76569 -47.89163,-1.86368 -47.89163,-1.86368 2.35318,7.86684 4.85509,15.02229 7.50896,21.559 11.40321,4.76141 26.40317,8.35884 26.40317,8.35884 -7.2803,-0.0393 -17.42183,-2.35887 -24.70445,-4.31413 4.06547,9.39292 8.47214,17.43548 13.22809,24.40669 11.51126,5.29284 32.95576,8.89559 32.95576,8.89559 -8.7357,0.55697 -21.8038,-1.88604 -28.9962,-3.43661 8.9609,11.61442 19.0732,19.97965 30.3829,26.76983 10.8061,1.18209 21.9659,1.14482 21.9659,1.14482 -4.8076,1.14269 -11.1192,1.57826 -17.0275,1.68582 13.1345,7.18527 27.7976,12.68471 44.0559,18.91364 l 15.0699,1.18637 -0.9023,-20.559 c -4.1724,-30.82732 -16.567,-50.77929 -31.8925,-63.61203 -3.59,6.38122 -5.5568,23.44503 -5.5568,23.44503"
       style="fill:#9d8acd;fill-opacity:1;fill-rule:nonzero;stroke:none;stroke-width:0.10952782"
       id="path156"
       inkscape:connector-curvature="0" />
    <path
       d="m 841.42123,556.5822 c -2.7711,-4.68475 -6.1494,-8.93286 -9.7608,-12.92432 -3.6092,-3.99679 -7.4335,-7.77845 -11.3468,-11.45148 -7.8087,-7.36952 -15.9665,-14.3322 -24.1469,-21.2704 -8.1748,-6.94459 -16.5477,-13.65915 -24.4465,-20.99564 -3.9516,-3.66132 -7.8571,-7.38547 -11.633,-11.2566 -3.7872,-3.85727 -7.4403,-7.8679 -10.8759,-12.07342 l 0.1812,-0.18744 c 7.8606,7.36632 15.8832,14.45148 23.9791,21.48234 8.1072,7.00742 16.0476,14.25125 24.0906,21.38115 8.026,7.15012 16.043,14.33645 23.7142,21.93705 3.8153,3.82105 7.5405,7.74968 11.0461,11.89343 3.5079,4.1331 6.7791,8.52711 9.4184,13.33114 l -0.2197,0.13419"
       style="fill:#6758b1;fill-opacity:1;fill-rule:nonzero;stroke:none;stroke-width:0.10952782"
       id="path158"
       inkscape:connector-curvature="0" />
    <path
       d="m 1197.0353,365.45004 c -16.4971,0 -29.8694,-12.64317 -29.8694,-28.23841 0,-15.59524 13.3723,-28.23841 29.8694,-28.23841 16.4958,0 29.8693,12.64317 29.8693,28.23841 0,15.59524 -13.3735,28.23841 -29.8693,28.23841 z m 55.2292,-39.57381 h -7.3524 c -1.1917,-4.51329 -3.0775,-8.76673 -5.5467,-12.65383 l 5.2009,-4.91689 c 1.7258,-1.63045 1.7258,-4.27581 0,-5.90734 l -10.7069,-10.12241 c -1.7259,-1.6315 -4.5241,-1.6315 -6.2497,0 l -5.1997,4.91692 c -4.1105,-2.3344 -8.6108,-4.11607 -13.3858,-5.24385 v -6.95098 c 0,-2.30778 -1.9782,-4.17784 -4.4191,-4.17784 h -15.1408 c -2.4411,0 -4.4191,1.87006 -4.4191,4.17784 v 6.95098 c -4.7751,1.12778 -9.2742,2.90945 -13.3847,5.24385 l -5.2009,-4.91692 c -1.7257,-1.6315 -4.5238,-1.6315 -6.2495,0 l -10.707,10.12241 c -1.7247,1.63153 -1.7247,4.27689 0,5.90734 l 5.202,4.91689 c -2.4704,3.8871 -4.355,8.14054 -5.5467,12.65383 h -7.3536 c -2.4399,0 -4.418,1.87113 -4.418,4.17781 v 14.31518 c 0,2.30776 1.9781,4.17782 4.418,4.17782 h 7.3536 c 1.1917,4.51435 3.0763,8.7678 5.5467,12.65382 l -5.202,4.91691 c -1.7247,1.63152 -1.7247,4.27687 0,5.90732 l 10.707,10.12242 c 1.7257,1.63258 4.5238,1.63258 6.2495,0 l 5.2009,-4.91584 c 4.1105,2.33331 8.6096,4.11606 13.3847,5.24279 v 6.95204 c 0,2.3067 1.978,4.17675 4.4191,4.17675 h 15.1408 c 2.4409,0 4.4191,-1.87005 4.4191,-4.17675 v -6.95204 c 4.775,-1.12673 9.2753,-2.90948 13.3858,-5.24279 l 5.1997,4.91584 c 1.7256,1.63258 4.5238,1.63258 6.2497,0 l 10.7069,-10.12242 c 1.7258,-1.63045 1.7258,-4.2758 0,-5.90732 l -5.2009,-4.91691 c 2.4692,-3.88602 4.355,-8.13947 5.5467,-12.65382 h 7.3524 c 2.4411,0 4.4191,-1.87006 4.4191,-4.17782 v -14.31518 c 0,-2.30668 -1.978,-4.17781 -4.4191,-4.17781"
       style="fill:#6b50ad;fill-opacity:1;fill-rule:nonzero;stroke:none;stroke-width:0.10952782"
       id="path160"
       inkscape:connector-curvature="0" />
    <path
       d="m 1275.6173,485.44092 c 1.8642,-1.54207 3.6621,-3.11181 5.39,-4.70179 l -5.39,4.70179"
       style="fill:#9d8acd;fill-opacity:1;fill-rule:nonzero;stroke:none;stroke-width:0.10952782"
       id="path162"
       inkscape:connector-curvature="0" />
    <path
       d="m 1262.1955,487.27371 18.8794,-6.59848 c 8.5768,-7.90412 15.4293,-16.19799 20.2347,-23.14685 -7.3129,-3.31202 -24.0307,0.67625 -24.0307,0.67625 16.7471,-5.35354 22.4762,-5.23214 27.9688,-6.96269 6.1596,-10.83274 6.3792,-24.11915 8.1084,-35.17448 -18.1328,10.57717 -23.2053,12.05106 -23.2053,12.05106 11.2748,-5.35461 17.7114,-12.29067 23.8473,-16.80715 3.2071,-27.73895 -5.2245,-38.53762 -5.2245,-38.53762 -8.2142,3.15653 -25.439,12.509 -32.1819,15.87958 -3.794,12.56863 -5.9038,28.88378 -5.9038,28.88378 -0.8179,-7.77952 0.4877,-18.80076 1.7369,-26.73788 -9.6594,5.11178 -8.0259,4.38443 -14.9898,10.03402 -4.3537,12.72944 -5.7088,35.9274 -5.7088,35.9274 -1.6346,-9.28324 -0.5407,-23.44077 0.2826,-31.2501 -11.4798,10.52284 -19.3143,22.00841 -25.3082,34.64412 0,11.63679 1.3598,23.5526 1.3598,23.5526 -1.8025,-5.04044 -3.0179,-11.74542 -3.8323,-18.04676 -6.2057,14.61654 -10.4109,30.7272 -15.214,48.60358 l 0.5001,16.19054 22.0876,-2.64961 c 16.9668,-3.6134 31.8057,-12.28853 43.8532,-22.22886 l -13.2595,1.69755"
       style="fill:#9d8acd;fill-opacity:1;fill-rule:nonzero;stroke:none;stroke-width:0.10952782"
       id="path164"
       inkscape:connector-curvature="0" />
    <path
       d="m 1237.8897,482.88928 c -3.6756,4.38764 -7.4763,8.68792 -11.5339,12.77203 -4.0484,4.08518 -8.4055,7.93819 -13.2797,11.15117 l -0.1713,-0.22364 c 4.7312,-3.3429 8.9172,-7.29921 12.7989,-11.48343 3.8897,-4.18315 7.5203,-8.57717 11.0225,-13.05638 7.0335,-8.94565 13.5863,-18.22781 20.1096,-27.53447 6.53,-9.29922 12.791,-18.79118 19.7772,-27.8284 3.4876,-4.52181 7.045,-8.99889 10.7792,-13.34817 3.715,-4.35994 7.6138,-8.59101 11.7478,-12.60591 l 0.2231,0.17891 c -7.0224,8.99889 -13.7248,18.14795 -20.3586,27.37047 -6.6067,9.23424 -13.4871,18.30768 -20.2358,27.48228 -6.7688,9.15865 -13.5806,18.30877 -20.879,27.12554"
       style="fill:#6758b1;fill-opacity:1;fill-rule:nonzero;stroke:none;stroke-width:0.10952782"
       id="path166"
       inkscape:connector-curvature="0" />
    <path
       d="m 1223.7098,435.19623 c 2.6529,-7.88281 5.4218,-15.72197 7.9597,-23.61649 2.5593,-7.8924 5.1839,-15.74753 8.071,-23.56219 l -0.1994,-0.0799 c -1.9949,3.69327 -3.7758,7.48984 -5.3945,11.3418 -1.6356,3.84661 -3.117,7.74969 -4.5374,11.66553 -2.8523,7.83489 -5.086,15.84125 -7.5541,23.76773 -2.4625,7.9286 -4.952,15.84762 -7.8583,23.62607 -1.4417,3.89241 -2.993,7.7497 -4.7772,11.51112 -1.7776,3.76143 -3.8244,7.42382 -6.3971,10.76567 l 0.1723,0.12139 c 2.7046,-3.27793 4.8955,-6.90305 6.8139,-10.62827 1.9263,-3.72629 3.6204,-7.55374 5.2042,-11.41634 3.1249,-7.74225 5.8261,-15.6208 8.4969,-23.49616 z m 18.6914,17.63569 c -6.2215,9.52071 -14.7116,18.71983 -25.876,24.78156 l -15.0079,6.4366 -4.0957,-11.34711 c -0.7344,-13.63466 -1.4847,-25.89765 -0.4753,-37.51633 2.0332,4.28752 4.4427,8.77845 6.8826,11.97226 0,0 -3.7161,-8.14693 -6.4073,-16.37692 1.3191,-10.17354 4.2062,-19.91577 9.8938,-29.72934 1.2221,5.69326 3.7195,15.93175 7.0212,22.15962 0,0 -4.4033,-16.68574 -4.266,-26.58771 3.6194,-5.43449 2.6326,-4.58252 8.2819,-10.19379 0.9506,5.87219 2.5751,13.93711 4.9518,19.26934 0,0 -2.2798,-11.97438 -2.5019,-21.64738 3.9901,-3.77634 14.0099,-13.94881 19.0903,-17.8785 0,0 8.4575,5.8956 12.6005,26.17559 -3.2937,4.4611 -6.244,10.69643 -12.9791,16.81247 0,0 3.2465,-2.08945 13.6257,-13.31729 1.3316,8.17569 4.248,17.61865 2.396,26.55046 -3.4852,2.35995 -7.5654,3.45686 -18.1719,10.70282 0,0 10.9018,-6.27366 16.8394,-5.44299 -1.7912,5.90731 -4.7211,13.18949 -8.96,20.55046 l -11.8267,8.56759 z m 2.8083,-4.56653 c -0.8537,1.48028 -1.7618,2.96271 -2.7238,4.43873 l 2.7238,-4.43873"
       style="fill:#f57b43;fill-opacity:1;fill-rule:nonzero;stroke:none;stroke-width:0.10952782"
       id="path168"
       inkscape:connector-curvature="0" />
    <path
       d="m 1256.9923,531.71224 c 16.06,4.92757 22.4797,8.04043 28.2066,8.38655 10.1225,-7.69112 18.0572,-16.96158 24.2348,-26.40242 -20.9309,3.27475 -32.9795,-2.65708 -32.9795,-2.65708 13.2191,3.42171 28.0716,0.51864 35.5421,-1.44089 14.4683,-24.0872 18.0235,-47.89432 18.0235,-47.89432 -8.7999,-0.003 -16.9285,0.3621 -24.478,1.06816 -8.6885,10.09686 -17.4006,24.18411 -17.4006,24.18411 2.4906,-7.35459 8.266,-16.91471 12.7099,-23.68997 -10.9323,1.26943 -20.604,3.29178 -29.3037,5.99252 -9.2663,10.04573 -20.1558,30.65265 -20.1558,30.65265 2.3745,-9.0074 9.2629,-21.48977 13.2641,-28.2991 -14.8447,5.54949 -26.766,13.24913 -37.4876,22.63672 -4.8426,10.57504 -8.5623,21.87956 -8.5623,21.87956 0.4552,-5.21191 2.137,-11.7305 4.017,-17.74113 -11.7377,11.11496 -22.2769,24.2853 -34.0924,38.85071 l -6.2823,14.88917 21.2361,5.31201 c 32.7948,5.11499 57.283,-1.38445 75.5079,-13.00526 -5.2876,-5.56548 -21.9998,-12.72199 -21.9998,-12.72199"
       style="fill:#f2d264;fill-opacity:1;fill-rule:nonzero;stroke:none;stroke-width:0.10952782"
       id="path170"
       inkscape:connector-curvature="0" />
    <path
       d="m 1186.9478,549.79842 c 5.7033,-1.38445 11.1666,-3.51544 16.4452,-5.96271 5.2865,-2.44087 10.4232,-5.16397 15.4798,-8.01059 10.1336,-5.66984 19.9712,-11.81678 29.7893,-17.99353 9.8217,-6.16822 19.4799,-12.60484 29.608,-18.37582 5.0601,-2.88925 10.1663,-5.71458 15.3795,-8.36207 5.2021,-2.66451 10.5156,-5.14586 15.9541,-7.34819 l 0.1297,0.2396 c -10.1449,5.72202 -20.0624,11.69538 -29.946,17.75604 -9.8656,6.08198 -19.9136,11.9222 -29.8828,17.90301 -9.9827,5.95417 -19.9991,11.89023 -30.321,17.35135 -5.1749,2.70285 -10.431,5.28219 -15.829,7.57503 -5.3902,2.29711 -10.9649,4.2758 -16.7449,5.49092 l -0.062,-0.26304"
       style="fill:#faeba0;fill-opacity:1;fill-rule:nonzero;stroke:none;stroke-width:0.10952782"
       id="path172"
       inkscape:connector-curvature="0" />
    <path
       d="m 841.64093,392.18474 c -26.3187,0 -47.654,-20.1703 -47.654,-45.05195 0,-24.88168 21.3353,-45.05197 47.654,-45.05197 26.3186,0 47.6527,20.17029 47.6527,45.05197 0,24.88165 -21.3341,45.05195 -47.6527,45.05195 z m 88.113,-63.13601 h -11.731 c -1.9015,-7.2023 -4.9092,-13.98927 -8.8484,-20.18838 l 8.2975,-7.84449 c 2.7531,-2.60275 2.7531,-6.82318 0,-9.42487 l -17.0816,-16.14901 c -2.7531,-2.60381 -7.2161,-2.60381 -9.9703,0 l -8.2975,7.84341 c -6.5572,-3.72416 -13.735,-6.56759 -21.3532,-8.36524 v -11.09046 c 0,-3.6805 -3.1575,-6.66451 -7.0506,-6.66451 h -24.157 c -3.8942,0 -7.0494,2.98401 -7.0494,6.66451 v 11.09046 c -7.6183,1.79765 -14.7972,4.64108 -21.3544,8.36524 l -8.2975,-7.84341 c -2.7531,-2.60381 -7.2161,-2.60381 -9.9703,0 l -17.0817,16.14901 c -2.7531,2.60169 -2.7531,6.82212 0,9.42487 l 8.2975,7.84449 c -3.9391,6.19911 -6.9468,12.98608 -8.8483,20.18838 h -11.731 c -3.893,0 -7.04936,2.98401 -7.04936,6.6645 v 22.83907 c 0,3.68051 3.15636,6.66452 7.04936,6.66452 h 11.731 c 1.9015,7.2023 4.9092,13.9882 8.8483,20.18733 l -8.2975,7.84555 c -2.7531,2.60168 -2.7531,6.82211 0,9.42486 l 17.0817,16.14902 c 2.7542,2.60275 7.2172,2.60275 9.9703,0 l 8.2975,-7.84341 c 6.5572,3.72416 13.7361,6.56759 21.3544,8.36523 v 11.08941 c 0,3.68155 3.1552,6.66557 7.0494,6.66557 h 24.157 c 3.8931,0 7.0506,-2.98402 7.0506,-6.66557 V 419.3454 c 7.6182,-1.79764 14.796,-4.64107 21.3532,-8.36523 l 8.2975,7.84341 c 2.7542,2.60275 7.2172,2.60275 9.9703,0 l 17.0816,-16.14902 c 2.7531,-2.60275 2.7531,-6.82318 0,-9.42486 l -8.2975,-7.84555 c 3.9392,-6.19913 6.9469,-12.98503 8.8484,-20.18733 h 11.731 c 3.893,0 7.0493,-2.98401 7.0493,-6.66452 v -22.83907 c 0,-3.68049 -3.1563,-6.6645 -7.0493,-6.6645"
       style="fill:#f57b43;fill-opacity:1;fill-rule:nonzero;stroke:none;stroke-width:0.10952782"
       id="path174"
       inkscape:connector-curvature="0" />
    <path
       d="M 1210.0989,560.0891 H 815.84373 V 344.01565 c 0,-10.17886 8.729,-18.43122 19.4957,-18.43122 h 355.26487 c 10.7656,0 19.4946,8.25236 19.4946,18.43122 V 560.0891"
       style="fill:#382d88;fill-opacity:1;fill-rule:nonzero;stroke:none;stroke-width:0.10952782"
       id="path176"
       inkscape:connector-curvature="0" />
    <path
       d="M 1191.3849,539.8432 H 834.55773 V 342.75687 H 1191.3849 V 539.8432"
       style="fill:#6b50ad;fill-opacity:1;fill-rule:nonzero;stroke:none;stroke-width:0.10952782"
       id="path178"
       inkscape:connector-curvature="0" />
    <path
       d="M 1282.4346,617.92481 H 743.50796 l 72.33577,-57.83571 h 394.25517 l 72.3357,57.83571"
       style="fill:#9d8acd;fill-opacity:1;fill-rule:nonzero;stroke:none;stroke-width:0.10952782"
       id="path180"
       inkscape:connector-curvature="0" />
    <path
       d="M 1263.1901,639.91299 H 762.75363 c -10.6293,0 -19.24567,-8.14586 -19.24567,-18.19481 v -3.79337 h 538.92664 v 3.79337 c 0,10.04895 -8.6152,18.19481 -19.2445,18.19481"
       style="fill:#382d88;fill-opacity:1;fill-rule:nonzero;stroke:none;stroke-width:0.10952782"
       id="path182"
       inkscape:connector-curvature="0" />
    <path
       d="m 867.18343,575.73333 h -21.823 c -0.6781,0 -1.0082,-0.78487 -0.5158,-1.22577 l 6.8116,-6.09475 c 0.1386,-0.12566 0.3234,-0.19383 0.516,-0.19383 h 20.8463 c 0.651,0 0.9936,0.7295 0.5564,1.1853 l -5.8339,6.09582 c -0.143,0.14803 -0.3447,0.23323 -0.5576,0.23323"
       style="fill:#fef3fa;fill-opacity:1;fill-rule:nonzero;stroke:none;stroke-width:0.10952782"
       id="path184"
       inkscape:connector-curvature="0" />
    <path
       d="m 901.73653,575.73333 h -22.0359 c -0.6387,0 -0.9844,-0.70394 -0.5756,-1.16614 l 5.4059,-6.09474 c 0.1431,-0.16081 0.3527,-0.25347 0.5757,-0.25347 h 21.0603 c 0.6049,0 0.9608,0.64111 0.6196,1.11182 l -4.4304,6.09476 c -0.1409,0.19169 -0.3718,0.30777 -0.6196,0.30777"
       style="fill:#fef3fa;fill-opacity:1;fill-rule:nonzero;stroke:none;stroke-width:0.10952782"
       id="path186"
       inkscape:connector-curvature="0" />
    <path
       d="m 936.26933,575.73333 h -22.2127 c -0.5891,0 -0.9484,-0.61236 -0.6387,-1.08413 l 4.0012,-6.09582 c 0.1364,-0.20767 0.3774,-0.3344 0.6365,-0.3344 h 21.2395 c 0.5496,0 0.9135,0.53993 0.6803,1.01065 l -3.0257,6.09475 c -0.1228,0.2492 -0.3886,0.40895 -0.6804,0.40895"
       style="fill:#fef3fa;fill-opacity:1;fill-rule:nonzero;stroke:none;stroke-width:0.10952782"
       id="path188"
       inkscape:connector-curvature="0" />
    <path
       d="m 970.77743,575.73333 h -22.3445 c -0.5306,0 -0.8955,-0.50906 -0.6961,-0.97444 l 2.5964,-6.09582 c 0.1139,-0.26837 0.3898,-0.44409 0.6962,-0.44409 h 21.3679 c 0.4877,0 0.8471,0.43344 0.7276,0.88179 l -1.6187,6.09582 c -0.084,0.31523 -0.3853,0.53674 -0.7288,0.53674"
       style="fill:#fef3fa;fill-opacity:1;fill-rule:nonzero;stroke:none;stroke-width:0.10952782"
       id="path190"
       inkscape:connector-curvature="0" />
    <path
       d="m 1005.2516,575.73333 h -22.4131 c -0.4687,0 -0.8225,-0.40256 -0.7379,-0.83813 l 1.1907,-6.09581 c 0.065,-0.33761 0.3762,-0.58041 0.7389,-0.58041 h 21.4366 c 0.4235,0 0.7649,0.33121 0.7503,0.73271 l -0.2141,6.09473 c -0.014,0.38232 -0.3459,0.68691 -0.7514,0.68691"
       style="fill:#fef3fa;fill-opacity:1;fill-rule:nonzero;stroke:none;stroke-width:0.10952782"
       id="path192"
       inkscape:connector-curvature="0" />
    <path
       d="m 1039.691,575.73333 h -22.4122 c -0.4055,0 -0.7377,-0.30459 -0.7512,-0.68691 l -0.2141,-6.09473 c -0.014,-0.4015 0.3256,-0.73271 0.7502,-0.73271 h 21.4366 c 0.3627,0 0.6725,0.2428 0.7389,0.58041 l 1.1896,6.09581 c 0.086,0.43557 -0.2681,0.83813 -0.7378,0.83813"
       style="fill:#fef3fa;fill-opacity:1;fill-rule:nonzero;stroke:none;stroke-width:0.10952782"
       id="path194"
       inkscape:connector-curvature="0" />
    <path
       d="m 1074.0976,575.73333 h -22.3445 c -0.3447,0 -0.6443,-0.22151 -0.7276,-0.53674 l -1.6199,-6.09582 c -0.1194,-0.44835 0.2388,-0.88179 0.7277,-0.88179 h 21.3678 c 0.3076,0 0.5824,0.17572 0.6962,0.44409 l 2.5965,6.09582 c 0.1982,0.46538 -0.1644,0.97444 -0.6962,0.97444"
       style="fill:#fef3fa;fill-opacity:1;fill-rule:nonzero;stroke:none;stroke-width:0.10952782"
       id="path196"
       inkscape:connector-curvature="0" />
    <path
       d="m 1108.475,575.73333 h -22.215 c -0.2906,0 -0.5553,-0.15975 -0.6803,-0.40895 l -3.0235,-6.09475 c -0.2342,-0.47072 0.1296,-1.01065 0.6793,-1.01065 h 21.2383 c 0.2592,0 0.5013,0.12673 0.6377,0.3344 l 4.0011,6.09582 c 0.3097,0.47177 -0.05,1.08413 -0.6376,1.08413"
       style="fill:#fef3fa;fill-opacity:1;fill-rule:nonzero;stroke:none;stroke-width:0.10952782"
       id="path198"
       inkscape:connector-curvature="0" />
    <path
       d="m 1142.831,575.73333 h -22.037 c -0.2478,0 -0.4799,-0.11608 -0.6195,-0.30777 l -4.4293,-6.09476 c -0.3425,-0.47071 0.014,-1.11182 0.6173,-1.11182 h 21.0614 c 0.222,0 0.4327,0.0927 0.5745,0.25347 l 5.4071,6.09474 c 0.4101,0.4622 0.062,1.16614 -0.5745,1.16614"
       style="fill:#fef3fa;fill-opacity:1;fill-rule:nonzero;stroke:none;stroke-width:0.10952782"
       id="path200"
       inkscape:connector-curvature="0" />
    <path
       d="m 1177.1701,575.73333 h -21.823 c -0.2129,0 -0.4145,-0.0852 -0.5565,-0.23323 l -5.835,-6.09582 c -0.4383,-0.4558 -0.095,-1.1853 0.5565,-1.1853 h 20.8462 c 0.1916,0 0.3763,0.0682 0.516,0.19383 l 6.8117,6.09475 c 0.4922,0.4409 0.1622,1.22577 -0.5159,1.22577"
       style="fill:#fef3fa;fill-opacity:1;fill-rule:nonzero;stroke:none;stroke-width:0.10952782"
       id="path202"
       inkscape:connector-curvature="0" />
    <path
       d="m 856.28153,587.12092 h -23.6467 c -0.6793,0 -1.0093,-0.78382 -0.5159,-1.22471 l 8.097,-7.24597 c 0.1385,-0.1246 0.3244,-0.19488 0.5159,-0.19488 h 22.4853 c 0.6511,0 0.9947,0.73056 0.5565,1.18742 l -6.9356,7.24384 c -0.142,0.14909 -0.3447,0.2343 -0.5565,0.2343"
       style="fill:#fef3fa;fill-opacity:1;fill-rule:nonzero;stroke:none;stroke-width:0.10952782"
       id="path204"
       inkscape:connector-curvature="0" />
    <path
       d="m 893.46043,587.12092 h -23.8608 c -0.6375,0 -0.9844,-0.70395 -0.5756,-1.16613 l 6.4264,-7.24491 c 0.1432,-0.16081 0.3538,-0.25452 0.5758,-0.25452 h 22.6993 c 0.6049,0 0.9619,0.6411 0.6195,1.11181 l -5.2674,7.24597 c -0.1396,0.19276 -0.3705,0.30778 -0.6172,0.30778"
       style="fill:#fef3fa;fill-opacity:1;fill-rule:nonzero;stroke:none;stroke-width:0.10952782"
       id="path206"
       inkscape:connector-curvature="0" />
    <path
       d="m 930.61903,587.12092 h -24.0387 c -0.588,0 -0.9485,-0.61129 -0.6376,-1.08519 l 4.7559,-7.24385 c 0.1363,-0.20979 0.3785,-0.33652 0.6387,-0.33652 h 22.8762 c 0.5509,0 0.9147,0.541 0.6804,1.0117 l -3.5956,7.24492 c -0.1239,0.25025 -0.3887,0.40894 -0.6793,0.40894"
       style="fill:#fef3fa;fill-opacity:1;fill-rule:nonzero;stroke:none;stroke-width:0.10952782"
       id="path208"
       inkscape:connector-curvature="0" />
    <path
       d="m 843.58963,600.37751 h -25.7689 c -0.6793,0 -1.0094,-0.78382 -0.516,-1.22577 l 9.7012,-8.68047 c 0.1385,-0.12566 0.3233,-0.19489 0.5159,-0.19489 h 24.3789 c 0.65,0 0.9936,0.7295 0.5564,1.18638 l -8.311,8.68152 c -0.1431,0.14803 -0.3447,0.23323 -0.5565,0.23323"
       style="fill:#fef3fa;fill-opacity:1;fill-rule:nonzero;stroke:none;stroke-width:0.10952782"
       id="path210"
       inkscape:connector-curvature="0" />
    <path
       d="m 883.82463,600.37751 h -25.9841 c -0.6364,0 -0.9845,-0.70394 -0.5745,-1.16507 l 7.7005,-8.6826 c 0.1431,-0.15974 0.3526,-0.25346 0.5745,-0.25346 h 24.5929 c 0.6049,0 0.961,0.64005 0.6184,1.11182 l -6.3093,8.68154 c -0.1396,0.19275 -0.3706,0.30777 -0.6184,0.30777"
       style="fill:#fef3fa;fill-opacity:1;fill-rule:nonzero;stroke:none;stroke-width:0.10952782"
       id="path212"
       inkscape:connector-curvature="0" />
    <path
       d="m 924.03933,600.37751 h -26.1609 c -0.5881,0 -0.9473,-0.6113 -0.6376,-1.08413 l 5.6988,-8.68153 c 0.1374,-0.20874 0.3785,-0.33547 0.6375,-0.33547 h 24.7698 c 0.5509,0 0.9147,0.541 0.6804,1.01171 l -4.3075,8.68047 c -0.1251,0.25025 -0.3899,0.40895 -0.6805,0.40895"
       style="fill:#fef3fa;fill-opacity:1;fill-rule:nonzero;stroke:none;stroke-width:0.10952782"
       id="path214"
       inkscape:connector-curvature="0" />
    <path
       d="m 967.75173,587.12092 h -24.1682 c -0.5318,0 -0.8945,-0.50907 -0.6973,-0.9755 l 3.0865,-7.24491 c 0.1137,-0.26837 0.3897,-0.44515 0.6962,-0.44515 h 23.0079 c 0.4878,0 0.8472,0.4345 0.7277,0.88284 l -1.9263,7.24598 c -0.084,0.31522 -0.384,0.53674 -0.7265,0.53674"
       style="fill:#fef3fa;fill-opacity:1;fill-rule:nonzero;stroke:none;stroke-width:0.10952782"
       id="path216"
       inkscape:connector-curvature="0" />
    <path
       d="M 1084.5918,600.37751 H 937.93763 c -0.5316,0 -0.8944,-0.50799 -0.6961,-0.9755 l 3.697,-8.68046 c 0.1149,-0.26839 0.3909,-0.44517 0.6962,-0.44517 h 139.26107 c 0.3064,0 0.5824,0.17678 0.6962,0.44517 l 3.6971,8.68046 c 0.1982,0.46751 -0.1645,0.9755 -0.6973,0.9755"
       style="fill:#fef3fa;fill-opacity:1;fill-rule:nonzero;stroke:none;stroke-width:0.10952782"
       id="path218"
       inkscape:connector-curvature="0" />
    <path
       d="m 1004.8506,587.12092 h -24.2358 c -0.4686,0 -0.82347,-0.40256 -0.73897,-0.83919 l 1.41597,-7.24491 c 0.065,-0.33652 0.3762,-0.58146 0.7378,-0.58146 h 23.0767 c 0.4247,0 0.7649,0.33333 0.7502,0.73375 l -0.2557,7.24491 c -0.013,0.38339 -0.3447,0.6869 -0.7502,0.6869"
       style="fill:#fef3fa;fill-opacity:1;fill-rule:nonzero;stroke:none;stroke-width:0.10952782"
       id="path220"
       inkscape:connector-curvature="0" />
    <path
       d="M 1041.9157,587.12092 H 1017.68 c -0.4045,0 -0.7368,-0.30351 -0.7503,-0.6869 l -0.2558,-7.24491 c -0.014,-0.40042 0.3256,-0.73375 0.7503,-0.73375 h 23.0767 c 0.3616,0 0.6713,0.24494 0.7378,0.58146 l 1.416,7.24491 c 0.084,0.43663 -0.2693,0.83919 -0.739,0.83919"
       style="fill:#fef3fa;fill-opacity:1;fill-rule:nonzero;stroke:none;stroke-width:0.10952782"
       id="path222"
       inkscape:connector-curvature="0" />
    <path
       d="m 1078.947,587.12092 h -24.1671 c -0.3447,0 -0.6443,-0.22152 -0.7289,-0.53674 l -1.925,-7.24598 c -0.1182,-0.44834 0.24,-0.88284 0.7288,-0.88284 h 23.0058 c 0.3075,0 0.5823,0.17678 0.6972,0.44515 l 3.0854,7.24491 c 0.1994,0.46643 -0.1644,0.9755 -0.6962,0.9755"
       style="fill:#fef3fa;fill-opacity:1;fill-rule:nonzero;stroke:none;stroke-width:0.10952782"
       id="path224"
       inkscape:connector-curvature="0" />
    <path
       d="m 1115.9492,587.12092 h -24.0376 c -0.2907,0 -0.5555,-0.15869 -0.6793,-0.40894 l -3.5969,-7.24492 c -0.2332,-0.4707 0.1307,-1.0117 0.6805,-1.0117 h 22.8784 c 0.259,0 0.5002,0.12673 0.6375,0.33652 l 4.7561,7.24385 c 0.3097,0.4739 -0.05,1.08519 -0.6387,1.08519"
       style="fill:#fef3fa;fill-opacity:1;fill-rule:nonzero;stroke:none;stroke-width:0.10952782"
       id="path226"
       inkscape:connector-curvature="0" />
    <path
       d="m 1152.9298,587.12092 h -23.8585 c -0.2479,0 -0.4788,-0.11502 -0.6196,-0.30778 l -5.2662,-7.24597 c -0.3425,-0.47071 0.014,-1.11181 0.6196,-1.11181 h 22.6992 c 0.2231,0 0.4327,0.0937 0.5758,0.25452 l 6.4253,7.24491 c 0.4099,0.46218 0.063,1.16613 -0.5756,1.16613"
       style="fill:#fef3fa;fill-opacity:1;fill-rule:nonzero;stroke:none;stroke-width:0.10952782"
       id="path228"
       inkscape:connector-curvature="0" />
    <path
       d="m 1159.6717,594.72045 h -25.0774 c -0.2478,0 -0.4788,-0.11609 -0.6184,-0.30778 l -2.1978,-3.02447 c -0.3436,-0.47177 0.014,-1.11182 0.6185,-1.11182 h 24.593 c 0.2218,0 0.4324,0.0937 0.5755,0.25346 l 2.6811,3.02448 c 0.4099,0.46219 0.063,1.16613 -0.5745,1.16613"
       style="fill:#fef3fa;fill-opacity:1;fill-rule:nonzero;stroke:none;stroke-width:0.10952782"
       id="path230"
       inkscape:connector-curvature="0" />
    <path
       d="m 1164.6888,600.37751 h -25.9829 c -0.2467,0 -0.4776,-0.11502 -0.6173,-0.30777 l -2.4568,-3.37912 c -0.3424,-0.4707 0.014,-1.11182 0.6195,-1.11182 h 25.4412 c 0.2218,0 0.4314,0.0927 0.5745,0.25453 l 2.9975,3.37911 c 0.41,0.46113 0.062,1.16507 -0.5757,1.16507"
       style="fill:#fef3fa;fill-opacity:1;fill-rule:nonzero;stroke:none;stroke-width:0.10952782"
       id="path232"
       inkscape:connector-curvature="0" />
    <path
       d="m 1204.7098,600.37751 h -25.7689 c -0.2107,0 -0.4135,-0.0852 -0.5565,-0.23323 l -3.234,-3.37912 c -0.4371,-0.45687 -0.095,-1.18636 0.5564,-1.18636 h 25.2282 c 0.1904,0 0.3763,0.0703 0.516,0.19489 l 3.7748,3.37805 c 0.4934,0.44195 0.1633,1.22577 -0.516,1.22577"
       style="fill:#fef3fa;fill-opacity:1;fill-rule:nonzero;stroke:none;stroke-width:0.10952782"
       id="path234"
       inkscape:connector-curvature="0" />
    <path
       d="m 1124.6522,600.37751 h -26.161 c -0.2918,0 -0.5554,-0.1587 -0.6792,-0.40895 l -1.6774,-3.37803 c -0.2342,-0.47073 0.1307,-1.01173 0.6805,-1.01173 h 25.6191 c 0.2602,0 0.5002,0.1278 0.6375,0.33547 l 2.2181,3.37911 c 0.3109,0.47283 -0.05,1.08413 -0.6376,1.08413"
       style="fill:#fef3fa;fill-opacity:1;fill-rule:nonzero;stroke:none;stroke-width:0.10952782"
       id="path236"
       inkscape:connector-curvature="0" />
    <path
       d="m 1189.8957,587.12092 h -23.6455 c -0.213,0 -0.4157,-0.0852 -0.5577,-0.2343 l -6.9366,-7.24384 c -0.4361,-0.45686 -0.094,-1.18742 0.5563,-1.18742 h 22.4865 c 0.1915,0 0.3763,0.0703 0.516,0.19488 l 8.0969,7.24597 c 0.4923,0.44089 0.1622,1.22471 -0.5159,1.22471"
       style="fill:#fef3fa;fill-opacity:1;fill-rule:nonzero;stroke:none;stroke-width:0.10952782"
       id="path238"
       inkscape:connector-curvature="0" />
    <path
       d="m 1119.9852,438.75852 v -37.07863 l -24.6368,37.07863 z m 29.9459,7.19804 c 0,2.04151 -0.7108,3.75185 -2.1234,5.1299 -1.417,1.38125 -3.4717,2.07028 -6.1595,2.07028 h -4.035 v 10.79867 c 0,5.88069 -3.1856,8.81998 -9.558,8.81998 -5.3823,0 -8.07,-3.17784 -8.07,-9.53989 v -10.07876 h -35.4678 c -8.2131,0 -12.319,-2.09904 -12.319,-6.30028 0,-1.67839 0.6714,-3.56868 2.0187,-5.66879 1.3449,-2.09902 2.4421,-3.74971 3.2915,-4.94992 l 28.0342,-41.03706 c 2.2642,-2.99785 4.6366,-5.22042 7.1148,-6.66025 2.4759,-1.43981 5.3439,-2.15972 8.6017,-2.15972 5.2369,0 9.2719,1.25985 12.106,3.77952 2.8309,2.5197 4.2479,6.72203 4.2479,12.59952 v 35.99876 h 4.035 c 2.6878,0 4.7425,0.71883 6.1595,2.15865 1.4126,1.43983 2.1234,3.12246 2.1234,5.03939"
       style="fill:#fef3fa;fill-opacity:1;fill-rule:nonzero;stroke:none;stroke-width:0.10952782"
       id="path240"
       inkscape:connector-curvature="0" />
    <path
       d="m 923.79713,438.75852 v -37.07863 l -24.6357,37.07863 z m 29.947,7.19804 c 0,2.04151 -0.7108,3.75185 -2.1245,5.1299 -1.4171,1.38125 -3.4706,2.07028 -6.1583,2.07028 h -4.0351 v 10.79867 c 0,5.88069 -3.1867,8.81998 -9.5579,8.81998 -5.3823,0 -8.0712,-3.17784 -8.0712,-9.53989 v -10.07876 h -35.4666 c -8.2131,0 -12.319,-2.09904 -12.319,-6.30028 0,-1.67839 0.6714,-3.56868 2.0187,-5.66879 1.3437,-2.09902 2.442,-3.74971 3.2915,-4.94992 l 28.0342,-41.03706 c 2.2642,-2.99785 4.6365,-5.22042 7.1148,-6.66025 2.4758,-1.43981 5.3428,-2.15972 8.6016,-2.15972 5.2357,0 9.2708,1.25985 12.1061,3.77952 2.8297,2.5197 4.2478,6.72203 4.2478,12.59952 v 35.99876 h 4.0351 c 2.6877,0 4.7412,0.71883 6.1583,2.15865 1.4137,1.43983 2.1245,3.12246 2.1245,5.03939"
       style="fill:#fef3fa;fill-opacity:1;fill-rule:nonzero;stroke:none;stroke-width:0.10952782"
       id="path242"
       inkscape:connector-curvature="0" />
    <path
       d="m 1006.7938,451.35803 c -12.666,0 -22.9336,-9.70817 -22.9336,-21.68147 0,-11.97332 10.2676,-21.6804 22.9336,-21.6804 12.6648,0 22.9325,9.70708 22.9325,21.6804 0,11.9733 -10.2677,21.68147 -22.9325,21.68147 z m 42.4034,-30.3843 h -5.6447 c -0.9158,-3.46644 -2.3633,-6.7316 -4.2592,-9.71561 l 3.9923,-3.77528 c 1.3258,-1.25131 1.3258,-3.28326 0,-4.53459 l -8.2187,-7.77206 c -1.326,-1.25344 -3.4729,-1.25344 -4.7987,0 l -3.9934,3.77528 c -3.1552,-1.79339 -6.6101,-3.1608 -10.2756,-4.0266 v -5.3365 c 0,-1.77102 -1.5195,-3.20765 -3.3929,-3.20765 h -11.6251 c -1.8744,0 -3.3929,1.43663 -3.3929,3.20765 v 5.3365 c -3.6666,0.8658 -7.1204,2.23321 -10.2768,4.0266 l -3.9931,-3.77528 c -1.3248,-1.25344 -3.47297,-1.25344 -4.79877,0 l -8.2199,7.77206 c -1.3247,1.25133 -1.3247,3.28328 0,4.53459 l 3.9923,3.77528 c -1.8947,2.98401 -3.3422,6.24917 -4.2581,9.71561 h -5.6447 c -1.8744,0 -3.3917,1.43663 -3.3917,3.20765 v 10.99036 c 0,1.77102 1.5173,3.20765 3.3917,3.20765 h 5.6447 c 0.9159,3.46644 2.3634,6.73159 4.2581,9.7156 l -3.9923,3.77527 c -1.3247,1.25239 -1.3247,3.28327 0,4.53566 l 8.2199,7.77207 c 1.3258,1.25131 3.47397,1.25131 4.79877,0 l 3.9931,-3.77528 c 3.1564,1.79231 6.6102,3.16078 10.2768,4.02554 v 5.33756 c 0,1.77103 1.5185,3.20658 3.3929,3.20658 h 11.6251 c 1.8734,0 3.3929,-1.43555 3.3929,-3.20658 v -5.33756 c 3.6655,-0.86476 7.1204,-2.23428 10.2756,-4.02554 l 3.9934,3.77528 c 1.3258,1.25131 3.4727,1.25131 4.7987,0 l 8.2187,-7.77207 c 1.3258,-1.25239 1.3258,-3.28327 0,-4.53566 l -3.9923,-3.77527 c 1.8959,-2.98401 3.3434,-6.24916 4.2592,-9.7156 h 5.6447 c 1.8744,0 3.3929,-1.43663 3.3929,-3.20765 v -10.99036 c 0,-1.77102 -1.5185,-3.20765 -3.3929,-3.20765"
       style="fill:#fef3fa;fill-opacity:1;fill-rule:nonzero;stroke:none;stroke-width:0.10952782"
       id="path244"
       inkscape:connector-curvature="0" />
    <path
       d="m 1064.0135,408.6298 c -6.6359,-0.55697 -11.5372,-6.09475 -10.948,-12.36841 0.5891,-6.27366 6.4479,-10.90836 13.0838,-10.35139 6.636,0.55803 11.5372,6.09582 10.9481,12.36948 -0.5891,6.27366 -6.4479,10.90836 -13.0839,10.35032 z m 23.7155,-14.05317 -2.9581,-0.24814 c -0.3098,-1.85622 -0.9069,-3.63151 -1.7539,-5.27793 l 2.2777,-1.80191 c 0.757,-0.5985 0.8561,-1.66239 0.2241,-2.37698 l -3.9245,-4.43342 c -0.632,-0.71566 -1.7573,-0.80936 -2.5132,-0.21192 l -2.2788,1.8019 c -1.5647,-1.07773 -3.3073,-1.94674 -5.1862,-2.56121 l 0.2624,-2.79659 c 0.088,-0.92757 -0.6376,-1.74653 -1.6187,-1.8296 l -6.092,-0.51224 c -0.9823,-0.082 -1.8485,0.60384 -1.9352,1.53141 l -0.2636,2.79658 c -1.9635,0.2918 -3.8401,0.85729 -5.5828,1.65707 l -1.9059,-2.15335 c -0.633,-0.71458 -1.7584,-0.80935 -2.5143,-0.21191 l -4.6894,3.71029 c -0.757,0.59853 -0.855,1.66241 -0.2231,2.377 l 1.906,2.15334 c -1.14,1.48029 -2.0603,3.12779 -2.7103,4.90306 l -2.9581,-0.24813 c -0.9811,-0.082 -1.8473,0.60278 -1.9341,1.53142 l -0.5418,5.75927 c -0.087,0.92759 0.6375,1.74655 1.6198,1.82961 l 2.9581,0.24814 c 0.3087,1.85622 0.9057,3.63043 1.7517,5.27792 l -2.2777,1.80298 c -0.7559,0.59743 -0.8562,1.66132 -0.2242,2.37591 l 3.9257,4.43342 c 0.632,0.71459 1.7573,0.80938 2.5132,0.21085 l 2.2788,-1.80083 c 1.5647,1.07774 3.3073,1.94675 5.1863,2.56122 l -0.2625,2.79659 c -0.088,0.92757 0.6376,1.7476 1.6187,1.82958 l 6.0919,0.51118 c 0.9823,0.0841 1.8485,-0.60276 1.9352,-1.53034 l 0.2637,-2.79657 c 1.9633,-0.2918 3.8401,-0.85729 5.5827,-1.65708 l 1.9059,2.15441 c 0.6332,0.71458 1.7585,0.80936 2.5143,0.21087 l 4.6895,-3.71031 c 0.7559,-0.59851 0.855,-1.66241 0.223,-2.37699 l -1.9059,-2.15335 c 1.1399,-1.48028 2.0603,-3.12778 2.7102,-4.90413 l 2.957,0.2492 c 0.9823,0.0831 1.8485,-0.60383 1.9364,-1.53141 l 0.5407,-5.75823 c 0.087,-0.92863 -0.6376,-1.74758 -1.6187,-1.83065"
       style="fill:#fef3fa;fill-opacity:1;fill-rule:nonzero;stroke:none;stroke-width:0.10952782"
       id="path246"
       inkscape:connector-curvature="0" />
    <path
       d="m 937.26183,500.33861 c -0.7412,0 -1.3507,0.0212 -1.8294,0.065 v 5.1661 h 1.4126 c 1.4036,0 2.4849,-0.18635 3.2408,-0.55803 0.757,-0.37167 1.1355,-1.07561 1.1355,-2.1118 0,-0.49627 -0.1014,-0.91162 -0.302,-1.24814 -0.1993,-0.33546 -0.4775,-0.59744 -0.8335,-0.78807 -0.3549,-0.18956 -0.7751,-0.3248 -1.2617,-0.40467 -0.4866,-0.0799 -1.007,-0.12035 -1.5623,-0.12035 z m -0.2084,-2.38551 c 2.3306,0 4.1172,0.40043 5.3608,1.20341 1.2414,0.80192 1.8631,2.05749 1.8631,3.76568 0,0.88925 -0.1666,1.65175 -0.499,2.28646 -0.3312,0.63473 -0.8133,1.15336 -1.4464,1.55379 -0.633,0.40254 -1.4046,0.69754 -2.3149,0.8871 -0.9112,0.18956 -1.9532,0.28434 -3.1259,0.28434 h -1.4587 v 5.34076 h -2.9176 v -14.94986 c 0.6793,-0.14591 1.4317,-0.24389 2.2574,-0.295 0.8258,-0.0512 1.5873,-0.0767 2.2812,-0.0767"
       style="fill:#fef3fa;fill-opacity:1;fill-rule:nonzero;stroke:none;stroke-width:0.10952782"
       id="path248"
       inkscape:connector-curvature="0" />
    <path
       d="m 950.66673,511.41417 c 0.8639,0 1.5195,-0.0437 1.9679,-0.13099 v -2.93397 c -0.1544,-0.0437 -0.3785,-0.0873 -0.6714,-0.13099 -0.294,-0.0437 -0.6173,-0.065 -0.9721,-0.065 -0.3098,0 -0.6218,0.0213 -0.9373,0.065 -0.3165,0.0437 -0.6026,0.12353 -0.8572,0.24175 -0.2557,0.11607 -0.4595,0.28009 -0.6139,0.492 -0.1543,0.21194 -0.2309,0.47817 -0.2309,0.79872 0,0.62726 0.2083,1.06177 0.6252,1.30247 0.4167,0.24067 0.98,0.36101 1.6897,0.36101 z m -0.231,-9.8711 c 0.926,0 1.7044,0.10863 2.3386,0.32694 0.6319,0.21938 1.1377,0.5261 1.5162,0.91907 0.3774,0.3951 0.6488,0.87326 0.8099,1.4345 0.1623,0.56229 0.2433,1.17891 0.2433,1.84982 v 6.93821 c -0.4325,0.0884 -1.0847,0.19488 -1.9566,0.31841 -0.8731,0.12353 -1.8565,0.18638 -2.9514,0.18638 -0.7266,0 -1.39,-0.0671 -1.9916,-0.1981 -0.6015,-0.13098 -1.1151,-0.34184 -1.5399,-0.63365 -0.4246,-0.29286 -0.7569,-0.67199 -0.9957,-1.1395 -0.2399,-0.46645 -0.3582,-1.04259 -0.3582,-1.72842 0,-0.65708 0.1351,-1.21193 0.4044,-1.66346 0.2703,-0.45262 0.6375,-0.82109 1.1005,-1.10543 0.463,-0.2854 0.998,-0.48882 1.6086,-0.61341 0.6094,-0.12355 1.247,-0.18532 1.9104,-0.18532 0.3088,0 0.632,0.0181 0.9722,0.0533 0.3402,0.0373 0.7018,0.099 1.0882,0.18636 v -0.4377 c 0,-0.30563 -0.038,-0.59849 -0.116,-0.87433 -0.077,-0.27795 -0.2119,-0.52288 -0.4045,-0.73481 -0.1937,-0.21087 -0.4483,-0.37487 -0.7648,-0.49203 -0.3165,-0.11607 -0.7142,-0.17463 -1.1918,-0.17463 -0.6489,0 -1.2425,0.0437 -1.782,0.13098 -0.542,0.0873 -0.9824,0.18957 -1.3203,0.30564 l -0.3481,-2.14377 c 0.3549,-0.11712 0.8719,-0.2332 1.5512,-0.35035 0.6803,-0.11716 1.4047,-0.17467 2.1774,-0.17467"
       style="fill:#fef3fa;fill-opacity:1;fill-rule:nonzero;stroke:none;stroke-width:0.10952782"
       id="path250"
       inkscape:connector-curvature="0" />
    <path
       d="m 960.96933,507.25551 c 0,1.12458 0.2591,1.94461 0.7761,2.46218 0.5171,0.51862 1.1839,0.77742 2.0029,0.77742 0.4471,0 0.8685,-0.0585 1.2616,-0.17466 0.3943,-0.11821 0.7141,-0.25559 0.9608,-0.4164 v -5.93181 c -0.2004,-0.0437 -0.4482,-0.0841 -0.7411,-0.12034 -0.293,-0.0373 -0.6635,-0.0543 -1.1108,-0.0543 -1.0183,0 -1.7989,0.31736 -2.3385,0.951 -0.5407,0.63472 -0.811,1.47071 -0.811,2.50692 z m 7.803,4.85834 c 0,1.82426 -0.49,3.15973 -1.4701,4.00636 -0.9811,0.84664 -2.4816,1.26944 -4.5035,1.26944 -0.7413,0 -1.4633,-0.0575 -2.1651,-0.17573 -0.7029,-0.11608 -1.3382,-0.26943 -1.9093,-0.45792 l 0.5091,-2.25453 c 0.4776,0.1885 1.0217,0.34185 1.6323,0.459 0.6093,0.11714 1.2695,0.17466 1.9791,0.17466 1.1266,0 1.9297,-0.21832 2.4084,-0.65602 0.4788,-0.43769 0.7175,-1.08733 0.7175,-1.94888 v -0.4377 c -0.277,0.13207 -0.6454,0.26306 -1.0993,0.39404 -0.4551,0.13206 -0.9767,0.19808 -1.5636,0.19808 -0.7716,0 -1.4779,-0.11715 -2.1177,-0.35143 -0.641,-0.23216 -1.1884,-0.57614 -1.6435,-1.02768 -0.4563,-0.45262 -0.8111,-1.0181 -1.0657,-1.69647 -0.2546,-0.67945 -0.383,-1.46326 -0.383,-2.35356 0,-0.83173 0.1352,-1.59744 0.4067,-2.29817 0.2692,-0.70075 0.6634,-1.29926 1.1805,-1.79553 0.517,-0.49628 1.1456,-0.88284 1.8856,-1.15974 0.7424,-0.27795 1.5839,-0.41534 2.5257,-0.41534 0.909,0 1.7741,0.065 2.5919,0.19596 0.8178,0.13205 1.5129,0.27051 2.084,0.4164 v 9.91476"
       style="fill:#fef3fa;fill-opacity:1;fill-rule:nonzero;stroke:none;stroke-width:0.10952782"
       id="path252"
       inkscape:connector-curvature="0" />
    <path
       d="m 979.79363,506.42378 c 0,-0.36421 -0.055,-0.7114 -0.1622,-1.04047 -0.1081,-0.328 -0.267,-0.61236 -0.4743,-0.85304 -0.2095,-0.24068 -0.4629,-0.43025 -0.7648,-0.56973 -0.3008,-0.13846 -0.6601,-0.20768 -1.0758,-0.20768 -0.4325,0 -0.811,0.0767 -1.1354,0.23004 -0.3234,0.15334 -0.5982,0.35463 -0.8212,0.60169 -0.2254,0.24814 -0.3977,0.53355 -0.5217,0.8541 -0.1238,0.32161 -0.2082,0.64962 -0.2545,0.98509 z m -8.1274,1.1821 c 0,-1.00639 0.1588,-1.88925 0.4742,-2.64854 0.3165,-0.75826 0.7367,-1.38978 1.2628,-1.89457 0.5238,-0.50267 1.1264,-0.88179 1.8057,-1.13738 0.6782,-0.25452 1.3743,-0.38232 2.0828,-0.38232 1.6683,0 2.96817,0.48882 3.90207,1.46645 0.9338,0.97762 1.4001,2.43663 1.4001,4.37696 0,0.14698 0,0.31098 -0.01,0.49308 -0.01,0.18212 -0.02,0.34612 -0.036,0.49202 h -7.98647 c 0.077,0.91905 0.4201,1.63045 1.0296,2.13525 0.6104,0.50265 1.4937,0.75504 2.6505,0.75504 0.6804,0 1.3011,-0.0585 1.86437,-0.17571 0.5631,-0.11714 1.007,-0.24067 1.3314,-0.37274 l 0.3706,2.16718 c -0.1543,0.0735 -0.3672,0.15017 -0.6364,0.23005 -0.2704,0.0799 -0.5791,0.15227 -0.926,0.21937 -0.34807,0.065 -0.72207,0.11928 -1.12427,0.16294 -0.4009,0.0448 -0.8087,0.0671 -1.2255,0.0671 -1.0657,0 -1.9916,-0.15016 -2.7791,-0.44939 -0.7873,-0.29821 -1.4362,-0.7146 -1.9453,-1.24815 -0.5091,-0.53248 -0.8876,-1.15974 -1.1343,-1.88284 -0.2467,-0.72098 -0.3707,-1.51224 -0.3707,-2.37379"
       style="fill:#fef3fa;fill-opacity:1;fill-rule:nonzero;stroke:none;stroke-width:0.10952782"
       id="path254"
       inkscape:connector-curvature="0" />
    <path
       d="m 990.9523,502.19909 c 0.5408,-0.14589 1.2425,-0.28435 2.1076,-0.4164 0.864,-0.13099 1.8215,-0.19596 2.8703,-0.19596 0.9879,0 1.8147,0.1278 2.4782,0.38232 0.6623,0.25558 1.1918,0.61236 1.586,1.07242 0.3932,0.45899 0.6703,1.0149 0.8336,1.66347 0.1623,0.65067 0.2434,1.36208 0.2434,2.13417 v 6.43553 h -2.8015 v -6.01913 c 0,-0.61236 -0.044,-1.13525 -0.1285,-1.56549 -0.084,-0.43025 -0.223,-0.77955 -0.4168,-1.05005 -0.1926,-0.2705 -0.4551,-0.46752 -0.7862,-0.59106 -0.3324,-0.12353 -0.7379,-0.18635 -1.2155,-0.18635 -0.356,0 -0.7266,0.0224 -1.1129,0.066 -0.3842,0.0437 -0.6703,0.0799 -0.8551,0.10863 v 9.23744 h -2.8026 v -11.07559"
       style="fill:#fef3fa;fill-opacity:1;fill-rule:nonzero;stroke:none;stroke-width:0.10952782"
       id="path256"
       inkscape:connector-curvature="0" />
    <path
       d="m 1012.5782,507.53985 c 0,-1.13844 -0.2592,-2.03939 -0.7762,-2.70392 -0.517,-0.66348 -1.2379,-0.99468 -2.165,-0.99468 -0.9259,0 -1.648,0.3312 -2.1651,0.99468 -0.5171,0.66453 -0.775,1.56548 -0.775,2.70392 0,1.15228 0.2579,2.06494 0.775,2.73693 0.5171,0.67093 1.2392,1.0064 2.1651,1.0064 0.9271,0 1.648,-0.33547 2.165,-1.0064 0.517,-0.67199 0.7762,-1.58465 0.7762,-2.73693 z m 2.8702,0 c 0,0.90521 -0.1397,1.72842 -0.4168,2.4739 -0.2782,0.7444 -0.6702,1.37912 -1.1805,1.90413 -0.5103,0.52503 -1.1231,0.93398 -1.8407,1.22578 -0.7175,0.29179 -1.5083,0.43769 -2.3734,0.43769 -0.864,0 -1.6515,-0.1459 -2.3611,-0.43769 -0.7096,-0.2918 -1.3202,-0.70075 -1.8294,-1.22578 -0.5103,-0.52501 -0.9068,-1.15973 -1.1929,-1.90413 -0.285,-0.74548 -0.428,-1.56869 -0.428,-2.4739 0,-0.90416 0.143,-1.72523 0.428,-2.46219 0.2861,-0.73694 0.6871,-1.36846 1.2042,-1.89348 0.517,-0.5261 1.131,-0.92971 1.8406,-1.21513 0.7097,-0.28434 1.4892,-0.42598 2.3386,-0.42598 0.8482,0 1.6334,0.14164 2.3498,0.42598 0.7186,0.28542 1.3315,0.68903 1.8407,1.21513 0.509,0.52502 0.9078,1.15654 1.1928,1.89348 0.2861,0.73696 0.4281,1.55803 0.4281,2.46219"
       style="fill:#fef3fa;fill-opacity:1;fill-rule:nonzero;stroke:none;stroke-width:0.10952782"
       id="path258"
       inkscape:connector-curvature="0" />
    <path
       d="m 1018.2037,498.80613 2.8016,-0.4377 v 3.45792 h 4.3064 v 2.21086 h -4.3064 v 4.66238 c 0,0.92012 0.1542,1.57719 0.4629,1.97017 0.3086,0.39403 0.8336,0.59211 1.5748,0.59211 0.5091,0 0.9609,-0.0511 1.354,-0.15442 0.3932,-0.10222 0.7063,-0.19702 0.9383,-0.28434 l 0.463,2.10115 c -0.3244,0.13206 -0.7491,0.26626 -1.274,0.40576 -0.5249,0.13845 -1.1422,0.20765 -1.8519,0.20765 -0.8651,0 -1.586,-0.10967 -2.1651,-0.32799 -0.579,-0.21938 -1.0375,-0.53673 -1.3776,-0.95313 -0.3403,-0.41534 -0.579,-0.91905 -0.7176,-1.51011 -0.1397,-0.59105 -0.2084,-1.26517 -0.2084,-2.02449 v -9.91582"
       style="fill:#fef3fa;fill-opacity:1;fill-rule:nonzero;stroke:none;stroke-width:0.10952782"
       id="path260"
       inkscape:connector-curvature="0" />
    <path
       d="m 1038.3471,496.28857 c 0.6477,0 1.2188,0.0553 1.7122,0.16401 0.4945,0.10968 0.8651,0.20872 1.1108,0.29605 l -0.5318,2.18848 c -0.2624,-0.11607 -0.5665,-0.21085 -0.9147,-0.28434 -0.3469,-0.0735 -0.7209,-0.10969 -1.1231,-0.10969 -0.4471,0 -0.8256,0.0629 -1.1342,0.18637 -0.3087,0.12461 -0.5555,0.295 -0.7413,0.51438 -0.1847,0.21831 -0.3154,0.48457 -0.392,0.79871 -0.079,0.31417 -0.1171,0.65389 -0.1171,1.01812 v 0.76569 h 4.3987 v 2.21086 h -4.3987 v 9.23743 h -2.8004 v -12.25766 c 0,-1.47283 0.4077,-2.62938 1.2267,-3.46856 0.8178,-0.83919 2.0523,-1.25985 3.7049,-1.25985"
       style="fill:#fef3fa;fill-opacity:1;fill-rule:nonzero;stroke:none;stroke-width:0.10952782"
       id="path262"
       inkscape:connector-curvature="0" />
    <path
       d="m 1050.5253,507.53985 c 0,-1.13844 -0.258,-2.03939 -0.775,-2.70392 -0.517,-0.66348 -1.2391,-0.99468 -2.1651,-0.99468 -0.9259,0 -1.648,0.3312 -2.1651,0.99468 -0.517,0.66453 -0.776,1.56548 -0.776,2.70392 0,1.15228 0.259,2.06494 0.776,2.73693 0.5171,0.67093 1.2392,1.0064 2.1651,1.0064 0.926,0 1.6481,-0.33547 2.1651,-1.0064 0.517,-0.67199 0.775,-1.58465 0.775,-2.73693 z m 2.8714,0 c 0,0.90521 -0.1386,1.72842 -0.4169,2.4739 -0.2771,0.7444 -0.6713,1.37912 -1.1805,1.90413 -0.5092,0.52503 -1.123,0.93398 -1.8418,1.22578 -0.7164,0.29179 -1.5082,0.43769 -2.3723,0.43769 -0.8651,0 -1.6514,-0.1459 -2.3622,-0.43769 -0.7096,-0.2918 -1.319,-0.70075 -1.8282,-1.22578 -0.5092,-0.52501 -0.908,-1.15973 -1.193,-1.90413 -0.2849,-0.74548 -0.428,-1.56869 -0.428,-2.4739 0,-0.90416 0.1431,-1.72523 0.428,-2.46219 0.285,-0.73694 0.6871,-1.36846 1.2043,-1.89348 0.517,-0.5261 1.1309,-0.92971 1.8406,-1.21513 0.7097,-0.28434 1.4892,-0.42598 2.3385,-0.42598 0.8494,0 1.6323,0.14164 2.3498,0.42598 0.7176,0.28542 1.3315,0.68903 1.8417,1.21513 0.5092,0.52502 0.9057,1.15654 1.1919,1.89348 0.2849,0.73696 0.4281,1.55803 0.4281,2.46219"
       style="fill:#fef3fa;fill-opacity:1;fill-rule:nonzero;stroke:none;stroke-width:0.10952782"
       id="path264"
       inkscape:connector-curvature="0" />
    <path
       d="m 1066.2237,512.92426 c -0.5408,0.13206 -1.2436,0.26626 -2.1065,0.40576 -0.8651,0.13845 -1.8147,0.20765 -2.8489,0.20765 -0.9721,0 -1.7866,-0.13203 -2.4433,-0.39401 -0.6555,-0.26306 -1.1805,-0.62727 -1.5737,-1.09479 -0.3941,-0.46752 -0.6758,-1.02447 -0.8448,-1.67411 -0.1712,-0.64962 -0.2556,-1.36103 -0.2556,-2.13418 v -6.41423 h 2.8026 v 5.99784 c 0,1.22576 0.1893,2.10224 0.5677,2.62726 0.3763,0.52502 1.0364,0.78806 1.9781,0.78806 0.3401,0 0.6984,-0.015 1.0769,-0.0437 0.3785,-0.0287 0.6601,-0.0661 0.8449,-0.10969 v -9.2598 h 2.8026 v 11.09791"
       style="fill:#fef3fa;fill-opacity:1;fill-rule:nonzero;stroke:none;stroke-width:0.10952782"
       id="path266"
       inkscape:connector-curvature="0" />
    <path
       d="m 1069.7889,502.19909 c 0.5396,-0.14589 1.2414,-0.28435 2.1065,-0.4164 0.8639,-0.13099 1.8216,-0.19596 2.8713,-0.19596 0.988,0 1.8137,0.1278 2.4771,0.38232 0.6636,0.25558 1.1919,0.61236 1.5861,1.07242 0.3943,0.45899 0.6713,1.0149 0.8336,1.66347 0.1621,0.65067 0.2433,1.36208 0.2433,2.13417 v 6.43553 h -2.8016 v -6.01913 c 0,-0.61236 -0.043,-1.13525 -0.1272,-1.56549 -0.086,-0.43025 -0.2242,-0.77955 -0.4179,-1.05005 -0.1915,-0.2705 -0.4551,-0.46752 -0.7863,-0.59106 -0.3323,-0.12353 -0.7367,-0.18635 -1.2154,-0.18635 -0.3548,0 -0.7254,0.0224 -1.1119,0.066 -0.3852,0.0437 -0.6713,0.0799 -0.8561,0.10863 v 9.23744 h -2.8015 v -11.07559"
       style="fill:#fef3fa;fill-opacity:1;fill-rule:nonzero;stroke:none;stroke-width:0.10952782"
       id="path268"
       inkscape:connector-curvature="0" />
    <path
       d="m 1085.5324,507.51854 c 0,1.1672 0.2929,2.08306 0.8809,2.74653 0.5857,0.66453 1.3957,0.9968 2.4308,0.9968 0.4461,0 0.8291,-0.0191 1.1457,-0.0553 0.3165,-0.0361 0.5745,-0.0767 0.7761,-0.12033 v -6.56652 c -0.2479,-0.16081 -0.5757,-0.30989 -0.9845,-0.44833 -0.409,-0.13952 -0.8449,-0.20874 -1.3079,-0.20874 -1.0193,0 -1.764,0.32802 -2.2348,0.98508 -0.4709,0.65601 -0.7063,1.54632 -0.7063,2.67091 z m 8.0339,5.40572 c -0.5554,0.16082 -1.2538,0.30672 -2.0941,0.4377 -0.8415,0.131 -1.7246,0.19809 -2.6517,0.19809 -0.9575,0 -1.8136,-0.1395 -2.5706,-0.41639 -0.7559,-0.27796 -1.4001,-0.67519 -1.933,-1.19275 -0.5317,-0.51757 -0.9417,-1.1459 -1.2279,-1.88286 -0.2849,-0.73694 -0.428,-1.56441 -0.428,-2.48455 0,-0.90414 0.1205,-1.72522 0.3594,-2.46218 0.2399,-0.73587 0.5902,-1.36846 1.0532,-1.89348 0.4641,-0.5261 1.0273,-0.92971 1.6897,-1.21513 0.6646,-0.28434 1.4284,-0.42598 2.2935,-0.42598 0.5857,0 1.1027,0.065 1.55,0.19596 0.4483,0.13205 0.8347,0.27795 1.1591,0.4377 v -5.49412 l 2.8004,-0.4377 v 16.63569"
       style="fill:#fef3fa;fill-opacity:1;fill-rule:nonzero;stroke:none;stroke-width:0.10952782"
       id="path270"
       inkscape:connector-curvature="0" />
    <path
       d="m 731.56629,153.65773 58.82284,9.41421 -4.6929,18.67722 z"
       style="fill:#382d88;fill-opacity:1;fill-rule:nonzero;stroke:none;stroke-width:0.10952782"
       id="path272"
       inkscape:connector-curvature="0" />
    <path
       d="m 731.56629,153.65773 49.28624,14.1405 4.8437,13.95093 z"
       style="fill:#6b50ad;fill-opacity:1;fill-rule:nonzero;stroke:none;stroke-width:0.10952782"
       id="path274"
       inkscape:connector-curvature="0" />
    <path
       d="m 731.56629,153.65773 73.23704,-1.14804 -14.4142,10.56225 z"
       style="fill:#9d8acd;fill-opacity:1;fill-rule:nonzero;stroke:none;stroke-width:0.10952782"
       id="path276"
       inkscape:connector-curvature="0" />
    <path
       d="m 731.56629,153.65773 49.28624,14.1405 -18.2904,11.52816 z"
       style="fill:#9d8acd;fill-opacity:1;fill-rule:nonzero;stroke:none;stroke-width:0.10952782"
       id="path278"
       inkscape:connector-curvature="0" />
    <path
       d="m 1336.1353,346.05717 -46.4383,-11.58566 -3.8672,16.17775 z"
       style="fill:#382d88;fill-opacity:1;fill-rule:nonzero;stroke:none;stroke-width:0.10952782"
       id="path280"
       inkscape:connector-curvature="0" />
    <path
       d="m 1336.1353,346.05717 -41.3467,-4.79869 -8.9588,9.39078 z"
       style="fill:#6b50ad;fill-opacity:1;fill-rule:nonzero;stroke:none;stroke-width:0.10952782"
       id="path282"
       inkscape:connector-curvature="0" />
    <path
       d="m 1336.1353,346.05717 -52.8029,-24.52809 6.3646,12.94243 z"
       style="fill:#9d8acd;fill-opacity:1;fill-rule:nonzero;stroke:none;stroke-width:0.10952782"
       id="path284"
       inkscape:connector-curvature="0" />
    <path
       d="m 1336.1353,346.05717 -41.3467,-4.79869 8.8055,14.95199 z"
       style="fill:#9d8acd;fill-opacity:1;fill-rule:nonzero;stroke:none;stroke-width:0.10952782"
       id="path286"
       inkscape:connector-curvature="0" />
    <path
       d="m 799.12593,185.96107 c -0.2951,0 -0.5891,-0.11714 -0.7975,-0.34504 -0.5836,-0.64324 -1.1547,-1.30457 -1.6954,-1.96911 -0.3548,-0.4345 -0.2692,-1.05751 0.1915,-1.39296 0.4586,-0.33759 1.1175,-0.25666 1.4746,0.17998 0.5249,0.64428 1.0667,1.27261 1.6232,1.88497 0.3785,0.41639 0.3289,1.04472 -0.1115,1.40148 -0.1983,0.16188 -0.4415,0.24068 -0.6849,0.24068"
       style="fill:#6b50ad;fill-opacity:1;fill-rule:nonzero;stroke:none;stroke-width:0.10952782"
       id="path288"
       inkscape:connector-curvature="0" />
    <path
       d="m 885.13583,148.80472 c -0.5181,0 -0.9699,-0.36209 -1.0408,-0.86261 -0.077,-0.54315 0.3278,-1.04367 0.9034,-1.11611 1.7719,-0.22362 3.5664,-0.37059 5.3338,-0.43555 0.5722,-0.0244 1.069,0.40577 1.0916,0.95421 0.023,0.54737 -0.4281,1.01064 -1.0094,1.03194 -1.701,0.0628 -3.4301,0.2034 -5.1378,0.4196 -0.047,0.007 -0.095,0.008 -0.1408,0.008 z m 15.7198,0.15335 c -0.055,0 -0.1115,-0.003 -0.1667,-0.0128 -1.6796,-0.25348 -3.4031,-0.42919 -5.121,-0.52504 -0.5789,-0.0319 -1.0227,-0.50159 -0.9878,-1.04898 0.034,-0.54845 0.5261,-0.95951 1.1095,-0.93397 1.7889,0.098 3.5834,0.28116 5.3305,0.54526 0.5733,0.0873 0.9642,0.59744 0.873,1.13951 -0.082,0.48775 -0.5295,0.836 -1.0375,0.836 z m -25.9582,2.05535 c -0.4439,0 -0.855,-0.26623 -0.9992,-0.68583 -0.1791,-0.52182 0.1228,-1.08306 0.6748,-1.25238 1.6987,-0.52289 3.4345,-0.9755 5.1581,-1.34717 0.5654,-0.12567 1.1298,0.21086 1.2582,0.74652 0.1296,0.53463 -0.2241,1.06817 -0.7908,1.18957 -1.6627,0.35995 -3.3365,0.7966 -4.9755,1.30138 -0.1082,0.033 -0.2175,0.0479 -0.3256,0.0479 z m 36.0062,0.77211 c -0.1498,0 -0.3007,-0.031 -0.4449,-0.0937 -1.4847,-0.656 -3.0899,-1.22575 -4.7717,-1.69434 -0.5565,-0.15441 -0.8742,-0.70712 -0.7119,-1.23322 0.1656,-0.52608 0.7524,-0.82853 1.3055,-0.67304 1.7821,0.49625 3.4876,1.10223 5.068,1.79977 0.526,0.23323 0.7525,0.82428 0.508,1.32055 -0.1791,0.36208 -0.5587,0.57401 -0.953,0.57401 z m -45.6645,3.12779 c -0.375,0 -0.7378,-0.19063 -0.9271,-0.52397 -0.2749,-0.48455 -0.082,-1.08626 0.4292,-1.34505 1.5635,-0.79339 3.1868,-1.53033 4.8224,-2.19168 0.5351,-0.21513 1.1524,0.0192 1.38,0.52503 0.2275,0.50373 -0.019,1.08731 -0.5532,1.3035 -1.5793,0.63791 -3.1462,1.34931 -4.6556,2.11395 -0.1577,0.0809 -0.3289,0.11822 -0.4957,0.11822 z m 54.0342,2.75716 c -0.3053,0 -0.6072,-0.12459 -0.8145,-0.36528 -1.0002,-1.15655 -2.2247,-2.23534 -3.6385,-3.20552 -0.4685,-0.32268 -0.5722,-0.94463 -0.232,-1.38871 0.3413,-0.44301 0.9981,-0.54312 1.4689,-0.22044 1.559,1.07134 2.9142,2.26836 4.0294,3.55696 0.3672,0.42598 0.3008,1.05112 -0.1499,1.39827 -0.1937,0.15124 -0.4292,0.22472 -0.6634,0.22472 z m -62.8003,2.71032 c -0.3087,0 -0.6139,-0.12673 -0.8212,-0.37274 -0.3627,-0.42917 -0.2906,-1.05324 0.1633,-1.39615 1.3833,-1.04793 2.841,-2.04899 4.329,-2.97656 0.4855,-0.30139 1.1378,-0.17572 1.4566,0.28328 0.3199,0.45793 0.1858,1.07454 -0.2985,1.37592 -1.4363,0.89458 -2.8399,1.85942 -4.1725,2.86899 -0.1949,0.14591 -0.4258,0.21726 -0.6567,0.21726 z m 66.4387,6.4185 c -0.5598,0 -1.0251,-0.41747 -1.0498,-0.95208 -0.051,-1.20979 -0.2389,-2.36207 -0.5532,-3.42278 -0.1137,-0.38231 -0.2444,-0.75718 -0.3897,-1.12352 -0.2038,-0.51331 0.07,-1.08732 0.6128,-1.28008 0.5441,-0.19382 1.1512,0.0661 1.3551,0.57935 0.1668,0.42065 0.3166,0.84876 0.4461,1.28965 0.3571,1.20767 0.57,2.51224 0.6309,3.87432 0.024,0.54846 -0.4258,1.0117 -1.0071,1.03407 -0.014,6.2e-4 -0.03,6.2e-4 -0.045,6.2e-4 z m -73.9781,0.49307 c -0.24,0 -0.4811,-0.0777 -0.6782,-0.23643 -0.4437,-0.35463 -0.499,-0.98188 -0.1227,-1.40041 1.141,-1.27262 2.3734,-2.51649 3.6632,-3.69753 0.4168,-0.38231 1.0826,-0.37274 1.4869,0.0213 0.4033,0.39509 0.3921,1.02342 -0.025,1.40574 -1.2402,1.13631 -2.4253,2.33226 -3.5213,3.55591 -0.2073,0.23214 -0.5047,0.35144 -0.8032,0.35144 z m -5.9477,8.17781 c -0.1701,0 -0.3425,-0.0394 -0.5035,-0.12246 -0.5092,-0.26305 -0.6962,-0.86689 -0.4169,-1.34825 0.8427,-1.45474 1.764,-2.87644 2.7418,-4.22575 l 0.07,-0.0969 c 0.3313,-0.45048 0.9857,-0.56444 1.4622,-0.25028 0.4777,0.3131 0.5959,0.93185 0.2658,1.38337 l -0.058,0.0788 c -0.9439,1.3035 -1.8293,2.66772 -2.6382,4.06495 -0.1914,0.33013 -0.5519,0.51651 -0.9236,0.51651 z m 78.2711,1.09691 c -0.1082,0 -0.2186,-0.0159 -0.3278,-0.0501 -0.5508,-0.17039 -0.8527,-0.73269 -0.6703,-1.25346 0.4484,-1.29177 0.8145,-2.61552 1.0904,-3.93393 0.051,-0.24709 0.1003,-0.49415 0.1453,-0.74122 0.097,-0.54101 0.6387,-0.8967 1.2122,-0.81363 0.5721,0.0916 0.9574,0.60489 0.8606,1.14589 -0.049,0.26624 -0.1003,0.53142 -0.1555,0.7934 -0.2918,1.39829 -0.6815,2.80084 -1.1557,4.16824 -0.1453,0.41959 -0.5565,0.68476 -0.9992,0.68476 z m -82.3929,8.03296 c -0.1058,0 -0.2129,-0.0149 -0.3199,-0.0469 -0.5531,-0.16719 -0.8584,-0.72631 -0.6815,-1.24918 0.5429,-1.61236 1.1704,-3.2098 1.8632,-4.7476 0.2287,-0.50478 0.8448,-0.74014 1.3787,-0.52396 0.5351,0.21513 0.783,0.79872 0.5553,1.30458 -0.6678,1.47922 -1.2717,3.0181 -1.7955,4.57081 -0.1419,0.42171 -0.5553,0.69221 -1.0003,0.69221 z m 77.8093,0.8818 c -0.1983,0 -0.3988,-0.0521 -0.5768,-0.16294 -0.4843,-0.30245 -0.6207,-0.91799 -0.3007,-1.37698 0.9462,-1.36211 1.8001,-2.77635 2.539,-4.20447 0.2534,-0.49307 0.8798,-0.7018 1.4058,-0.45686 0.5217,0.23962 0.7379,0.83492 0.4822,1.32799 -0.7762,1.50373 -1.6751,2.99253 -2.6698,4.42491 -0.2016,0.29072 -0.5373,0.44835 -0.8797,0.44835 z m -109.9371,7.31837 c -0.2265,0 -0.454,-0.0703 -0.6466,-0.21085 -1.4159,-1.04579 -2.7824,-2.15655 -4.0609,-3.30243 -0.4213,-0.37807 -0.4393,-1.00639 -0.04,-1.40469 0.3977,-0.39829 1.0645,-0.41638 1.4858,-0.0372 1.2301,1.10118 2.5447,2.17145 3.9088,3.17676 0.4574,0.33867 0.5385,0.96273 0.1825,1.39511 -0.2083,0.25133 -0.5171,0.38338 -0.8302,0.38338 z m 103.1964,0.28435 c -0.2783,0 -0.5554,-0.10223 -0.7615,-0.30671 -0.4011,-0.39828 -0.3852,-1.02661 0.034,-1.40573 1.2492,-1.1278 2.4342,-2.31949 3.5213,-3.54205 0.3729,-0.4196 1.0363,-0.47285 1.4802,-0.12034 0.4449,0.3525 0.5035,0.97976 0.1295,1.39935 -1.1366,1.27794 -2.3746,2.52287 -3.6801,3.70072 -0.2039,0.18424 -0.4641,0.27476 -0.7243,0.27476 z m -73.3237,1.21193 c -0.044,0 -0.089,-0.003 -0.1341,-0.009 -0.5756,-0.0693 -0.9834,-0.56655 -0.9101,-1.11075 0.224,-1.67198 0.5305,-3.34823 0.9112,-4.98612 0.124,-0.53462 0.6883,-0.87008 1.2515,-0.75612 0.5666,0.11607 0.926,0.64641 0.8009,1.18316 -0.3661,1.57826 -0.6623,3.19593 -0.8775,4.80934 -0.068,0.5016 -0.5204,0.86901 -1.0419,0.86901 z m -21.0604,3.8988 c -0.1678,0 -0.3379,-0.0384 -0.4957,-0.1182 -1.586,-0.80405 -3.1349,-1.6656 -4.6016,-2.56124 -0.4877,-0.29817 -0.6285,-0.91265 -0.3131,-1.37273 0.3154,-0.46219 0.9653,-0.59316 1.4532,-0.2971 1.4204,0.86687 2.9185,1.70072 4.4551,2.48027 0.5114,0.25879 0.7029,0.86049 0.4291,1.34504 -0.1891,0.3344 -0.5518,0.52396 -0.927,0.52396 z m 86.0854,0.97231 c -0.3492,0 -0.6916,-0.16613 -0.891,-0.46752 -0.3075,-0.46431 -0.1588,-1.0788 0.3323,-1.36954 1.4588,-0.86261 2.8803,-1.80084 4.2265,-2.78592 0.4573,-0.33547 1.1185,-0.25879 1.4756,0.17785 0.3548,0.43344 0.2704,1.0575 -0.1881,1.39402 -1.4002,1.02555 -2.8815,2.00107 -4.3977,2.89881 -0.1735,0.10224 -0.3672,0.1523 -0.5576,0.1523 z m -76.4925,3.0756 c -0.1205,0 -0.2433,-0.0192 -0.3627,-0.0618 -1.6863,-0.58571 -3.3466,-1.22044 -4.9361,-1.88815 -0.5306,-0.22472 -0.7682,-0.8115 -0.5328,-1.31309 0.2365,-0.50267 0.8584,-0.72737 1.3877,-0.5048 1.5467,0.6507 3.1632,1.26944 4.8067,1.84132 0.5441,0.18956 0.8246,0.76037 0.624,1.27582 -0.1565,0.40255 -0.5587,0.65068 -0.9868,0.65068 z m 67.091,1.34504 c -0.4213,0 -0.8189,-0.24175 -0.98,-0.63578 -0.2095,-0.51118 0.058,-1.08626 0.6015,-1.28434 0.9564,-0.35144 1.9015,-0.72204 2.8072,-1.10543 0.6432,-0.27157 1.2841,-0.55485 1.9172,-0.85303 0.5216,-0.246 1.1513,-0.0448 1.4092,0.44729 0.2591,0.49201 0.046,1.08839 -0.4742,1.33226 -0.659,0.30989 -1.3247,0.60488 -1.9939,0.88816 -0.9371,0.39723 -1.9172,0.78169 -2.9073,1.14377 -0.125,0.0458 -0.2535,0.0671 -0.3797,0.0671 z m -57.0271,1.52288 c -0.082,0 -0.1657,-0.009 -0.249,-0.0277 -1.7449,-0.40043 -3.4706,-0.84239 -5.1299,-1.31204 -0.5554,-0.15867 -0.8719,-0.71245 -0.704,-1.23854 0.1667,-0.52609 0.7513,-0.82322 1.3089,-0.6656 1.5309,0.43449 3.1204,0.84344 4.73,1.21724 -0.048,-0.91692 -0.072,-1.84877 -0.072,-2.77101 0,-0.69968 0.014,-1.39723 0.04,-2.09477 0.021,-0.54846 0.5115,-0.99574 1.0894,-0.95633 0.58,0.0202 1.0329,0.48242 1.0126,1.02981 -0.027,0.67198 -0.04,1.34717 -0.04,2.02129 0,0.95314 0.027,1.91586 0.078,2.85941 0.031,0.54846 -0.4144,1.01597 -0.9946,1.04473 -0.01,0 -0.017,0 -0.026,0.003 0,0.0437 -0.013,0.0873 -0.025,0.13099 -0.116,0.45579 -0.5451,0.76038 -1.0194,0.76038 z m 46.9543,1.29713 c -0.4844,0 -0.9203,-0.31843 -1.0262,-0.78488 -0.1216,-0.53674 0.2388,-1.06496 0.8066,-1.17997 1.7043,-0.34611 3.3929,-0.75186 5.0172,-1.20554 0.5576,-0.15761 1.1422,0.14485 1.3056,0.672 0.1656,0.52716 -0.1521,1.0788 -0.7097,1.23428 -1.6762,0.46751 -3.4154,0.88604 -5.1716,1.24174 -0.075,0.016 -0.1487,0.0224 -0.2219,0.0224 z m -36.6224,0.56229 c -0.05,0 -0.1003,-0.003 -0.1499,-0.01 -1.7775,-0.24068 -3.5404,-0.5165 -5.238,-0.82109 -0.57,-0.10222 -0.945,-0.62193 -0.8369,-1.16186 0.1081,-0.5378 0.6567,-0.88924 1.2289,-0.79127 1.666,0.29925 3.3975,0.57188 5.1412,0.80618 0.5756,0.0777 0.9755,0.58146 0.8922,1.1246 -0.074,0.4952 -0.5238,0.85302 -1.0375,0.85302 z m 26.2229,0.87752 c -0.5418,0 -1.0003,-0.3919 -1.0465,-0.91053 -0.048,-0.54739 0.3819,-1.02768 0.9598,-1.07348 1.7561,-0.1395 3.4931,-0.32587 5.1614,-0.55485 0.5689,-0.0894 1.1074,0.29714 1.1906,0.84026 0.084,0.54314 -0.3142,1.04685 -0.8898,1.12567 -1.7089,0.23535 -3.4875,0.42598 -5.2864,0.56868 -0.03,0.003 -0.06,0.003 -0.089,0.003 z m -15.7581,0.11076 c -0.023,0 -0.043,-6.2e-4 -0.065,-0.003 -1.1917,-0.0682 -2.3791,-0.15017 -3.5641,-0.24709 -0.5723,-0.0458 -1.1456,-0.0958 -1.7179,-0.14908 -0.579,-0.0543 -1.0003,-0.54101 -0.9429,-1.08733 0.057,-0.54524 0.5701,-0.94355 1.1491,-0.8903 0.5643,0.0533 1.1276,0.10117 1.6897,0.14697 1.1682,0.0948 2.3397,0.17464 3.5134,0.24281 0.579,0.033 1.0217,0.50478 0.9845,1.05218 -0.033,0.52715 -0.4956,0.93395 -1.0464,0.93395 z m 7.3074,0.213 c -0.6916,0 -1.3844,-0.007 -2.0749,-0.0181 -0.5813,-0.01 -1.0432,-0.46325 -1.0319,-1.01171 0.01,-0.55058 0.4878,-1.00532 1.0702,-0.9755 1.7359,0.0278 3.4716,0.0212 5.2076,-0.0277 0.562,0.0107 1.0645,0.41639 1.0814,0.96379 0.018,0.54951 -0.4382,1.00744 -1.0195,1.02342 -1.0757,0.031 -2.1549,0.0459 -3.2329,0.0459 z m -25.6011,5.87536 c -0.4754,0 -0.9068,-0.3067 -1.0206,-0.76357 -0.41,-1.62726 -0.7457,-3.3003 -0.9992,-4.97229 -0.082,-0.54312 0.3176,-1.04685 0.8922,-1.12459 0.5723,-0.0757 1.1073,0.30031 1.1895,0.84344 0.2433,1.61236 0.5678,3.2247 0.962,4.79338 0.1341,0.53354 -0.2139,1.06921 -0.7795,1.19701 -0.081,0.0181 -0.1633,0.0266 -0.2444,0.0266 z m 3.3851,9.39825 c -0.4012,0 -0.783,-0.21725 -0.9587,-0.58466 -0.73,-1.52501 -1.3912,-3.11181 -1.9657,-4.7135 -0.187,-0.51863 0.107,-1.08307 0.6579,-1.25984 0.5474,-0.17679 1.1456,0.10116 1.3325,0.62194 0.5531,1.53992 1.1896,3.06494 1.8903,4.53245 0.2399,0.5016 0,1.08945 -0.525,1.31521 -0.1397,0.0608 -0.2872,0.0884 -0.4313,0.0884 z m 5.2617,8.58783 c -0.3257,0 -0.6467,-0.14272 -0.8528,-0.41004 -0.7626,-0.99785 -1.4959,-2.03193 -2.1764,-3.07665 -0.2534,-0.38978 -0.5012,-0.78274 -0.7434,-1.17784 -0.2907,-0.47391 -0.1194,-1.08199 0.383,-1.35676 0.5024,-0.27688 1.1467,-0.11394 1.4362,0.36208 0.232,0.37914 0.4709,0.75506 0.7153,1.13099 0.6522,1.00106 1.3563,1.99467 2.0885,2.951 0.3412,0.44514 0.2354,1.06709 -0.2343,1.3887 -0.187,0.1278 -0.4022,0.18852 -0.6161,0.18852 z m 6.9614,7.4302 c -0.2579,0 -0.5136,-0.0884 -0.7176,-0.26625 -1.3089,-1.15228 -2.5671,-2.37165 -3.741,-3.62404 -0.3863,-0.41002 -0.3457,-1.03835 0.089,-1.40149 0.4337,-0.36528 1.0983,-0.32802 1.4824,0.0841 1.1299,1.20339 2.3419,2.37698 3.6036,3.48773 0.4246,0.37274 0.4483,1.00213 0.051,1.40362 -0.2073,0.20979 -0.4878,0.3163 -0.7683,0.3163 z m 8.3111,6.06706 c -0.1938,0 -0.3886,-0.0501 -0.5633,-0.15442 -1.5083,-0.90628 -2.9828,-1.88392 -4.3831,-2.9052 -0.4584,-0.33654 -0.5429,-0.9606 -0.1892,-1.39511 0.356,-0.43449 1.0161,-0.51223 1.4757,-0.17891 1.3495,0.98508 2.7711,1.92758 4.2243,2.8019 0.4899,0.295 0.6342,0.90841 0.3233,1.37274 -0.2006,0.29712 -0.5419,0.459 -0.8877,0.459 z m 9.3294,4.56335 c -0.133,0 -0.2682,-0.0233 -0.3988,-0.0745 -1.6447,-0.63578 -3.2792,-1.35035 -4.8561,-2.12139 -0.516,-0.25239 -0.7188,-0.85089 -0.4507,-1.33866 0.2669,-0.48774 0.8978,-0.67623 1.4159,-0.42703 1.523,0.7444 3.1001,1.43343 4.6873,2.04684 0.5384,0.2098 0.7953,0.7902 0.5745,1.29711 -0.1657,0.38446 -0.5588,0.61768 -0.9721,0.61768 z m 10.039,2.91903 c -0.071,0 -0.1454,-0.007 -0.2174,-0.0212 -1.7337,-0.34613 -3.4774,-0.77211 -5.1818,-1.26838 -0.5553,-0.16186 -0.8662,-0.71884 -0.695,-1.24279 0.1701,-0.5261 0.757,-0.82002 1.3135,-0.65709 1.6435,0.47923 3.3241,0.89031 4.9958,1.22365 0.5678,0.11287 0.9328,0.64003 0.8122,1.17677 -0.1048,0.46752 -0.5407,0.78913 -1.0273,0.78913 z m 10.4321,1.12992 c -0.01,0 -0.013,0 -0.02,0 -1.7662,-0.031 -3.5652,-0.14376 -5.345,-0.33759 -0.5778,-0.0629 -0.9913,-0.55591 -0.9248,-1.10116 0.067,-0.54526 0.5925,-0.94036 1.1648,-0.87328 1.7133,0.18638 3.4447,0.29501 5.1422,0.32376 0.5813,0.01 1.0432,0.46326 1.0319,1.01278 -0.01,0.54205 -0.4776,0.97549 -1.0499,0.97549"
       style="fill:#6b50ad;fill-opacity:1;fill-rule:nonzero;stroke:none;stroke-width:0.10952782"
       id="path290"
       inkscape:connector-curvature="0" />
    <path
       d="m 896.77333,253.9799 c -0.5407,0 -1.0003,-0.39085 -1.0465,-0.91055 -0.048,-0.54738 0.3819,-1.02661 0.9609,-1.07241 0.8561,-0.0682 1.71,-0.15547 2.5627,-0.26517 0.57,-0.0703 1.105,0.30777 1.1828,0.8509 0.078,0.54419 -0.3256,1.04579 -0.9012,1.11927 -0.8876,0.11288 -1.7787,0.20448 -2.6697,0.27475 -0.03,0.003 -0.06,0.003 -0.089,0.003"
       style="fill:#6b50ad;fill-opacity:1;fill-rule:nonzero;stroke:none;stroke-width:0.10952782"
       id="path292"
       inkscape:connector-curvature="0" />
  </g>
</svg>
