<?xml version="1.0" encoding="UTF-8" standalone="no"?>
<!-- Created with Inkscape (http://www.inkscape.org/) -->

<svg
   xmlns:dc="http://purl.org/dc/elements/1.1/"
   xmlns:cc="http://creativecommons.org/ns#"
   xmlns:rdf="http://www.w3.org/1999/02/22-rdf-syntax-ns#"
   xmlns:svg="http://www.w3.org/2000/svg"
   xmlns="http://www.w3.org/2000/svg"
   xmlns:sodipodi="http://sodipodi.sourceforge.net/DTD/sodipodi-0.dtd"
   xmlns:inkscape="http://www.inkscape.org/namespaces/inkscape"
   width="1600px"
   height="900px"
   viewBox="0 0 1600 900"
   version="1.1"
   id="SVGRoot"
   inkscape:version="0.92.5 (2060ec1f9f, 2020-04-08)"
   sodipodi:docname="loading_bg.svg">
  <defs
     id="defs1480" />
  <sodipodi:namedview
     id="base"
     pagecolor="#ffffff"
     bordercolor="#666666"
     borderopacity="1.0"
     inkscape:pageopacity="0.0"
     inkscape:pageshadow="2"
     inkscape:zoom="0.7"
     inkscape:cx="634.01684"
     inkscape:cy="635.42733"
     inkscape:document-units="px"
     inkscape:current-layer="layer1"
     showgrid="false"
     inkscape:window-width="1366"
     inkscape:window-height="704"
     inkscape:window-x="0"
     inkscape:window-y="27"
     inkscape:window-maximized="1"
     showguides="false" />
  <metadata
     id="metadata1483">
    <rdf:RDF>
      <cc:Work
         rdf:about="">
        <dc:format>image/svg+xml</dc:format>
        <dc:type
           rdf:resource="http://purl.org/dc/dcmitype/StillImage" />
        <dc:title></dc:title>
      </cc:Work>
    </rdf:RDF>
  </metadata>
  <g
     inkscape:label="Layer 1"
     inkscape:groupmode="layer"
     id="layer1">
    <path
       d="m 350.60531,882.31574 c -2.61191,4.87307 -4.90683,12.08889 -6.80868,17.14816 51.60943,0 107.76158,0.0613 153.90088,0.0613 52.75417,-0.008 105.5066,-0.008 158.25889,-0.01 105.50472,-0.01 211.01111,-0.019 316.51575,-0.0272 210.65095,-0.0183 421.30155,-0.0339 631.95225,-0.0521 0.3605,0 0.7211,0 1.0814,0 0.05,-298.20571 0.1026,-596.40989 0.1523,-894.6140401 -125.5851,-22.7242759 -255.6924,28.0675521 -350.7877,97.8102301 -43.4005,31.82806 -82.8038,68.21778 -133.8443,91.60428 -51.0388,23.38806 -118.9228,31.07211 -166.72493,3.61988 -48.67312,-27.95537 -61.87042,-82.26052 -104.3381,-116.127122 -42.63445,-33.99906 -106.749,-43.193414 -164.05865,-33.404637 -57.83666,9.879254 -117.06989,49.50445 -135.1357,95.754029 -4.38153,11.21831 -6.04628,23.06987 -5.55534,34.82285 1.75148,41.88824 29.64541,78.34259 56.4437,112.83432 20.40986,26.26816 62.51537,44.098 68.91462,76.7822 3.84367,19.63733 -7.91717,39.55894 -25.04298,53.89807 -17.12771,14.34075 -39.16408,24.12306 -60.72755,33.85368 -61.95744,27.96266 -122.95656,57.29832 -182.89981,87.9666 -41.36469,21.16381 -102.59756,59.29161 -79.74255,105.48628 13.97964,28.255 54.93497,39.22621 83.6731,55.13378 15.54277,8.60152 29.72347,20.38522 33.61594,35.2267 4.49746,17.15121 -5.50455,34.48364 -16.5897,49.57857 -22.39674,30.50352 -54.55824,59.62144 -72.25284,92.65455"
       style="fill:#d8c8e8;fill-opacity:1;fill-rule:nonzero;stroke:none;stroke-width:0.17105015"
       id="path14"
       inkscape:connector-curvature="0" />
    <path
       d="m 1009.2545,301.05883 -61.78851,-12.70304 c -2.9575,-4.2937 -4.6163,-6.7014 -7.5753,-10.99636 l 13.6821,-56.69597 c 4.653,-2.72997 7.26,-4.26111 11.9131,-6.99106 l 61.78991,12.70304 c 2.9563,4.29497 4.6151,6.70265 7.574,10.9976 l -13.6807,56.69598 c -4.6531,2.72872 -7.2615,4.25985 -11.9146,6.98981"
       style="fill:#382d88;fill-opacity:1;fill-rule:nonzero;stroke:none;stroke-width:0.13052332"
       id="path16"
       inkscape:connector-curvature="0" />
    <path
       d="m 1011.8969,292.98055 -63.11031,-12.97516 14.057,-58.25471 63.11031,12.97517 -14.057,58.2547"
       style="fill:#6b50ad;fill-opacity:1;fill-rule:nonzero;stroke:none;stroke-width:0.13052332"
       id="path18"
       inkscape:connector-curvature="0" />
    <path
       d="m 1027.2758,226.37544 -1.3219,8.35041 8.8959,2.64719 z"
       style="fill:#6758b1;fill-opacity:1;fill-rule:nonzero;stroke:none;stroke-width:0.13052332"
       id="path20"
       inkscape:connector-curvature="0" />
    <path
       d="m 965.48589,213.6724 -2.6423,8.07828 -9.2708,-1.08722 z"
       style="fill:#6758b1;fill-opacity:1;fill-rule:nonzero;stroke:none;stroke-width:0.13052332"
       id="path22"
       inkscape:connector-curvature="0" />
    <path
       d="m 947.46599,288.35579 1.3206,-8.3504 -8.8959,-2.64596 z"
       style="fill:#6758b1;fill-opacity:1;fill-rule:nonzero;stroke:none;stroke-width:0.13052332"
       id="path24"
       inkscape:connector-curvature="0" />
    <path
       d="m 1009.2545,301.05883 2.6424,-8.07828 9.2722,1.08847 z"
       style="fill:#6758b1;fill-opacity:1;fill-rule:nonzero;stroke:none;stroke-width:0.13052332"
       id="path26"
       inkscape:connector-curvature="0" />
    <path
       d="m 1037.2843,369.85218 2.4141,-10.00693 c 27.6302,5.67937 54.5867,-8.25888 60.0917,-31.07295 5.8783,-24.36026 -8.3103,-45.13405 -34.502,-50.51876 l 2.4155,-10.00694 c 32.0579,6.58979 50.1118,32.98279 42.9277,62.75533 -6.835,28.33044 -39.7405,45.75981 -73.347,38.85025"
       style="fill:#6b50ad;fill-opacity:1;fill-rule:nonzero;stroke:none;stroke-width:0.13052332"
       id="path28"
       inkscape:connector-curvature="0" />
    <path
       d="m 1060.4896,254.43878 c -6.9488,-1.42832 -13.8503,0.94049 -18.176,5.61038 l 9.0181,1.85344 c 4.691,0.96432 7.6471,5.25677 6.6025,9.58685 -1.0447,4.33132 -5.6949,7.06004 -10.386,6.09571 l -9.0182,-1.85468 c 1.7702,5.92266 6.9287,10.77191 13.8777,12.2002 10.0206,2.06033 19.9516,-3.76704 22.1838,-13.01656 2.2307,-9.24826 -4.0826,-18.41501 -14.1019,-20.47534"
       style="fill:#f37036;fill-opacity:1;fill-rule:nonzero;stroke:none;stroke-width:0.13052332"
       id="path30"
       inkscape:connector-curvature="0" />
    <path
       d="m 1069.2063,274.18931 c 0.3109,-1.29162 -0.5707,-2.57321 -1.9714,-2.86162 -1.3993,-0.28718 -2.7878,0.52667 -3.1003,1.81956 -0.3123,1.29287 0.5693,2.57446 1.9713,2.86163 1.4007,0.28841 2.7878,-0.52668 3.1004,-1.81957"
       style="fill:#382d88;fill-opacity:1;fill-rule:nonzero;stroke:none;stroke-width:0.13052332"
       id="path32"
       inkscape:connector-curvature="0" />
    <path
       d="m 1047.373,380.85982 -10.5927,-2.17693 6.3839,-26.45446 10.5912,2.17821 -6.3824,26.45318"
       style="fill:#382d88;fill-opacity:1;fill-rule:nonzero;stroke:none;stroke-width:0.13052332"
       id="path34"
       inkscape:connector-curvature="0" />
    <path
       d="m 1039.3262,391.169 -10.5913,-2.17824 11.8832,-49.24843 10.5913,2.17819 -11.8832,49.24848"
       style="fill:#6b50ad;fill-opacity:1;fill-rule:nonzero;stroke:none;stroke-width:0.13052332"
       id="path36"
       inkscape:connector-curvature="0" />
    <path
       d="m 889.80339,340.96873 c -22.9745,-4.88057 -39.9047,-20.21955 -44.1842,-40.03152 -2.9535,-13.66111 1.2566,-30.48733 11.2583,-45.0112 10.4609,-15.18847 25.5435,-25.57163 41.3789,-28.48718 l 2.1737,10.0546 c -12.8792,2.37133 -25.3358,11.09417 -34.1799,23.9339 -8.5033,12.34943 -12.1455,26.36917 -9.7396,37.50471 3.4154,15.80296 17.1275,28.08215 35.7845,32.0448 l -2.4917,9.99189"
       style="fill:#6b50ad;fill-opacity:1;fill-rule:nonzero;stroke:none;stroke-width:0.13052332"
       id="path38"
       inkscape:connector-curvature="0" />
    <path
       d="m 899.63659,212.93754 c 6.7697,-3.54129 14.8044,-3.09738 20.9409,0.50913 l -8.7857,4.59467 c -4.5703,2.39138 -6.1761,7.74848 -3.5853,11.96696 2.5893,4.2197 8.3945,5.70194 12.9646,3.31056 l 8.7859,-4.59467 c 0.197,6.71142 -3.5173,13.30121 -10.287,16.84252 -9.7626,5.10629 -22.1594,1.94119 -27.6915,-7.06882 -5.5321,-9.01127 -2.1031,-20.45405 7.6581,-25.56035"
       style="fill:#f37036;fill-opacity:1;fill-rule:nonzero;stroke:none;stroke-width:0.13052332"
       id="path40"
       inkscape:connector-curvature="0" />
    <path
       d="m 929.60919,224.45807 c -2.5555,1.49854 -5.9437,0.80257 -7.5672,-1.55748 -1.6249,-2.35753 -0.8709,-5.48626 1.6846,-6.9848 2.5568,-1.49977 5.9436,-0.80254 7.5685,1.55623 1.6249,2.35877 0.8694,5.48626 -1.6859,6.98605 z m -3.4086,-14.3809 -9.2505,5.42732 0.466,10.11103 9.7205,4.68117 9.2504,-5.42857 -0.466,-10.10977 -9.7204,-4.68118"
       style="fill:#382d88;fill-opacity:1;fill-rule:nonzero;stroke:none;stroke-width:0.13052332"
       id="path42"
       inkscape:connector-curvature="0" />
    <path
       d="m 902.81709,233.99475 c 0.3124,-1.29285 -0.5706,-2.57446 -1.9713,-2.8616 -1.3993,-0.28844 -2.7878,0.52541 -3.1003,1.81829 -0.3124,1.29288 0.5706,2.57445 1.9713,2.86164 1.4007,0.28841 2.7891,-0.52669 3.1003,-1.81833"
       style="fill:#382d88;fill-opacity:1;fill-rule:nonzero;stroke:none;stroke-width:0.13052332"
       id="path44"
       inkscape:connector-curvature="0" />
    <path
       d="m 882.82049,319.26447 10.5913,2.17819 -6.3825,26.45319 -10.5926,-2.17694 6.3838,-26.45444"
       style="fill:#382d88;fill-opacity:1;fill-rule:nonzero;stroke:none;stroke-width:0.13052332"
       id="path46"
       inkscape:connector-curvature="0" />
    <path
       d="m 890.86579,308.95656 10.5927,2.17695 -11.8831,49.24845 -10.5928,-2.17696 11.8832,-49.24844"
       style="fill:#6b50ad;fill-opacity:1;fill-rule:nonzero;stroke:none;stroke-width:0.13052332"
       id="path48"
       inkscape:connector-curvature="0" />
    <path
       d="m 996.73939,448.92335 -105.9278,-21.77702 c -5.0702,-7.36225 -7.9137,-11.49043 -12.9839,-18.85393 l 23.4529,-97.19525 c 7.9774,-4.67995 12.4498,-7.30457 20.4258,-11.98451 l 105.92671,21.77702 c 5.0715,7.36224 7.9148,11.49041 12.985,18.85267 l -23.454,97.1965 c -7.9761,4.67994 -12.4485,7.30457 -20.42471,11.98452"
       style="fill:#f37036;fill-opacity:1;fill-rule:nonzero;stroke:none;stroke-width:0.13052332"
       id="path50"
       inkscape:connector-curvature="0" />
    <path
       d="m 1001.2716,435.07288 -108.19531,-22.24225 24.098,-99.86879 108.19411,22.2435 -24.0968,99.86754"
       style="fill:#f57b43;fill-opacity:1;fill-rule:nonzero;stroke:none;stroke-width:0.13052332"
       id="path52"
       inkscape:connector-curvature="0" />
    <path
       d="m 1027.6331,320.88966 -2.2647,14.31568 15.2497,4.53699 z"
       style="fill:#f57b43;fill-opacity:1;fill-rule:nonzero;stroke:none;stroke-width:0.13052332"
       id="path54"
       inkscape:connector-curvature="0" />
    <path
       d="m 921.70639,299.11264 -4.5321,13.8492 -15.8937,-1.86469 z"
       style="fill:#f57b43;fill-opacity:1;fill-rule:nonzero;stroke:none;stroke-width:0.13052332"
       id="path56"
       inkscape:connector-curvature="0" />
    <path
       d="m 890.81159,427.14633 2.2647,-14.3157 -15.2486,-4.53823 z"
       style="fill:#f57b43;fill-opacity:1;fill-rule:nonzero;stroke:none;stroke-width:0.13052332"
       id="path58"
       inkscape:connector-curvature="0" />
    <path
       d="m 996.73939,448.92335 4.53221,-13.85047 15.8925,1.86595 z"
       style="fill:#f57b43;fill-opacity:1;fill-rule:nonzero;stroke:none;stroke-width:0.13052332"
       id="path60"
       inkscape:connector-curvature="0" />
    <path
       d="m 944.45269,342.57386 c -3.0731,3.01837 -8.2151,3.16762 -11.4865,0.33107 -3.2701,-2.83655 -3.4318,-7.58296 -0.3587,-10.6026 3.0731,-3.01838 8.2152,-3.16762 11.4852,-0.33106 3.2714,2.83654 3.433,7.58296 0.36,10.60259 z m -10.6171,-19.49347 -11.1239,10.93115 4.6939,14.35708 15.8177,3.42843 11.1238,-10.93113 -4.6924,-14.35834 -15.8191,-3.42719"
       style="fill:#f2d264;fill-opacity:1;fill-rule:nonzero;stroke:none;stroke-width:0.13052332"
       id="path62"
       inkscape:connector-curvature="0" />
    <path
       d="m 979.43419,349.45207 c -1.963,1.92867 -5.248,2.02397 -7.3376,0.21192 -2.0895,-1.81203 -2.1913,-4.84295 -0.2281,-6.77161 1.9616,-1.92865 5.2466,-2.02397 7.3361,-0.21192 2.0895,1.81203 2.1915,4.84297 0.2296,6.77161 z m -6.7805,-12.451 -7.1066,6.9823 2.9969,9.17051 10.105,2.18949 7.1052,-6.9823 -2.9983,-9.17176 -10.1022,-2.18824"
       style="fill:#f2d264;fill-opacity:1;fill-rule:nonzero;stroke:none;stroke-width:0.13052332"
       id="path64"
       inkscape:connector-curvature="0" />
    <path
       d="m 1004.8556,355.70954 c -1.9632,1.92867 -5.24821,2.02396 -7.33771,0.21193 -2.0893,-1.81203 -2.1912,-4.84421 -0.2296,-6.77287 1.9646,-1.9274 5.24821,-2.0227 7.33751,-0.21067 2.0896,1.81204 2.1915,4.84296 0.2298,6.77161 z m -6.78071,-12.45098 -7.1066,6.98102 2.9983,9.17178 10.10361,2.18949 7.1053,-6.9823 -2.9969,-9.17049 -10.10371,-2.1895"
       style="fill:#f2d264;fill-opacity:1;fill-rule:nonzero;stroke:none;stroke-width:0.13052332"
       id="path66"
       inkscape:connector-curvature="0" />
    <path
       d="m 965.37049,293.21756 25.3874,5.21916 -1.3642,5.65305 -25.3872,-5.21917 1.364,-5.65304"
       style="fill:#f37036;fill-opacity:1;fill-rule:nonzero;stroke:none;stroke-width:0.13052332"
       id="path68"
       inkscape:connector-curvature="0" />
    <path
       d="m 963.67489,300.245 25.3874,5.21914 -1.3639,5.65305 -25.3874,-5.21916 1.3639,-5.65303"
       style="fill:#f37036;fill-opacity:1;fill-rule:nonzero;stroke:none;stroke-width:0.13052332"
       id="path70"
       inkscape:connector-curvature="0" />
    <path
       d="m 1005.1721,287.34506 -47.75321,-9.81759 2.9819,-12.35945 47.75201,9.81759 -2.9807,12.35945"
       style="fill:#382d88;fill-opacity:1;fill-rule:nonzero;stroke:none;stroke-width:0.13052332"
       id="path72"
       inkscape:connector-curvature="0" />
    <path
       d="m 1002.2865,284.83706 -41.10311,-8.45073 2.0853,-8.64258 41.10331,8.45071 -2.0855,8.6426"
       style="fill:#9d8acd;fill-opacity:1;fill-rule:nonzero;stroke:none;stroke-width:0.13052332"
       id="path74"
       inkscape:connector-curvature="0" />
    <path
       d="m 964.56349,274.77619 -1.6181,-0.33358 1.3884,-5.75084 1.6167,0.3323 -1.387,5.75212"
       style="fill:#382d88;fill-opacity:1;fill-rule:nonzero;stroke:none;stroke-width:0.13052332"
       id="path76"
       inkscape:connector-curvature="0" />
    <path
       d="m 966.33779,276.71863 -1.6167,-0.3323 1.387,-5.75211 1.6182,0.3323 -1.3885,5.75211"
       style="fill:#382d88;fill-opacity:1;fill-rule:nonzero;stroke:none;stroke-width:0.13052332"
       id="path78"
       inkscape:connector-curvature="0" />
    <path
       d="m 968.83899,275.65526 -1.6169,-0.33232 1.3886,-5.75211 1.6166,0.33231 -1.3883,5.75212"
       style="fill:#382d88;fill-opacity:1;fill-rule:nonzero;stroke:none;stroke-width:0.13052332"
       id="path80"
       inkscape:connector-curvature="0" />
    <path
       d="m 970.61579,277.5977 -1.618,-0.33232 1.3884,-5.75211 1.6168,0.33232 -1.3872,5.75211"
       style="fill:#382d88;fill-opacity:1;fill-rule:nonzero;stroke:none;stroke-width:0.13052332"
       id="path82"
       inkscape:connector-curvature="0" />
    <path
       d="m 973.11559,276.53431 -1.6167,-0.33232 1.3885,-5.75211 1.6167,0.33231 -1.3885,5.75212"
       style="fill:#382d88;fill-opacity:1;fill-rule:nonzero;stroke:none;stroke-width:0.13052332"
       id="path84"
       inkscape:connector-curvature="0" />
    <path
       d="m 974.89269,278.47676 -1.6169,-0.33233 1.3872,-5.75211 1.6181,0.33233 -1.3884,5.75211"
       style="fill:#382d88;fill-opacity:1;fill-rule:nonzero;stroke:none;stroke-width:0.13052332"
       id="path86"
       inkscape:connector-curvature="0" />
    <path
       d="m 977.39369,277.41336 -1.6181,-0.33231 1.3884,-5.75212 1.6167,0.33233 -1.387,5.7521"
       style="fill:#382d88;fill-opacity:1;fill-rule:nonzero;stroke:none;stroke-width:0.13052332"
       id="path88"
       inkscape:connector-curvature="0" />
    <path
       d="m 979.16929,279.3558 -1.618,-0.33229 1.3883,-5.75212 1.6169,0.3323 -1.3872,5.75211"
       style="fill:#382d88;fill-opacity:1;fill-rule:nonzero;stroke:none;stroke-width:0.13052332"
       id="path90"
       inkscape:connector-curvature="0" />
    <path
       d="m 981.67039,278.29241 -1.6167,-0.33232 1.3871,-5.7521 1.6181,0.33357 -1.3885,5.75085"
       style="fill:#382d88;fill-opacity:1;fill-rule:nonzero;stroke:none;stroke-width:0.13052332"
       id="path92"
       inkscape:connector-curvature="0" />
    <path
       d="m 983.44599,280.23486 -1.6167,-0.3323 1.3872,-5.7521 1.6167,0.33229 -1.3872,5.75211"
       style="fill:#382d88;fill-opacity:1;fill-rule:nonzero;stroke:none;stroke-width:0.13052332"
       id="path94"
       inkscape:connector-curvature="0" />
    <path
       d="m 985.93359,279.16897 -1.6167,-0.33233 1.3872,-5.75085 1.6179,0.33231 -1.3884,5.75087"
       style="fill:#382d88;fill-opacity:1;fill-rule:nonzero;stroke:none;stroke-width:0.13052332"
       id="path96"
       inkscape:connector-curvature="0" />
    <path
       d="m 987.70919,281.11141 -1.618,-0.3323 1.3883,-5.75211 1.6168,0.33355 -1.3871,5.75086"
       style="fill:#382d88;fill-opacity:1;fill-rule:nonzero;stroke:none;stroke-width:0.13052332"
       id="path98"
       inkscape:connector-curvature="0" />
    <path
       d="m 990.20899,280.04802 -1.6167,-0.3323 1.3884,-5.75088 1.618,0.33232 -1.3897,5.75086"
       style="fill:#382d88;fill-opacity:1;fill-rule:nonzero;stroke:none;stroke-width:0.13052332"
       id="path100"
       inkscape:connector-curvature="0" />
    <path
       d="m 991.98579,281.99047 -1.6167,-0.33231 1.3872,-5.75085 1.6182,0.3323 -1.3887,5.75086"
       style="fill:#382d88;fill-opacity:1;fill-rule:nonzero;stroke:none;stroke-width:0.13052332"
       id="path102"
       inkscape:connector-curvature="0" />
    <path
       d="m 994.48699,280.92834 -1.618,-0.33356 1.3884,-5.75086 1.6167,0.3323 -1.3871,5.75212"
       style="fill:#382d88;fill-opacity:1;fill-rule:nonzero;stroke:none;stroke-width:0.13052332"
       id="path104"
       inkscape:connector-curvature="0" />
    <path
       d="m 996.26409,282.86953 -1.6181,-0.33232 1.3884,-5.75085 1.6167,0.3323 -1.387,5.75087"
       style="fill:#382d88;fill-opacity:1;fill-rule:nonzero;stroke:none;stroke-width:0.13052332"
       id="path106"
       inkscape:connector-curvature="0" />
    <path
       d="m 998.76379,281.80739 -1.6167,-0.33231 1.3872,-5.75211 1.61801,0.33232 -1.38851,5.7521"
       style="fill:#382d88;fill-opacity:1;fill-rule:nonzero;stroke:none;stroke-width:0.13052332"
       id="path108"
       inkscape:connector-curvature="0" />
    <path
       d="m 1000.3749,279.17147 1.6833,0.3461 -0.216,1.47472 c 0.1997,-0.1417 0.3546,-0.34486 0.4131,-0.58938 l 0.3423,-1.41578 c 0.1332,-0.55551 -0.2459,-1.10728 -0.8477,-1.23018 l -0.2853,-0.059 c -0.6032,-0.12414 -1.1982,0.22698 -1.3327,0.78251 l -0.34241,1.41576 c -0.06,0.24581 -0.013,0.48781 0.1013,0.69472 l 0.48361,-1.41954"
       style="fill:#382d88;fill-opacity:1;fill-rule:nonzero;stroke:none;stroke-width:0.13052332"
       id="path110"
       inkscape:connector-curvature="0" />
    <path
       d="m 999.22159,284.82201 0.3912,-0.86652 0.93611,0.19188 -0.045,0.93672 z m 2.61531,-5.01476 -1.394,-0.28716 -1.89651,5.88127 2.30411,0.47401 0.9864,-6.06812"
       style="fill:#382d88;fill-opacity:1;fill-rule:nonzero;stroke:none;stroke-width:0.13052332"
       id="path112"
       inkscape:connector-curvature="0" />
    <path
       d="m 987.47949,256.00501 -10.4513,9.58184 15.508,3.18769 z"
       style="fill:#382d88;fill-opacity:1;fill-rule:nonzero;stroke:none;stroke-width:0.13052332"
       id="path114"
       inkscape:connector-curvature="0" />
    <path
       d="m 978.62049,241.96521 -9.2627,5.43609 -1.5352,-2.22835 9.2626,-5.4361 1.5353,2.22836"
       style="fill:#f2d264;fill-opacity:1;fill-rule:nonzero;stroke:none;stroke-width:0.13052332"
       id="path116"
       inkscape:connector-curvature="0" />
    <path
       d="m 971.48389,238.58567 5.8895,8.5498 -2.4143,1.417 -5.8893,-8.55103 2.4141,-1.41577"
       style="fill:#f2d264;fill-opacity:1;fill-rule:nonzero;stroke:none;stroke-width:0.13052332"
       id="path118"
       inkscape:connector-curvature="0" />
    <path
       d="m 974.96729,236.3385 c -4.3203,-0.88783 -8.6174,1.63271 -9.5792,5.62043 -0.9619,3.98647 1.7701,7.95289 6.0877,8.84073 4.3203,0.88782 8.6173,-1.63397 9.5792,-5.62045 0.9618,-3.98772 -1.7702,-7.95288 -6.0877,-8.84071 z m -3.6926,15.29882 c -4.8201,-0.99065 -7.8687,-5.41603 -6.7941,-9.86523 1.0732,-4.45047 5.8676,-7.26319 10.6878,-6.27253 4.8201,0.99193 7.8674,5.41731 6.7942,9.8665 -1.0734,4.44919 -5.8676,7.26318 -10.6879,6.27126"
       style="fill:#f3d0ea;fill-opacity:1;fill-rule:nonzero;stroke:none;stroke-width:0.13052332"
       id="path120"
       inkscape:connector-curvature="0" />
    <path
       d="m 975.51209,234.07753 c -5.6706,-1.16622 -11.3113,2.14309 -12.5734,7.3773 -1.2623,5.23296 2.3218,10.43957 7.9924,11.6058 5.6705,1.16496 11.31,-2.14435 12.5734,-7.37731 1.2634,-5.2342 -2.3219,-10.44082 -7.9924,-11.60579 z m -4.7821,19.82076 c -6.172,-1.26905 -10.0738,-6.93338 -8.7002,-12.63031 1.3747,-5.69693 7.5142,-9.29842 13.6848,-8.02938 6.1718,1.26904 10.0735,6.93463 8.6988,12.63031 -1.3749,5.69695 -7.5128,9.29844 -13.6834,8.02938"
       style="fill:#f3d0ea;fill-opacity:1;fill-rule:nonzero;stroke:none;stroke-width:0.13052332"
       id="path122"
       inkscape:connector-curvature="0" />
    <path
       d="m 1011.5057,248.72553 -9.2626,5.4361 -1.5353,-2.22836 9.2627,-5.4361 1.5352,2.22836"
       style="fill:#f2d264;fill-opacity:1;fill-rule:nonzero;stroke:none;stroke-width:0.13052332"
       id="path124"
       inkscape:connector-curvature="0" />
    <path
       d="m 1004.3691,245.34601 5.8893,8.54978 -2.414,1.41701 -5.8893,-8.54978 2.414,-1.41701"
       style="fill:#f2d264;fill-opacity:1;fill-rule:nonzero;stroke:none;stroke-width:0.13052332"
       id="path126"
       inkscape:connector-curvature="0" />
    <path
       d="m 1007.8511,243.09883 c -4.3188,-0.88784 -8.61461,1.63396 -9.57651,5.62044 -0.9618,3.98646 1.76891,7.95288 6.08641,8.84071 4.3201,0.88785 8.6159,-1.63397 9.5793,-5.62042 0.9618,-3.9865 -1.7689,-7.95291 -6.0892,-8.84073 z m -3.6912,15.29883 c -4.82011,-0.99067 -7.86731,-5.41603 -6.79401,-9.86525 1.0731,-4.44918 5.86761,-7.26192 10.68761,-6.27127 4.8202,0.99068 7.8675,5.41604 6.7941,9.86523 -1.0731,4.44922 -5.8675,7.26321 -10.6877,6.27129"
       style="fill:#f3d0ea;fill-opacity:1;fill-rule:nonzero;stroke:none;stroke-width:0.13052332"
       id="path128"
       inkscape:connector-curvature="0" />
    <path
       d="m 1008.3959,240.83786 c -5.6693,-1.16498 -11.31001,2.14436 -12.57201,7.37729 -1.2622,5.23421 2.3217,10.43959 7.99231,11.60581 5.6707,1.16622 11.3113,-2.14435 12.5735,-7.37729 1.2635,-5.23423 -2.3218,-10.43959 -7.9938,-11.60581 z m -4.782,19.82202 c -6.17061,-1.26905 -10.07241,-6.93463 -8.69881,-12.63156 1.3747,-5.6957 7.51391,-9.29719 13.68451,-8.02814 6.1706,1.2678 10.0738,6.93464 8.6989,12.63031 -1.3749,5.6957 -7.5129,9.29717 -13.6846,8.02939"
       style="fill:#f3d0ea;fill-opacity:1;fill-rule:nonzero;stroke:none;stroke-width:0.13052332"
       id="path130"
       inkscape:connector-curvature="0" />
    <path
       d="m 1033.0062,275.15992 -4.6204,-0.95054 3.6612,-15.17468 4.6218,0.95054 -3.6626,15.17468"
       style="fill:#382d88;fill-opacity:1;fill-rule:nonzero;stroke:none;stroke-width:0.13052332"
       id="path132"
       inkscape:connector-curvature="0" />
    <path
       d="m 1029.1181,281.22302 -4.6206,-0.94928 6.8159,-28.25144 4.6218,0.95054 -6.8171,28.25018"
       style="fill:#6b50ad;fill-opacity:1;fill-rule:nonzero;stroke:none;stroke-width:0.13052332"
       id="path134"
       inkscape:connector-curvature="0" />
    <path
       d="m 941.68939,240.45916 4.6205,0.94927 -3.6613,15.17594 -4.6217,-0.95052 3.6625,-15.17469"
       style="fill:#382d88;fill-opacity:1;fill-rule:nonzero;stroke:none;stroke-width:0.13052332"
       id="path136"
       inkscape:connector-curvature="0" />
    <path
       d="m 945.57759,234.39605 4.6205,0.94929 -6.8158,28.2514 -4.6218,-0.95052 6.8171,-28.25017"
       style="fill:#6b50ad;fill-opacity:1;fill-rule:nonzero;stroke:none;stroke-width:0.13052332"
       id="path138"
       inkscape:connector-curvature="0" />
    <path
       d="m 1005.1639,196.98538 c -0.069,-0.0126 -0.1399,-0.0288 -0.2105,-0.0425 -3.8148,-0.74614 -7.73831,-0.65082 -11.05191,0.26961 -0.3695,0.1028 -2.2078,0.66211 -1.8858,1.50857 0.2243,0.59314 1.3138,1.08344 3.0718,1.38693 4.1543,0.71101 8.30491,0.92043 12.33301,0.627 1.2064,-0.0903 2.5745,-0.2345 3.755,-0.62073 -0.2024,-0.33482 -0.4891,-0.67592 -0.8871,-1.01073 -1.1059,-0.93423 -2.8285,-1.64526 -5.1245,-2.11802 z m -0.951,7.31583 c -0.9957,-0.20438 -2.0134,-0.29341 -2.925,-0.35235 -3.63551,-0.23827 -6.33761,0.0352 -7.22881,0.72732 -0.2093,0.16427 -0.3098,0.34486 -0.3085,0.55678 0.1305,0.3812 2.2023,0.57559 3.3123,0.68092 0.3858,0.0352 0.7485,0.069 1.0678,0.10915 3.89081,0.48152 7.03871,0.37869 9.39301,-0.30349 -0.5203,-0.43762 -1.2513,-0.82512 -2.1113,-1.10476 -0.3912,-0.12665 -0.7933,-0.22949 -1.1995,-0.31352 z m -3.8283,4.60723 c -1.28251,-0.2646 -2.81781,-0.10409 -4.05121,0.12917 -0.61,0.1141 -1,0.40628 -1.0026,0.49783 0.1996,0.16303 0.47,0.21192 0.7144,0.2508 2.1263,0.33232 4.30671,0.42637 6.36641,0.27965 -0.1427,-0.19813 -0.3152,-0.37495 -0.5178,-0.52668 -0.421,-0.31477 -0.9401,-0.51415 -1.5092,-0.63077 z m -2.64791,7.11771 -1.7471,-0.35864 c 2.5514,-0.33105 5.55111,-1.65151 6.37711,-2.8215 0.4769,-0.67215 0.6031,-1.38066 0.3763,-2.10423 -2.1982,0.17557 -4.53901,0.084 -6.81461,-0.27336 -0.3612,-0.0563 -0.7648,-0.1367 -1.0678,-0.35989 -0.3926,-0.28968 -0.3804,-0.59816 -0.3397,-0.75618 0.1346,-0.5016 0.9212,-0.86651 1.5965,-0.99442 2.8677,-0.53922 4.98851,-0.31475 6.31311,0.67213 0.3572,0.26711 0.644,0.58815 0.8545,0.95808 0.012,-7.5e-4 0.024,-0.004 0.036,-0.004 1.7554,-0.18936 3.0271,-0.54048 3.8898,-1.07092 1.0052,-0.62073 1.3992,-1.54619 1.0039,-2.35878 -0.041,-0.0828 -0.091,-0.16803 -0.1468,-0.2508 -2.5078,0.78249 -5.8703,0.92044 -10.02061,0.40757 -0.3112,-0.0389 -0.6657,-0.0716 -1.0379,-0.10657 -1.8585,-0.17557 -3.781,-0.35363 -4.0745,-1.31419 -0.016,-0.48907 0.1726,-0.84269 0.5462,-1.13363 1.4577,-1.13361 5.5334,-1.05085 7.83481,-0.90162 1.3436,0.0854 2.9141,0.23827 4.3665,0.71227 1.0989,0.35864 2.0228,0.8828 2.6437,1.48224 0.2011,-0.0752 0.3939,-0.15551 0.5787,-0.24078 1.5039,-0.69221 2.5079,-1.87222 2.6845,-3.15382 0.049,-0.35988 0.045,-0.80256 -0.1098,-1.28284 -1.2661,0.41006 -2.694,0.56053 -3.9479,0.65334 -4.1096,0.30221 -8.34011,0.0865 -12.57351,-0.63702 -2.1545,-0.37622 -3.3963,-1.00197 -3.7292,-1.88353 -0.3641,-0.95681 0.5258,-1.8371 2.3829,-2.35376 3.4508,-0.95932 7.53461,-1.06089 11.49611,-0.28466 2.5323,0.48781 4.4982,1.29538 5.7575,2.35628 0.4361,0.3699 0.7866,0.77373 1.0448,1.20383 1.2416,-0.58812 2.0393,-1.57125 2.2091,-2.74126 0.1983,-1.3769 -0.481,-2.76883 -1.8613,-3.81843 -1.7689,-1.34305 -4.5729,-2.21959 -7.6935,-2.40015 l -0.5162,-0.0288 0.1236,-0.41632 c 0.6738,-2.26472 0.7512,-4.79405 0.8246,-7.23935 0.06,-1.96504 0.117,-3.82095 0.4661,-5.49755 l 0.8177,0.14922 c -0.3395,1.62644 -0.3953,3.45854 -0.4537,5.39597 -0.072,2.33872 -0.1453,4.75393 -0.735,6.97852 3.1085,0.25833 5.8936,1.17501 7.7072,2.55317 1.5704,1.19381 2.3721,2.8516 2.1438,4.43791 -0.2052,1.41953 -1.1861,2.60456 -2.7132,3.28799 0.1998,0.53923 0.2637,1.10478 0.1835,1.67785 -0.2066,1.49478 -1.3599,2.86164 -3.0825,3.65668 -0.1645,0.0752 -0.3342,0.14798 -0.5081,0.21694 0.062,0.0915 0.1145,0.18435 0.1601,0.2784 0.5408,1.1148 0.046,2.35502 -1.262,3.1626 -0.9537,0.58687 -2.3136,0.97437 -4.1531,1.18251 0.2514,0.87529 0.086,1.75562 -0.4808,2.55817 -0.9483,1.34305 -2.9482,2.39139 -5.34871,2.8052"
       style="fill:#f37036;fill-opacity:1;fill-rule:nonzero;stroke:none;stroke-width:0.13052332"
       id="path140"
       inkscape:connector-curvature="0" />
    <path
       d="m 1008.3021,178.25935 c 0.2691,-1.11482 -0.6017,-2.24216 -1.9454,-2.51802 -1.3422,-0.27716 -2.6505,0.40377 -2.9181,1.51857 -0.2691,1.11481 0.6004,2.24216 1.944,2.51805 1.3437,0.27588 2.6505,-0.40378 2.9195,-1.5186"
       style="fill:#f37036;fill-opacity:1;fill-rule:nonzero;stroke:none;stroke-width:0.13052332"
       id="path142"
       inkscape:connector-curvature="0" />
    <path
       d="m 1005.0104,222.89057 c 1.0922,-4.52695 -1.9985,-9.01503 -6.90281,-10.02325 -4.9044,-1.00822 -9.7666,1.84464 -10.859,6.3716 -1.0921,4.52694 16.66951,8.1786 17.76181,3.65165"
       style="fill:#6b50ad;fill-opacity:1;fill-rule:nonzero;stroke:none;stroke-width:0.13052332"
       id="path144"
       inkscape:connector-curvature="0" />
    <path
       d="m 1065.4959,200.09406 c -1.1071,2.82526 -1.0501,5.93016 -0.8722,8.33283 0.1984,2.68859 0.7405,6.03176 3.1777,8.02812 1.2473,1.02077 3.2279,1.4183 4.9288,0.98942 1.2391,-0.31225 2.1072,-1.01698 2.4455,-1.98634 0.3111,-0.88657 0.1698,-1.87724 -0.012,-2.7287 -1.0895,-5.17652 -4.7536,-9.93422 -9.6688,-12.63533 z m -14.3692,6.18348 c -0.9455,3.51496 -0.5489,7.32713 1.1288,10.60511 0.894,1.74431 2.0024,2.97699 3.2986,3.66545 1.5433,0.82012 3.4492,0.79002 4.6313,-0.0716 1.349,-0.9844 1.5949,-2.78389 1.6221,-3.76955 0.1109,-4.08051 -2.5895,-8.04944 -6.5646,-9.65079 -1.3054,-0.52543 -2.7076,-0.77246 -4.1162,-0.77872 z m -9.1242,15.06308 c -0.1642,-0.009 -0.3219,-0.0854 -0.4224,-0.21945 -2.7497,-3.67171 -2.368,-8.99622 0.8857,-12.38829 1.9699,-2.04904 4.842,-3.25288 7.805,-3.44851 0.029,-0.0854 0.055,-0.17056 0.086,-0.25581 1.2973,-3.7733 4.7017,-7.6143 9.3833,-7.68956 1.599,-0.0238 3.2972,0.40255 5.2073,1.30417 1.4088,-2.73747 3.8081,-4.71004 6.5714,-5.35711 3.1696,-0.74237 6.8675,0.30223 9.6512,2.72496 2.7713,2.4127 4.2862,5.74458 5.1828,8.04192 1.4129,3.6178 2.3368,7.39235 2.7443,11.22081 0.031,0.28216 -0.1928,0.5317 -0.4972,0.56055 -0.3084,0.03 -0.5775,-0.17934 -0.6072,-0.46022 -0.3995,-3.7432 -1.3016,-7.43624 -2.6846,-10.97252 -0.8585,-2.19828 -2.3013,-5.3822 -4.9017,-7.64443 -2.5106,-2.18446 -5.8105,-3.13248 -8.6146,-2.4779 -2.4195,0.56682 -4.6054,2.39515 -5.8676,4.85677 5.3215,2.85911 9.1526,7.80615 10.3304,13.3965 0.208,0.98063 0.3669,2.13181 -0.021,3.24035 -0.4578,1.31044 -1.5976,2.2547 -3.2102,2.66099 -2.046,0.51664 -4.4411,0.03 -5.9587,-1.21261 -2.7401,-2.24342 -3.3351,-5.84115 -3.5511,-8.72411 -0.1863,-2.54813 -0.2419,-5.8587 0.9984,-8.90593 -1.773,-0.84771 -3.323,-1.24898 -4.7536,-1.22767 -4.0742,0.0665 -7.1567,3.60402 -8.3156,6.89576 1.4468,0.0313 2.8963,0.31351 4.2441,0.85775 4.3786,1.76438 7.3526,6.12832 7.2303,10.61639 -0.054,2.01141 -0.78,3.62658 -2.042,4.54701 -1.5297,1.11483 -3.9426,1.18003 -5.8758,0.15675 -1.4956,-0.79503 -2.7564,-2.18071 -3.7481,-4.11563 -1.7389,-3.39583 -2.186,-7.33091 -1.2799,-10.98884 -2.5431,0.2483 -4.9803,1.31671 -6.6731,3.07983 -2.8787,2.99957 -3.232,7.88518 -0.8057,11.12427 0.1752,0.23324 0.1109,0.55176 -0.1411,0.71354 -0.1062,0.0677 -0.2298,0.0965 -0.3492,0.0903"
       style="fill:#6b50ad;fill-opacity:1;fill-rule:nonzero;stroke:none;stroke-width:0.13052332"
       id="path146"
       inkscape:connector-curvature="0" />
    <path
       d="m 946.09929,185.83979 c -0.049,-0.004 -0.1013,-0.004 -0.1535,-7.1e-4 -0.5475,0.0162 -1.0841,0.27336 -1.5379,0.52291 -2.7715,1.52737 -4.831,4.20216 -5.5238,7.11897 1.7892,-0.0577 3.5104,-0.66462 4.8363,-1.2026 1.5434,-0.62573 3.4032,-1.54743 4.0894,-3.13374 0.3341,-0.77122 0.1821,-1.81455 -0.3668,-2.53686 -0.212,-0.27838 -0.6575,-0.72856 -1.3437,-0.76745 z m 4.8079,6.40923 c -0.5543,-0.0313 -1.1058,0.0966 -1.459,0.20438 -2.4019,0.73611 -4.1926,2.84659 -4.3542,5.13014 -0.051,0.68593 0.057,1.37814 0.2949,2.03273 2.194,-0.24829 4.2903,-1.18503 5.8497,-2.63089 0.8411,-0.77873 1.341,-1.55999 1.4891,-2.32117 0.1697,-0.87781 -0.1888,-1.76312 -0.8695,-2.15437 -0.292,-0.16805 -0.6221,-0.24203 -0.951,-0.26082 z m -0.5434,12.16005 c -0.682,-0.0389 -1.3599,-0.17307 -2.0025,-0.41006 -1.6384,-0.60317 -2.9575,-1.82457 -3.7074,-3.30053 -0.012,0 -0.013,7.5e-4 -0.022,7.5e-4 -2.622,0.10032 -5.721,-0.92672 -6.7467,-3.41843 -0.3274,-0.79629 -0.4266,-1.72552 -0.2975,-2.83029 -1.9046,-0.22572 -3.5443,-1.08096 -4.4913,-2.37132 -1.1263,-1.54116 -1.2458,-3.72939 -0.3112,-5.71324 0.9211,-1.95123 2.6532,-3.42217 3.8773,-4.35765 1.9169,-1.46467 4.0254,-2.7074 6.2712,-3.69304 0.2771,-0.1204 0.6085,-0.0126 0.7404,0.24326 0.1317,0.25583 0.013,0.56181 -0.2636,0.68345 -2.1629,0.94801 -4.1952,2.14433 -6.0388,3.55509 -1.1357,0.87028 -2.7429,2.22836 -3.5676,3.97896 -0.7838,1.66406 -0.7037,3.47609 0.2133,4.73009 0.758,1.03457 2.152,1.74182 3.7401,1.92993 0.7147,-3.29177 2.9455,-6.22866 6.081,-7.95542 0.5407,-0.2972 1.2647,-0.64329 2.069,-0.66837 0.9456,-0.02 1.8395,0.41005 2.4439,1.20509 0.765,1.0057 0.962,2.41396 0.4892,3.5062 -0.8355,1.93115 -2.937,2.98704 -4.6734,3.69178 -1.4728,0.5969 -3.4101,1.27533 -5.4695,1.29413 -0.117,0.96433 -0.043,1.75309 0.2255,2.40768 0.7812,1.89732 3.2374,2.75004 5.3175,2.76132 -0.216,-0.69722 -0.3085,-1.42956 -0.2568,-2.16315 0.1928,-2.68858 2.2958,-5.17149 5.1135,-6.03553 1.2907,-0.39498 2.4795,-0.33856 3.3475,0.15801 1.0745,0.61822 1.6263,1.90609 1.3762,3.20523 -0.1874,0.97185 -0.792,1.93619 -1.7946,2.8654 -1.656,1.53615 -3.8556,2.55315 -6.1734,2.88297 0.6562,1.09848 1.6861,2.00138 2.9182,2.45533 2.296,0.8427 5.1979,0.0752 6.6107,-1.74683 0.1794,-0.23198 0.5272,-0.28216 0.7744,-0.11913 0.2501,0.16428 0.3085,0.48404 0.1291,0.71479 -1.3258,1.71421 -3.649,2.64342 -5.9219,2.51301"
       style="fill:#6b50ad;fill-opacity:1;fill-rule:nonzero;stroke:none;stroke-width:0.13052332"
       id="path148"
       inkscape:connector-curvature="0" />
    <path
       d="m 824.20303,473.74507 c -19.89613,0 -36.02363,-14.88752 -36.02363,-33.25114 0,-18.36363 16.1275,-33.25115 36.02363,-33.25115 19.89456,0 36.02356,14.88752 36.02356,33.25115 0,18.36362 -16.129,33.25114 -36.02356,33.25114 z m 66.60856,-46.59874 h -8.8673 c -1.4373,-5.31447 -3.7116,-10.32296 -6.6896,-14.90008 l 6.2725,-5.78971 c 2.0814,-1.91988 2.0814,-5.03483 0,-6.95598 l -12.9129,-11.91928 c -2.0815,-1.92112 -5.4562,-1.92112 -7.5374,0 l -6.271,5.78974 c -4.9574,-2.74879 -10.385,-4.84673 -16.1438,-6.17471 v -8.18488 c 0,-2.71744 -2.3858,-4.91947 -5.3296,-4.91947 h -18.26037 c -2.94406,0 -5.32961,2.20203 -5.32961,4.91947 v 8.18488 c -5.75895,1.32798 -11.18503,3.42592 -16.14245,6.17471 l -6.27249,-5.78974 c -2.08126,-1.92112 -5.45587,-1.92112 -7.53713,0 l -12.91305,11.91928 c -2.08005,1.92115 -2.08005,5.0361 0,6.95598 l 6.27381,5.78971 c -2.9794,4.57712 -5.2523,9.58561 -6.68953,14.90008 h -8.86872 c -2.94261,0 -5.32828,2.20328 -5.32828,4.91943 v 16.85633 c 0,2.71743 2.38567,4.91945 5.32828,4.91945 h 8.86872 c 1.43723,5.31571 3.71013,10.32421 6.68953,14.90006 l -6.27381,5.78973 c -2.08005,1.92114 -2.08005,5.03608 0,6.95596 l 12.91305,11.9193 c 2.08126,1.92239 5.45587,1.92239 7.53713,0 l 6.27249,-5.78848 c 4.95742,2.74751 10.3835,4.84673 16.14245,6.17347 v 8.18613 c 0,2.71617 2.38555,4.91818 5.32961,4.91818 h 18.26037 c 2.9438,0 5.3296,-2.20201 5.3296,-4.91818 v -8.18613 c 5.7588,-1.32674 11.1864,-3.42596 16.1438,-6.17347 l 6.271,5.78848 c 2.0812,1.92239 5.4559,1.92239 7.5374,0 l 12.9129,-11.9193 c 2.0814,-1.91988 2.0814,-5.03482 0,-6.95596 l -6.2725,-5.78973 c 2.978,-4.57585 5.2523,-9.58435 6.6896,-14.90006 h 8.8673 c 2.944,0 5.3296,-2.20202 5.3296,-4.91945 v -16.85633 c 0,-2.71615 -2.3856,-4.91943 -5.3296,-4.91943"
       style="fill:#6b50ad;fill-opacity:1;fill-rule:nonzero;stroke:none;stroke-width:0.13052332"
       id="path160"
       inkscape:connector-curvature="0" />
    <path
       d="m 1006.2265,524.33032 c -31.74141,0 -57.47251,-23.75083 -57.47251,-53.04934 0,-29.29855 25.7311,-53.04936 57.47251,-53.04936 31.7412,0 57.471,23.75081 57.471,53.04936 0,29.29851 -25.7298,53.04934 -57.471,53.04934 z m 106.2676,-74.34359 h -14.148 c -2.2933,-8.48081 -5.9207,-16.47257 -10.6715,-23.77211 l 10.0071,-9.23701 c 3.3203,-3.06477 3.3203,-8.03439 0,-11.09792 l -20.6011,-19.0157 c -3.3203,-3.06602 -8.7029,-3.06602 -12.0245,0 l -10.0071,9.23573 c -7.9083,-4.38525 -16.565,-7.73343 -25.7528,-9.85019 v -13.05918 c 0,-4.33384 -3.8081,-7.84756 -8.5033,-7.84756 h -29.13431 c -4.6965,0 -8.5018,3.51372 -8.5018,7.84756 v 13.05918 c -9.188,2.11676 -17.846,5.46494 -25.7542,9.85019 l -10.0071,-9.23573 c -3.3204,-3.06602 -8.7029,-3.06602 -12.0246,0 l -20.6012,19.0157 c -3.3203,3.06353 -3.3203,8.03315 0,11.09792 l 10.0071,9.23701 c -4.7507,7.29954 -8.3781,15.2913 -10.6713,23.77211 h -14.1481 c -4.6951,0 -8.5018,3.51372 -8.5018,7.84755 v 26.89334 c 0,4.33386 3.8067,7.84757 8.5018,7.84757 h 14.1481 c 2.2932,8.48082 5.9206,16.47131 10.6713,23.77088 l -10.0071,9.23825 c -3.3203,3.06352 -3.3203,8.03314 0,11.09791 l 20.6012,19.01571 c 3.3217,3.06478 8.7042,3.06478 12.0246,0 l 10.0071,-9.23573 c 7.9082,4.38526 16.5662,7.73344 25.7542,9.85018 v 13.05795 c 0,4.33508 3.8053,7.8488 8.5018,7.8488 h 29.13431 c 4.6952,0 8.5033,-3.51372 8.5033,-7.8488 v -13.05795 c 9.1878,-2.11674 17.8445,-5.46492 25.7528,-9.85018 l 10.0071,9.23573 c 3.3216,3.06478 8.7042,3.06478 12.0245,0 l 20.6011,-19.01571 c 3.3203,-3.06477 3.3203,-8.03439 0,-11.09791 l -10.0071,-9.23825 c 4.7508,-7.29957 8.3782,-15.29006 10.6715,-23.77088 h 14.148 c 4.6951,0 8.5017,-3.51371 8.5017,-7.84757 v -26.89334 c 0,-4.33383 -3.8066,-7.84755 -8.5017,-7.84755"
       style="fill:#f57b43;fill-opacity:1;fill-rule:nonzero;stroke:none;stroke-width:0.13052332"
       id="path174"
       inkscape:connector-curvature="0" />
    <path
       d="M 477.20852,369.24251 H 137.29753 V 176.7375 c 0,-9.06859 7.52579,-16.42082 16.80841,-16.42082 h 306.29512 c 9.28166,0 16.80746,7.35223 16.80746,16.42082 v 192.50501"
       style="fill:#382d88;fill-opacity:1;fill-rule:nonzero;stroke:none;stroke-width:0.0959928"
       id="path176"
       inkscape:connector-curvature="0" />
    <path
       d="M 461.07406,351.20495 H 153.43199 V 175.61602 h 307.64207 v 175.58893"
       style="fill:#fbd6fc;fill-opacity:1;fill-rule:nonzero;stroke:none;stroke-width:0.0959928"
       id="path178"
       inkscape:connector-curvature="0" />
    <path
       d="M 539.5735,420.76973 H 74.93253 l 62.365,-51.52722 h 339.91099 l 62.36498,51.52722"
       style="fill:#9d8acd;fill-opacity:1;fill-rule:nonzero;stroke:none;stroke-width:0.0959928"
       id="path180"
       inkscape:connector-curvature="0" />
    <path
       d="M 522.98162,440.35953 H 91.52537 c -9.16415,0 -16.59284,-7.25735 -16.59284,-16.2102 v -3.3796 H 539.5735 v 3.3796 c 0,8.95285 -7.4277,16.2102 -16.59188,16.2102"
       style="fill:#382d88;fill-opacity:1;fill-rule:nonzero;stroke:none;stroke-width:0.0959928"
       id="path182"
       inkscape:connector-curvature="0" />
    <path
       d="m 181.56056,383.18033 h -18.81492 c -0.58463,0 -0.86923,-0.69926 -0.4447,-1.09207 l 5.87269,-5.42996 c 0.11949,-0.11195 0.27882,-0.17269 0.44487,-0.17269 h 17.97285 c 0.56126,0 0.85664,0.64993 0.4797,1.05602 l -5.02975,5.43091 c -0.12329,0.13188 -0.29719,0.20779 -0.48074,0.20779"
       style="fill:#fef3fa;fill-opacity:1;fill-rule:nonzero;stroke:none;stroke-width:0.0959928"
       id="path184"
       inkscape:connector-curvature="0" />
    <path
       d="m 211.35085,383.18033 h -18.99846 c -0.55067,0 -0.84871,-0.62716 -0.49626,-1.03894 l 4.66075,-5.42995 c 0.12337,-0.14327 0.30408,-0.22583 0.49634,-0.22583 h 18.15735 c 0.52152,0 0.82836,0.57118 0.53419,0.99055 l -3.81971,5.42997 c -0.12148,0.17078 -0.32055,0.2742 -0.5342,0.2742"
       style="fill:#fef3fa;fill-opacity:1;fill-rule:nonzero;stroke:none;stroke-width:0.0959928"
       id="path186"
       inkscape:connector-curvature="0" />
    <path
       d="m 241.12365,383.18033 h -19.1509 c -0.5079,0 -0.81767,-0.54557 -0.55066,-0.96588 l 3.44967,-5.43091 c 0.1176,-0.18502 0.32538,-0.29793 0.54877,-0.29793 h 18.31184 c 0.47385,0 0.78759,0.48104 0.58653,0.90042 l -2.60864,5.42996 c -0.10587,0.22201 -0.33503,0.36434 -0.58661,0.36434"
       style="fill:#fef3fa;fill-opacity:1;fill-rule:nonzero;stroke:none;stroke-width:0.0959928"
       id="path188"
       inkscape:connector-curvature="0" />
    <path
       d="m 270.87515,383.18033 h -19.26453 c -0.45746,0 -0.77207,-0.45353 -0.60015,-0.86815 l 2.23851,-5.43092 c 0.0982,-0.23909 0.33607,-0.39565 0.60024,-0.39565 h 18.42254 c 0.42048,0 0.73034,0.38617 0.62731,0.78561 l -1.39558,5.43091 c -0.0724,0.28085 -0.33219,0.4782 -0.62834,0.4782"
       style="fill:#fef3fa;fill-opacity:1;fill-rule:nonzero;stroke:none;stroke-width:0.0959928"
       id="path190"
       inkscape:connector-curvature="0" />
    <path
       d="m 300.59739,383.18033 h -19.32367 c -0.4041,0 -0.70913,-0.35865 -0.63619,-0.74671 l 1.02658,-5.4309 c 0.056,-0.30079 0.32434,-0.51711 0.63704,-0.51711 h 18.48178 c 0.36513,0 0.65947,0.29509 0.64688,0.65279 l -0.18459,5.42994 c -0.0121,0.34062 -0.29822,0.61199 -0.64783,0.61199"
       style="fill:#fef3fa;fill-opacity:1;fill-rule:nonzero;stroke:none;stroke-width:0.0959928"
       id="path192"
       inkscape:connector-curvature="0" />
    <path
       d="m 330.28966,383.18033 h -19.3229 c -0.3496,0 -0.63601,-0.27137 -0.64765,-0.61199 l -0.18459,-5.42994 c -0.0121,-0.3577 0.28072,-0.65279 0.64679,-0.65279 h 18.48178 c 0.31271,0 0.5798,0.21632 0.63705,0.51711 l 1.02562,5.4309 c 0.0742,0.38806 -0.23114,0.74671 -0.6361,0.74671"
       style="fill:#fef3fa;fill-opacity:1;fill-rule:nonzero;stroke:none;stroke-width:0.0959928"
       id="path194"
       inkscape:connector-curvature="0" />
    <path
       d="m 359.95365,383.18033 h -19.26453 c -0.29718,0 -0.55549,-0.19735 -0.62731,-0.4782 l -1.39661,-5.43091 c -0.10294,-0.39944 0.20589,-0.78561 0.6274,-0.78561 h 18.42246 c 0.2652,0 0.50212,0.15656 0.60023,0.39565 l 2.2386,5.43092 c 0.17088,0.41462 -0.14174,0.86815 -0.60024,0.86815"
       style="fill:#fef3fa;fill-opacity:1;fill-rule:nonzero;stroke:none;stroke-width:0.0959928"
       id="path196"
       inkscape:connector-curvature="0" />
    <path
       d="m 389.59247,383.18033 h -19.15288 c -0.25055,0 -0.47876,-0.14233 -0.58653,-0.36434 l -2.60674,-5.42996 c -0.20192,-0.41938 0.11173,-0.90042 0.58566,-0.90042 h 18.31081 c 0.22348,0 0.43221,0.11291 0.5498,0.29793 l 3.44959,5.43091 c 0.26701,0.42031 -0.0431,0.96588 -0.54971,0.96588"
       style="fill:#fef3fa;fill-opacity:1;fill-rule:nonzero;stroke:none;stroke-width:0.0959928"
       id="path198"
       inkscape:connector-curvature="0" />
    <path
       d="m 419.21283,383.18033 h -18.99941 c -0.21365,0 -0.41375,-0.10342 -0.53411,-0.2742 l -3.81877,-5.42997 c -0.29529,-0.41937 0.0121,-0.99055 0.53221,-0.99055 h 18.1583 c 0.1914,0 0.37306,0.0826 0.49531,0.22583 l 4.66178,5.42995 c 0.35358,0.41178 0.0535,1.03894 -0.49531,1.03894"
       style="fill:#fef3fa;fill-opacity:1;fill-rule:nonzero;stroke:none;stroke-width:0.0959928"
       id="path200"
       inkscape:connector-curvature="0" />
    <path
       d="m 448.81863,383.18033 h -18.81492 c -0.18355,0 -0.35736,-0.0759 -0.47979,-0.20779 l -5.0307,-5.43091 c -0.37789,-0.40609 -0.0819,-1.05602 0.47979,-1.05602 h 17.97276 c 0.16519,0 0.32443,0.0608 0.44487,0.17269 l 5.87278,5.42996 c 0.42435,0.39281 0.13984,1.09207 -0.44479,1.09207"
       style="fill:#fef3fa;fill-opacity:1;fill-rule:nonzero;stroke:none;stroke-width:0.0959928"
       id="path202"
       inkscape:connector-curvature="0" />
    <path
       d="m 172.16138,393.32581 h -20.38724 c -0.58566,0 -0.87018,-0.69833 -0.44479,-1.09113 l 6.98091,-6.45561 c 0.11941,-0.11101 0.27969,-0.17362 0.44479,-0.17362 h 19.38592 c 0.56136,0 0.85759,0.65087 0.4798,1.0579 l -5.9796,6.45371 c -0.12243,0.13283 -0.29719,0.20875 -0.47979,0.20875"
       style="fill:#fef3fa;fill-opacity:1;fill-rule:nonzero;stroke:none;stroke-width:0.0959928"
       id="path204"
       inkscape:connector-curvature="0" />
    <path
       d="m 204.21553,393.32581 h -20.57182 c -0.54963,0 -0.84871,-0.62717 -0.49626,-1.03894 l 5.54058,-6.45466 c 0.12347,-0.14327 0.30504,-0.22676 0.49644,-0.22676 h 19.57042 c 0.52152,0 0.82931,0.57117 0.53411,0.99054 l -4.54134,6.45561 c -0.12036,0.17173 -0.31943,0.27421 -0.53213,0.27421"
       style="fill:#fef3fa;fill-opacity:1;fill-rule:nonzero;stroke:none;stroke-width:0.0959928"
       id="path206"
       inkscape:connector-curvature="0" />
    <path
       d="m 236.25219,393.32581 h -20.72521 c -0.50695,0 -0.81775,-0.54462 -0.54971,-0.96683 l 4.10035,-6.45372 c 0.11751,-0.1869 0.32633,-0.29981 0.55066,-0.29981 h 19.72294 c 0.47496,0 0.78862,0.48199 0.58661,0.90135 l -3.09998,6.45467 c -0.10682,0.22295 -0.33512,0.36434 -0.58566,0.36434"
       style="fill:#fef3fa;fill-opacity:1;fill-rule:nonzero;stroke:none;stroke-width:0.0959928"
       id="path208"
       inkscape:connector-curvature="0" />
    <path
       d="m 161.21893,405.13642 h -22.21691 c -0.58567,0 -0.87026,-0.69832 -0.44488,-1.09207 l 8.36399,-7.73364 c 0.11941,-0.11195 0.27874,-0.17363 0.44479,-0.17363 h 21.01851 c 0.5604,0 0.85664,0.64993 0.4797,1.05697 l -7.16541,7.73458 c -0.12337,0.13188 -0.29718,0.20779 -0.47979,0.20779"
       style="fill:#fef3fa;fill-opacity:1;fill-rule:nonzero;stroke:none;stroke-width:0.0959928"
       id="path210"
       inkscape:connector-curvature="0" />
    <path
       d="m 195.90793,405.13642 h -22.40245 c -0.54867,0 -0.84879,-0.62716 -0.49531,-1.03799 l 6.63907,-7.73554 c 0.12337,-0.14231 0.30399,-0.22581 0.49531,-0.22581 h 21.20301 c 0.52152,0 0.82853,0.57024 0.53316,0.99055 l -5.43963,7.73459 c -0.12035,0.17173 -0.31951,0.2742 -0.53316,0.2742"
       style="fill:#fef3fa;fill-opacity:1;fill-rule:nonzero;stroke:none;stroke-width:0.0959928"
       id="path212"
       inkscape:connector-curvature="0" />
    <path
       d="m 230.57943,405.13642 h -22.55487 c -0.50704,0 -0.81673,-0.54462 -0.54972,-0.96588 l 4.91328,-7.73458 c 0.11846,-0.18597 0.32633,-0.29888 0.54963,-0.29888 h 21.35552 c 0.47497,0 0.78862,0.48199 0.58662,0.90136 l -3.71376,7.73364 c -0.10785,0.22295 -0.33615,0.36434 -0.5867,0.36434"
       style="fill:#fef3fa;fill-opacity:1;fill-rule:nonzero;stroke:none;stroke-width:0.0959928"
       id="path214"
       inkscape:connector-curvature="0" />
    <path
       d="m 268.26651,393.32581 h -20.83685 c -0.4585,0 -0.7712,-0.45355 -0.60119,-0.8691 l 2.66106,-6.45466 c 0.098,-0.2391 0.33599,-0.3966 0.60024,-0.3966 h 19.83649 c 0.42056,0 0.73042,0.38711 0.62739,0.78654 l -1.66078,6.45562 c -0.0724,0.28084 -0.33107,0.4782 -0.62636,0.4782"
       style="fill:#fef3fa;fill-opacity:1;fill-rule:nonzero;stroke:none;stroke-width:0.0959928"
       id="path216"
       inkscape:connector-curvature="0" />
    <path
       d="M 369.00133,405.13642 H 242.56199 c -0.45832,0 -0.77112,-0.45258 -0.60015,-0.8691 l 3.18741,-7.73363 c 0.0991,-0.23911 0.33701,-0.39661 0.60023,-0.39661 h 120.06531 c 0.26416,0 0.50212,0.1575 0.60023,0.39661 l 3.1875,7.73363 c 0.17088,0.41652 -0.14183,0.8691 -0.60119,0.8691"
       style="fill:#fef3fa;fill-opacity:1;fill-rule:nonzero;stroke:none;stroke-width:0.0959928"
       id="path218"
       inkscape:connector-curvature="0" />
    <path
       d="m 300.25167,393.32581 h -20.89514 c -0.404,0 -0.70996,-0.35865 -0.63711,-0.74766 l 1.2208,-6.45466 c 0.056,-0.29982 0.32434,-0.51804 0.6361,-0.51804 h 19.8958 c 0.36616,0 0.65947,0.29697 0.6468,0.65372 l -0.22046,6.45466 c -0.0112,0.34157 -0.29719,0.61198 -0.64679,0.61198"
       style="fill:#fef3fa;fill-opacity:1;fill-rule:nonzero;stroke:none;stroke-width:0.0959928"
       id="path220"
       inkscape:connector-curvature="0" />
    <path
       d="m 332.20771,393.32581 h -20.89505 c -0.34874,0 -0.63524,-0.27041 -0.64688,-0.61198 l -0.22054,-6.45466 c -0.0121,-0.35675 0.28072,-0.65372 0.64688,-0.65372 h 19.89581 c 0.31175,0 0.57876,0.21822 0.6361,0.51804 l 1.22082,6.45466 c 0.0724,0.38901 -0.23218,0.74766 -0.63714,0.74766"
       style="fill:#fef3fa;fill-opacity:1;fill-rule:nonzero;stroke:none;stroke-width:0.0959928"
       id="path222"
       inkscape:connector-curvature="0" />
    <path
       d="m 364.13461,393.32581 h -20.8359 c -0.29719,0 -0.55549,-0.19736 -0.62843,-0.4782 l -1.65966,-6.45562 c -0.10191,-0.39943 0.20692,-0.78654 0.62834,-0.78654 h 19.83468 c 0.26512,0 0.50204,0.1575 0.6011,0.3966 l 2.66011,6.45466 c 0.17191,0.41555 -0.14174,0.8691 -0.60024,0.8691"
       style="fill:#fef3fa;fill-opacity:1;fill-rule:nonzero;stroke:none;stroke-width:0.0959928"
       id="path224"
       inkscape:connector-curvature="0" />
    <path
       d="m 396.03642,393.32581 h -20.72425 c -0.25063,0 -0.47893,-0.14139 -0.58567,-0.36434 l -3.1011,-6.45467 c -0.20105,-0.41936 0.11269,-0.90135 0.5867,-0.90135 h 19.72484 c 0.2233,0 0.43125,0.11291 0.54963,0.29981 l 4.10052,6.45372 c 0.26701,0.42221 -0.0431,0.96683 -0.55067,0.96683"
       style="fill:#fef3fa;fill-opacity:1;fill-rule:nonzero;stroke:none;stroke-width:0.0959928"
       id="path226"
       inkscape:connector-curvature="0" />
    <path
       d="m 427.91961,393.32581 h -20.56984 c -0.21373,0 -0.4128,-0.10248 -0.53419,-0.27421 l -4.54031,-6.45561 c -0.29529,-0.41937 0.0121,-0.99054 0.5342,-0.99054 h 19.57034 c 0.19234,0 0.37305,0.0835 0.49643,0.22676 l 5.53963,6.45466 c 0.3534,0.41177 0.0543,1.03894 -0.49626,1.03894"
       style="fill:#fef3fa;fill-opacity:1;fill-rule:nonzero;stroke:none;stroke-width:0.0959928"
       id="path228"
       inkscape:connector-curvature="0" />
    <path
       d="m 433.73221,400.09641 h -21.62073 c -0.21364,0 -0.4128,-0.10343 -0.53316,-0.27421 l -1.89485,-2.69457 c -0.29624,-0.42031 0.0121,-0.99055 0.53324,-0.99055 h 21.2031 c 0.19123,0 0.3728,0.0835 0.49617,0.22581 l 2.31154,2.69459 c 0.3534,0.41177 0.0543,1.03893 -0.49531,1.03893"
       style="fill:#fef3fa;fill-opacity:1;fill-rule:nonzero;stroke:none;stroke-width:0.0959928"
       id="path230"
       inkscape:connector-curvature="0" />
    <path
       d="m 438.05775,405.13642 h -22.40141 c -0.2127,0 -0.41177,-0.10247 -0.53221,-0.2742 l -2.11816,-3.01054 c -0.2952,-0.41936 0.0121,-0.99055 0.53411,-0.99055 h 21.93438 c 0.19123,0 0.37194,0.0826 0.49531,0.22677 l 2.58433,3.01053 c 0.35348,0.41083 0.0534,1.03799 -0.49635,1.03799"
       style="fill:#fef3fa;fill-opacity:1;fill-rule:nonzero;stroke:none;stroke-width:0.0959928"
       id="path232"
       inkscape:connector-curvature="0" />
    <path
       d="m 472.56225,405.13642 h -22.21691 c -0.18166,0 -0.3565,-0.0759 -0.47979,-0.20779 l -2.78823,-3.01054 c -0.37685,-0.40704 -0.0819,-1.05696 0.47971,-1.05696 h 21.75074 c 0.16416,0 0.32443,0.0626 0.44488,0.17364 l 3.25448,3.00958 c 0.42539,0.39375 0.14079,1.09207 -0.44488,1.09207"
       style="fill:#fef3fa;fill-opacity:1;fill-rule:nonzero;stroke:none;stroke-width:0.0959928"
       id="path234"
       inkscape:connector-curvature="0" />
    <path
       d="m 403.5398,405.13642 h -22.55496 c -0.25158,0 -0.47885,-0.14139 -0.58558,-0.36434 l -1.44619,-3.00957 c -0.20192,-0.41939 0.11268,-0.90138 0.5867,-0.90138 h 22.08776 c 0.22433,0 0.43125,0.11386 0.54963,0.29888 l 1.91235,3.01053 c 0.26805,0.42126 -0.0431,0.96588 -0.54971,0.96588"
       style="fill:#fef3fa;fill-opacity:1;fill-rule:nonzero;stroke:none;stroke-width:0.0959928"
       id="path236"
       inkscape:connector-curvature="0" />
    <path
       d="m 459.79013,393.32581 h -20.3862 c -0.18364,0 -0.3584,-0.0759 -0.48083,-0.20875 l -5.98046,-6.45371 c -0.37598,-0.40703 -0.081,-1.0579 0.47962,-1.0579 h 19.38696 c 0.1651,0 0.32443,0.0626 0.44488,0.17362 l 6.98082,6.45561 c 0.42444,0.3928 0.13984,1.09113 -0.44479,1.09113"
       style="fill:#fef3fa;fill-opacity:1;fill-rule:nonzero;stroke:none;stroke-width:0.0959928"
       id="path238"
       inkscape:connector-curvature="0" />
    <path
       d="m 694.52845,159.34898 70.94258,11.08538 -5.65982,21.9927 z"
       style="fill:#382d88;fill-opacity:1;fill-rule:nonzero;stroke:none;stroke-width:0.13052332"
       id="path272"
       inkscape:connector-curvature="0" />
    <path
       d="m 694.52845,159.34898 59.44108,16.65065 5.84168,16.42743 z"
       style="fill:#6b50ad;fill-opacity:1;fill-rule:nonzero;stroke:none;stroke-width:0.13052332"
       id="path274"
       inkscape:connector-curvature="0" />
    <path
       d="m 694.52845,159.34898 88.32665,-1.35183 -17.38407,12.43721 z"
       style="fill:#9d8acd;fill-opacity:1;fill-rule:nonzero;stroke:none;stroke-width:0.13052332"
       id="path276"
       inkscape:connector-curvature="0" />
    <path
       d="m 694.52845,159.34898 59.44108,16.65065 -22.05892,13.57458 z"
       style="fill:#9d8acd;fill-opacity:1;fill-rule:nonzero;stroke:none;stroke-width:0.13052332"
       id="path278"
       inkscape:connector-curvature="0" />
    <path
       d="m 1111.0553,409.74201 -56.0063,-13.64229 -4.664,19.04954 z"
       style="fill:#382d88;fill-opacity:1;fill-rule:nonzero;stroke:none;stroke-width:0.13052332"
       id="path280"
       inkscape:connector-curvature="0" />
    <path
       d="m 1111.0553,409.74201 -49.8657,-5.65053 -10.8046,11.05778 z"
       style="fill:#6b50ad;fill-opacity:1;fill-rule:nonzero;stroke:none;stroke-width:0.13052332"
       id="path282"
       inkscape:connector-curvature="0" />
    <path
       d="m 1111.0553,409.74201 -63.6823,-28.88219 7.676,15.2399 z"
       style="fill:#9d8acd;fill-opacity:1;fill-rule:nonzero;stroke:none;stroke-width:0.13052332"
       id="path284"
       inkscape:connector-curvature="0" />
    <path
       d="m 1111.0553,409.74201 -49.8657,-5.65053 10.6198,17.60619 z"
       style="fill:#9d8acd;fill-opacity:1;fill-rule:nonzero;stroke:none;stroke-width:0.13052332"
       id="path286"
       inkscape:connector-curvature="0" />
    <path
       d="m 1040.8651,374.21451 c -0.3559,0 -0.7105,-0.13794 -0.9618,-0.40629 -0.7038,-0.75743 -1.3926,-1.53615 -2.0447,-2.31866 -0.4279,-0.51163 -0.3247,-1.24523 0.2309,-1.64023 0.5531,-0.39752 1.3478,-0.30222 1.7785,0.21193 0.633,0.75865 1.2864,1.49852 1.9576,2.21958 0.4565,0.4903 0.3967,1.23017 -0.1345,1.65026 -0.2391,0.19062 -0.5324,0.28341 -0.826,0.28341"
       style="fill:#6b50ad;fill-opacity:1;fill-rule:nonzero;stroke:none;stroke-width:0.13052332"
       id="path288"
       inkscape:connector-curvature="0" />
    <path
       d="m 879.73919,153.63449 c -0.6249,0 -1.1698,-0.42636 -1.2553,-1.01573 -0.093,-0.63957 0.3954,-1.22894 1.0895,-1.31424 2.137,-0.26331 4.3013,-0.43637 6.4328,-0.51286 0.6901,-0.0287 1.2893,0.4778 1.3165,1.12359 0.028,0.64454 -0.5163,1.19005 -1.2173,1.21513 -2.0515,0.0739 -4.1369,0.2395 -6.1964,0.49408 -0.057,0.008 -0.1146,0.009 -0.1698,0.009 z m 18.9586,0.18058 c -0.066,0 -0.1344,-0.004 -0.201,-0.0151 -2.0257,-0.29847 -4.1043,-0.50537 -6.1761,-0.61824 -0.6982,-0.0376 -1.2334,-0.59063 -1.1914,-1.23519 0.041,-0.64581 0.6345,-1.12984 1.3381,-1.09976 2.1575,0.1154 4.3218,0.33107 6.4288,0.64205 0.6915,0.1028 1.1629,0.70349 1.0529,1.34179 -0.099,0.57433 -0.6386,0.9844 -1.2513,0.9844 z m -31.3065,2.4202 c -0.5354,0 -1.0312,-0.31349 -1.2051,-0.80757 -0.216,-0.61445 0.1481,-1.27532 0.8138,-1.4747 2.0487,-0.61571 4.1422,-1.14867 6.2209,-1.58631 0.6819,-0.14798 1.3626,0.24829 1.5174,0.87904 0.1563,0.62953 -0.2703,1.25778 -0.9537,1.40073 -2.0053,0.42385 -4.024,0.93801 -6.0007,1.5324 -0.1304,0.0388 -0.2623,0.0564 -0.3926,0.0564 z m 43.4248,0.90917 c -0.1807,0 -0.3627,-0.0365 -0.5366,-0.11033 -1.7906,-0.77245 -3.7265,-1.44334 -5.7548,-1.99511 -0.6712,-0.18182 -1.0543,-0.83265 -0.8586,-1.45214 0.1997,-0.61946 0.9074,-0.9756 1.5745,-0.79251 2.1493,0.58434 4.2062,1.29789 6.1122,2.11925 0.6344,0.27464 0.9075,0.97061 0.6127,1.55497 -0.216,0.42636 -0.6739,0.67591 -1.1494,0.67591 z m -55.0731,3.68302 c -0.4523,0 -0.8898,-0.22447 -1.1181,-0.61698 -0.3316,-0.57057 -0.099,-1.27909 0.5176,-1.58382 1.8856,-0.93423 3.8434,-1.80198 5.816,-2.58073 0.6453,-0.25332 1.3898,0.0226 1.6643,0.61823 0.2744,0.59315 -0.023,1.28032 -0.6672,1.53489 -1.9046,0.75115 -3.7944,1.58883 -5.6148,2.4892 -0.1902,0.0953 -0.3966,0.13921 -0.5978,0.13921 z m 65.1673,3.2466 c -0.3682,0 -0.7323,-0.14671 -0.9823,-0.43013 -1.2063,-1.36185 -2.6831,-2.63214 -4.3882,-3.77454 -0.565,-0.37996 -0.6901,-1.11232 -0.2798,-1.63523 0.4116,-0.52165 1.2037,-0.63953 1.7715,-0.25957 1.8803,1.26152 3.5147,2.67103 4.8597,4.18837 0.4428,0.5016 0.3627,1.23771 -0.1808,1.64649 -0.2336,0.17808 -0.5177,0.26461 -0.8001,0.26461 z m -75.7396,3.19144 c -0.3723,0 -0.7404,-0.14923 -0.9904,-0.43891 -0.4374,-0.50535 -0.3504,-1.2402 0.197,-1.64399 1.6683,-1.23395 3.4263,-2.41271 5.2209,-3.50494 0.5856,-0.35489 1.3722,-0.20691 1.7567,0.33357 0.3858,0.53922 0.2241,1.26528 -0.36,1.62016 -1.7322,1.05339 -3.425,2.1895 -5.0322,3.37828 -0.235,0.17181 -0.5135,0.25583 -0.792,0.25583 z m 80.1276,7.55788 c -0.6751,0 -1.2363,-0.49158 -1.2661,-1.12109 -0.062,-1.42455 -0.2881,-2.78137 -0.6671,-4.03037 -0.1372,-0.45018 -0.2948,-0.8916 -0.47,-1.32297 -0.2458,-0.60443 0.084,-1.28033 0.739,-1.50731 0.6562,-0.22823 1.3884,0.0778 1.6343,0.68219 0.2012,0.49533 0.3819,0.99943 0.538,1.51859 0.4307,1.42205 0.6875,2.9582 0.7609,4.56206 0.029,0.64582 -0.5135,1.1913 -1.2146,1.21764 -0.017,7.3e-4 -0.036,7.3e-4 -0.054,7.3e-4 z m -89.2204,0.58059 c -0.2894,0 -0.5802,-0.0915 -0.8179,-0.2784 -0.5351,-0.41758 -0.6018,-1.15617 -0.148,-1.649 1.3761,-1.49853 2.8624,-2.9632 4.418,-4.35389 0.5026,-0.45018 1.3056,-0.43891 1.7932,0.0251 0.4864,0.46522 0.4729,1.20509 -0.03,1.65528 -1.4957,1.33802 -2.925,2.74627 -4.2468,4.18713 -0.2501,0.27335 -0.6087,0.41383 -0.9687,0.41383 z m -7.1731,9.6295 c -0.2052,0 -0.4131,-0.0464 -0.6073,-0.1442 -0.6141,-0.30975 -0.8396,-1.02078 -0.5028,-1.58759 1.0164,-1.71297 2.1275,-3.38705 3.3068,-4.97588 l 0.084,-0.1141 c 0.3995,-0.53045 1.1888,-0.66464 1.7634,-0.29471 0.5762,0.36868 0.7187,1.09727 0.3206,1.62894 l -0.07,0.0928 c -1.1384,1.53489 -2.2062,3.14128 -3.1818,4.78654 -0.2308,0.38873 -0.6656,0.60819 -1.1139,0.60819 z m 94.3979,1.29162 c -0.1305,0 -0.2636,-0.0187 -0.3953,-0.059 -0.6643,-0.20064 -1.0284,-0.86275 -0.8084,-1.47597 0.5407,-1.52108 0.9823,-3.07981 1.315,-4.63226 0.062,-0.29095 0.121,-0.58187 0.1753,-0.87279 0.1169,-0.63705 0.7702,-1.05588 1.4619,-0.95807 0.69,0.10786 1.1547,0.71227 1.0379,1.34931 -0.059,0.3135 -0.1209,0.62575 -0.1875,0.93424 -0.3519,1.6465 -0.8219,3.29803 -1.3938,4.90816 -0.1753,0.49407 -0.6712,0.80632 -1.2051,0.80632 z m -99.36897,9.45893 c -0.1276,0 -0.25676,-0.0175 -0.38581,-0.0552 -0.66706,-0.19687 -1.03526,-0.85524 -0.82192,-1.47093 0.65476,-1.89858 1.41155,-3.77959 2.24709,-5.59037 0.27583,-0.59439 1.01891,-0.87152 1.66281,-0.61697 0.6453,0.25332 0.9443,0.9405 0.6697,1.53616 -0.8054,1.74181 -1.5337,3.55386 -2.16547,5.3822 -0.17114,0.49657 -0.66971,0.81509 -1.2064,0.81509 z m 93.84097,1.03834 c -0.2392,0 -0.481,-0.0614 -0.6956,-0.19187 -0.5841,-0.35614 -0.7486,-1.08095 -0.3627,-1.62141 1.1412,-1.60391 2.171,-3.2692 3.0621,-4.95083 0.3056,-0.5806 1.0611,-0.82638 1.6955,-0.53796 0.6292,0.28216 0.8899,0.98313 0.5815,1.56373 -0.9361,1.77066 -2.0202,3.52375 -3.2198,5.2104 -0.2432,0.34232 -0.648,0.52794 -1.061,0.52794 z m -132.58832,8.61748 c -0.27316,0 -0.54754,-0.0828 -0.77982,-0.24827 -1.70763,-1.23144 -3.35568,-2.53937 -4.8976,-3.88866 -0.5081,-0.44519 -0.52981,-1.18504 -0.0482,-1.65405 0.47964,-0.46899 1.28383,-0.49029 1.79193,-0.0438 1.48355,1.29665 3.069,2.55691 4.71416,3.74068 0.55164,0.39879 0.64945,1.13363 0.2201,1.64276 -0.25121,0.29595 -0.62364,0.45144 -1.00125,0.45144 z m 124.45882,0.33483 c -0.3357,0 -0.6699,-0.12038 -0.9184,-0.36115 -0.4838,-0.46899 -0.4646,-1.20885 0.041,-1.65527 1.5066,-1.328 2.9357,-2.73124 4.2468,-4.17082 0.4497,-0.49408 1.2498,-0.55679 1.7852,-0.1417 0.5365,0.41507 0.6072,1.15368 0.1562,1.64775 -1.3708,1.5048 -2.8639,2.97072 -4.4384,4.35766 -0.2459,0.21694 -0.5597,0.32353 -0.8735,0.32353 z m -88.43121,1.42707 c -0.0531,0 -0.10733,-0.004 -0.16172,-0.0106 -0.6942,-0.0816 -1.18602,-0.66712 -1.09762,-1.30793 0.27015,-1.96878 0.6398,-3.94259 1.09894,-5.87123 0.14955,-0.62952 0.83012,-1.02453 1.50936,-0.89034 0.68334,0.13668 1.11679,0.76116 0.96591,1.39319 -0.44153,1.85842 -0.79875,3.76325 -1.05829,5.66307 -0.082,0.59064 -0.62763,1.02327 -1.25658,1.02327 z m -25.39964,4.59089 c -0.20237,0 -0.40752,-0.0452 -0.59783,-0.13918 -1.91278,-0.94678 -3.78081,-1.96127 -5.5497,-3.0159 -0.58819,-0.3511 -0.758,-1.07466 -0.37762,-1.61641 0.38039,-0.54423 1.16419,-0.69845 1.75262,-0.34984 1.71306,1.02075 3.51982,2.00262 5.37302,2.92056 0.61677,0.30472 0.84772,1.01324 0.51751,1.5838 -0.22806,0.39376 -0.66549,0.61697 -1.118,0.61697 z m 103.82225,1.14491 c -0.4211,0 -0.8341,-0.19562 -1.0746,-0.55051 -0.3708,-0.54673 -0.1915,-1.2703 0.4008,-1.61266 1.7594,-1.01573 3.4738,-2.12051 5.0973,-3.28046 0.5515,-0.39502 1.349,-0.30473 1.7797,0.20942 0.4279,0.51039 0.3261,1.24523 -0.2269,1.64148 -1.6887,1.2076 -3.4752,2.35629 -5.3038,3.41339 -0.2092,0.12039 -0.4429,0.17934 -0.6725,0.17934 z m -92.25285,3.62156 c -0.14532,0 -0.29342,-0.0226 -0.43743,-0.0728 -2.03374,-0.68968 -4.03612,-1.43708 -5.95312,-2.22332 -0.63992,-0.26461 -0.92648,-0.95555 -0.64258,-1.54618 0.28523,-0.5919 1.03527,-0.85649 1.67362,-0.59441 1.86538,0.76621 3.81494,1.49478 5.79706,2.16818 0.65621,0.22321 0.9945,0.89535 0.75257,1.5023 -0.18874,0.474 -0.67381,0.76618 -1.19012,0.76618 z m 80.91425,1.58381 c -0.5081,0 -0.9876,-0.28467 -1.1819,-0.74864 -0.2526,-0.60192 0.07,-1.27909 0.7255,-1.51233 1.1534,-0.41383 2.2932,-0.85021 3.3856,-1.30166 0.7757,-0.31978 1.5486,-0.65334 2.3122,-1.00446 0.629,-0.28966 1.3885,-0.0528 1.6995,0.52669 0.3125,0.57935 0.055,1.2816 -0.5719,1.56876 -0.7948,0.3649 -1.5976,0.71226 -2.4047,1.04582 -1.1302,0.46775 -2.3122,0.92045 -3.5063,1.34681 -0.1508,0.0539 -0.3057,0.079 -0.458,0.079 z m -68.7768,1.79321 c -0.0989,0 -0.19984,-0.0106 -0.3003,-0.0326 -2.10442,-0.47152 -4.18568,-0.99193 -6.18686,-1.54495 -0.66983,-0.18684 -1.05154,-0.83892 -0.84905,-1.4584 0.20105,-0.61948 0.9061,-0.96935 1.57858,-0.78375 1.84633,0.51161 3.76333,0.99316 5.70456,1.43331 -0.0579,-1.07968 -0.0868,-2.17695 -0.0868,-3.2629 0,-0.82388 0.0169,-1.64526 0.0482,-2.46662 0.0253,-0.64582 0.61689,-1.1725 1.31386,-1.1261 0.6995,0.0238 1.24572,0.56806 1.22123,1.21262 -0.0326,0.79127 -0.0482,1.58631 -0.0482,2.3801 0,1.12234 0.0326,2.25595 0.0941,3.367 0.0374,0.64582 -0.49978,1.19632 -1.19952,1.23018 -0.0121,0 -0.0205,0 -0.0314,0.004 0,0.0515 -0.0157,0.1028 -0.0302,0.15425 -0.1399,0.5367 -0.65741,0.89536 -1.22944,0.89536 z m 56.6287,1.52739 c -0.5842,0 -1.1099,-0.37495 -1.2377,-0.92421 -0.1466,-0.63201 0.288,-1.254 0.9728,-1.38943 2.0555,-0.40755 4.092,-0.88532 6.051,-1.41954 0.6724,-0.18559 1.3775,0.17056 1.5746,0.79129 0.1997,0.62074 -0.1835,1.2703 -0.856,1.45338 -2.0215,0.5505 -4.1191,1.04333 -6.2371,1.46217 -0.091,0.0188 -0.1793,0.0264 -0.2676,0.0264 z m -44.168,0.66211 c -0.06,0 -0.121,-0.004 -0.1808,-0.0118 -2.1438,-0.2834 -4.2699,-0.60818 -6.31725,-0.96684 -0.68744,-0.12037 -1.1397,-0.73234 -1.00933,-1.36811 0.13037,-0.63327 0.792,-1.04709 1.48208,-0.93173 2.0093,0.35237 4.0975,0.67339 6.2005,0.94929 0.6942,0.0915 1.1765,0.68467 1.076,1.32423 -0.089,0.5831 -0.6317,1.00444 -1.2512,1.00444 z m 31.6258,1.03329 c -0.6535,0 -1.2064,-0.46147 -1.2621,-1.07216 -0.058,-0.64456 0.4605,-1.21011 1.1575,-1.26404 2.1179,-0.16426 4.2128,-0.38372 6.2249,-0.65335 0.6861,-0.10527 1.3355,0.34989 1.4359,0.98942 0.1013,0.63956 -0.379,1.23268 -1.0732,1.3255 -2.061,0.27712 -4.206,0.50159 -6.3756,0.66963 -0.036,0.004 -0.072,0.004 -0.1073,0.004 z m -19.0049,0.13042 c -0.028,0 -0.052,-7.3e-4 -0.078,-0.004 -1.4372,-0.0803 -2.8693,-0.17683 -4.2984,-0.29095 -0.6902,-0.0539 -1.3817,-0.11281 -2.0719,-0.17555 -0.6983,-0.0639 -1.2064,-0.63704 -1.1371,-1.28034 0.069,-0.64203 0.6875,-1.11105 1.3858,-1.04835 0.6806,0.0628 1.3599,0.11913 2.0379,0.17306 1.4088,0.11163 2.8217,0.20564 4.2372,0.28592 0.6983,0.0389 1.2323,0.59438 1.1874,1.23895 -0.04,0.62073 -0.5977,1.09974 -1.262,1.09974 z m 8.813,0.25081 c -0.8341,0 -1.6696,-0.008 -2.5024,-0.0213 -0.7011,-0.0118 -1.2581,-0.54548 -1.2445,-1.1913 0.012,-0.64832 0.5883,-1.18378 1.2907,-1.14867 2.0936,0.0327 4.1869,0.025 6.2806,-0.0326 0.6778,0.0126 1.2838,0.49031 1.3042,1.13488 0.022,0.64706 -0.5285,1.18628 -1.2296,1.20509 -1.2973,0.0365 -2.5989,0.054 -3.899,0.054 z m -30.87589,6.91833 c -0.57335,0 -1.09363,-0.36115 -1.23088,-0.89912 -0.49447,-1.91612 -0.89934,-3.88615 -1.20507,-5.85494 -0.0989,-0.63954 0.38304,-1.23269 1.07602,-1.32423 0.69022,-0.0891 1.33545,0.35362 1.43459,0.99317 0.29343,1.89857 0.68479,3.79713 1.16021,5.64427 0.16173,0.62825 -0.25798,1.25901 -0.94011,1.4095 -0.0977,0.0213 -0.19695,0.0313 -0.29476,0.0313 z m 4.08259,11.06657 c -0.4839,0 -0.94436,-0.25581 -1.15626,-0.68844 -0.8804,-1.79572 -1.67784,-3.6642 -2.37071,-5.55022 -0.22552,-0.61069 0.12905,-1.27533 0.79346,-1.48348 0.66018,-0.20817 1.38163,0.11912 1.60704,0.73234 0.66707,1.81328 1.43467,3.60902 2.27977,5.33703 0.2893,0.59064 0,1.28285 -0.6332,1.54868 -0.1684,0.0716 -0.3463,0.10409 -0.5201,0.10409 z m 6.3458,10.1123 c -0.3928,0 -0.78,-0.16806 -1.0285,-0.48283 -0.9198,-1.17498 -1.8041,-2.39263 -2.6248,-3.6228 -0.3057,-0.45897 -0.6045,-0.92169 -0.8966,-1.38692 -0.3506,-0.55804 -0.144,-1.27406 0.4619,-1.59761 0.6059,-0.32603 1.383,-0.13416 1.7321,0.42636 0.2798,0.44644 0.5679,0.88909 0.8627,1.33175 0.7866,1.17877 1.6357,2.34876 2.5188,3.47485 0.4115,0.52416 0.2839,1.25651 -0.2826,1.63521 -0.2255,0.15049 -0.485,0.22199 -0.743,0.22199 z m 8.3957,8.74917 c -0.311,0 -0.6194,-0.10409 -0.8655,-0.31351 -1.5785,-1.35683 -3.096,-2.79266 -4.5117,-4.26736 -0.4659,-0.48281 -0.417,-1.22268 0.1073,-1.65028 0.5231,-0.43012 1.3246,-0.38625 1.7878,0.099 1.3627,1.41701 2.8244,2.79893 4.3461,4.10685 0.5121,0.43891 0.5407,1.18003 0.062,1.65279 -0.25,0.24703 -0.5883,0.37244 -0.9266,0.37244 z m 10.0235,7.14405 c -0.2337,0 -0.4687,-0.059 -0.6794,-0.18183 -1.819,-1.06716 -3.5973,-2.21834 -5.2861,-3.42092 -0.5529,-0.39628 -0.6548,-1.13112 -0.2282,-1.64276 0.4293,-0.51162 1.2254,-0.60316 1.7797,-0.21067 1.6276,1.15995 3.3421,2.26976 5.0947,3.29928 0.5908,0.34737 0.7649,1.06967 0.3899,1.61642 -0.2419,0.34987 -0.6536,0.54048 -1.0706,0.54048 z m 11.2516,5.37341 c -0.1604,0 -0.3235,-0.0274 -0.481,-0.0877 -1.9835,-0.74864 -3.9548,-1.59006 -5.8566,-2.49797 -0.6223,-0.29719 -0.8669,-1.00193 -0.5436,-1.57629 0.3219,-0.57432 1.0828,-0.79627 1.7077,-0.50283 1.8368,0.87654 3.7388,1.68788 5.653,2.41018 0.6494,0.24704 0.9592,0.93047 0.6929,1.52737 -0.1998,0.4527 -0.6739,0.72732 -1.1724,0.72732 z m 12.1074,3.43721 c -0.086,0 -0.1753,-0.008 -0.2622,-0.025 -2.0909,-0.40757 -4.1938,-0.90917 -6.2494,-1.49353 -0.6697,-0.1906 -1.0447,-0.84645 -0.8382,-1.46341 0.2051,-0.61949 0.913,-0.96558 1.5841,-0.77373 1.9821,0.5643 4.009,1.04835 6.0251,1.44086 0.6848,0.13291 1.125,0.75365 0.9796,1.38567 -0.1264,0.55051 -0.6521,0.92921 -1.239,0.92921 z m 12.5815,1.33049 c -0.012,0 -0.016,0 -0.024,0 -2.1301,-0.0365 -4.2998,-0.16928 -6.4463,-0.39751 -0.6968,-0.0741 -1.1955,-0.6546 -1.1153,-1.29664 0.081,-0.64205 0.7146,-1.10728 1.4048,-1.0283 2.0663,0.21947 4.1544,0.34738 6.2017,0.38124 0.701,0.0118 1.2581,0.54549 1.2445,1.19256 -0.012,0.63827 -0.576,1.14865 -1.2662,1.14865"
       style="fill:#6b50ad;fill-opacity:1;fill-rule:nonzero;stroke:none;stroke-width:0.13052332"
       id="path290"
       inkscape:connector-curvature="0" />
    <path
       d="m 893.77439,277.47982 c -0.6521,0 -1.2064,-0.46023 -1.2621,-1.07219 -0.058,-0.64454 0.4606,-1.20884 1.1589,-1.26277 1.0325,-0.0803 2.0623,-0.18307 3.0907,-0.31225 0.6874,-0.0828 1.3327,0.36241 1.4265,1.00195 0.094,0.64079 -0.3927,1.23143 -1.0869,1.31796 -1.0705,0.13292 -2.1452,0.24078 -3.2197,0.32352 -0.036,0.004 -0.072,0.004 -0.1074,0.004"
       style="fill:#6b50ad;fill-opacity:1;fill-rule:nonzero;stroke:none;stroke-width:0.13052332"
       id="path292"
       inkscape:connector-curvature="0" />
    <text
       xml:space="preserve"
       style="font-style:normal;font-variant:normal;font-weight:normal;font-stretch:normal;font-size:40px;line-height:1.25;font-family:'Nimbus Mono PS';-inkscape-font-specification:'Nimbus Mono PS';letter-spacing:0px;word-spacing:0px;fill:#000000;fill-opacity:1;stroke:none"
       x="194.42859"
       y="330.14285"
       id="text991"><tspan
         sodipodi:role="line"
         id="tspan989"
         x="194.42859"
         y="330.14285"
         style="font-style:normal;font-variant:normal;font-weight:normal;font-stretch:normal;font-family:'Nimbus Mono PS';-inkscape-font-specification:'Nimbus Mono PS'">loading...</tspan></text>
  </g>
</svg>
